<svg width="350" height="379" viewBox="0 0 321 379" fill="none" xmlns="http://www.w3.org/2000/svg">
<path fill-rule="evenodd" clip-rule="evenodd" d="M203.844 43.5146C202.678 48.4986 199.417 58.2778 188.594 74.5177C174.658 95.4202 147.918 97.6653 147.918 97.6653C150.372 95.5776 167.151 86.414 175.496 66.2686C179.556 56.4692 186.107 50.6502 192.237 46.4043C186.556 47.6662 181.146 48.6568 176.035 49.4139C172.371 63.3475 163.407 71.8423 143.591 88.5741C123.399 105.625 105.759 98.5999 105.759 98.5999C105.759 98.5999 131.789 88.3683 143.504 68.1403C148.894 58.8363 156.158 54.0856 162.82 50.9655C160.281 51.1844 157.84 51.3526 155.519 51.4725C152.392 51.6313 149.404 51.7082 146.545 51.7275C137.781 64.7133 127.018 71.0071 99.0029 75.6744C70.2754 80.4521 61.973 68.0138 61.973 68.0138C61.973 68.0138 76.8476 72.8559 96.933 63.223C109.244 57.3184 125.892 53.4292 136.53 51.542C128.088 51.2321 119.666 50.2024 111.328 48.4618C95.0118 51.5894 70.5045 50.4841 58.278 44.4855C44.8431 37.9007 34.5521 31.5947 34.5521 31.5947C52.1788 24.0476 71.6847 30.1377 77.0752 32.0469C50.8645 21.7698 34.4765 -6.95468 34.4765 -6.95468C43.0955 0.83108 73.8894 -1.79326 87.9624 15.3111C97.4982 26.9022 107.049 37.9354 112.116 43.3612C118.241 44.696 132.178 47.0585 151.527 46.4383C146.724 44.9959 140.533 43.4319 124.092 38.3397C100.669 31.0832 87.9018 2.10581 87.9018 2.10581C99.6266 15.6449 120.802 18.95 137.548 27.5281C146.065 32.0145 153.878 38.2495 160.636 45.9516C166.21 45.5139 172.332 44.8079 178.914 43.7294C167.227 39.4743 149.196 31.2066 139.531 19.5456C132.635 11.2342 116.747 1.50279 116.747 1.50279C116.747 1.50279 132.107 -7.50356 151.849 9.24867C169.659 24.3626 177.896 31.3627 186.679 42.308C193.12 41.0169 199.943 39.3558 207.08 37.2528C196.856 36.601 183.71 33.434 175.921 21.1957C161.984 -0.716353 149.087 -1.31367 149.087 -1.31367C149.087 -1.31367 157.618 -10.9138 190.861 8.92554C209.898 20.2883 217.549 28.1495 220.482 32.8697C225.297 31.1472 230.225 29.2072 235.265 27.0489C225.257 25.4061 207.315 19.7349 196.798 3.0905C191.294 -5.61829 182.075 -16.2355 182.075 -16.2355C182.075 -16.2355 205.569 -10.7746 223.449 2.84697C239.196 14.8463 241.572 19.8636 242.034 24.011L268.998 9.39498C270.057 8.75249 271.36 9.27095 271.909 10.5507C272.459 11.8316 272.046 13.3901 270.988 14.0318C263.02 18.8547 255.087 23.3555 247.445 27.052C248.934 31.8444 248.813 37.1204 247.107 41.7513C243.633 51.2121 236.365 51.6813 236.121 56.1698C236.121 56.1698 232.024 47.0566 235.537 42.2602C239.049 37.4648 241.565 36.6906 243.207 31.7046C243.441 30.756 243.616 29.7877 243.732 28.8072C238.956 31.025 234.263 33.0438 229.651 34.8602C229.801 43.8672 226.44 57.6263 218.849 77.3648C210.463 99.1758 180.909 103.188 180.909 103.188C180.909 103.188 192.073 98.4143 204.96 68.6866C212.486 51.3236 220.041 41.7912 224.447 36.8578L203.844 43.5146Z" fill="url(#paint0_linear_1061_1912)"/>
<path fill-rule="evenodd" clip-rule="evenodd" d="M283.62 13.5718C280.694 16.2458 282.782 26.3615 276.332 54.7652C269.721 58.6985 246.347 73.0721 231.032 87.0641C218.065 98.9112 209.682 111.508 216.173 118.37C223.459 126.073 239.162 116.121 250.469 105.658C257.187 99.503 262.943 92.4073 267.551 84.5997C265.481 91.579 255.903 122.473 252.464 129.282C245.883 129.322 223.523 128.19 210.271 129.661C194.953 131.36 173.453 136.034 165.673 143.142C161.445 147.004 161.034 152.037 166.732 158.062C179.671 171.742 229.62 151.374 231.553 150.204C231.605 150.173 244.25 142.028 244.314 142.181C236.048 155.509 229.486 164.839 219.083 176.139C211.34 175.049 153.578 168.443 141.294 179.956C140.242 180.954 139.525 182.244 139.239 183.652C138.681 185.72 139.338 187.92 140.943 189.366C149.46 198.369 186.277 196.986 200.157 195.247L180.309 213.38C167.892 211.483 155.344 210.542 142.778 210.57C129.381 210.796 109.294 218.079 101.246 225.632C97.7797 228.89 96.4322 232.1 98.9806 234.973C100.025 236.056 101.268 236.935 102.644 237.568C117.927 245.178 148.606 232.882 160.6 227.751C154.959 232.438 148.684 236.336 141.955 239.333C139.794 240.25 116.325 253.87 99.6322 268.912C86.8157 280.461 77.3823 294.258 83.1221 300.354C89.6449 307.282 105.208 300.152 119.07 287.505C134.29 273.62 148.732 253.111 156.35 238.904C165.971 230.69 171.134 227.289 180.098 219.026C180.098 219.026 146.767 263.979 158.776 276.675C171.169 289.776 200.572 219.549 199.946 200.892C206.586 194.847 212.903 188.469 218.872 181.784C212.94 197.764 198.419 232.528 207.976 242.631C211.814 246.689 217.949 244.424 221.448 241.228C237.71 226.37 235.884 162.606 235.884 162.606C241.348 155.855 246.412 148.802 251.051 141.479C251.051 141.479 233.452 196.07 256.376 200.458C279.047 204.798 272.397 139.304 261.396 121.122C262.6 118.194 275.017 78.5956 279.811 64.3105C279.804 64.614 280.312 76.5761 280.312 76.5761C280.312 76.5761 280.636 142.86 304.872 137.747C326.145 133.259 308.792 65.6111 287.319 42.91C291.734 23.7644 290.216 16.6338 290.216 16.6338C289.945 15.2359 289.336 13.922 288.442 12.8023C287.294 11.5336 286.026 11.3742 283.62 13.5718Z" fill="url(#paint1_linear_1061_1912)"/>
<path d="M372.461 0.247654C372.461 0.247654 313.483 94.6577 132.765 47.4669C132.765 47.4669 228.665 -68.0492 372.461 0.247654Z" fill="url(#paint2_linear_1061_1912)"/>
<path d="M373.697 33.7587C373.697 33.7587 404.322 140.534 246.242 239.144C246.242 239.144 224.894 91.336 373.697 33.7587Z" fill="url(#paint3_linear_1061_1912)"/>
<path d="M377.982 13.148C377.982 13.148 364.547 130.845 167.834 165.89C167.834 165.89 207.245 11.2811 377.982 13.148Z" fill="url(#paint4_linear_1061_1912)"/>
<path d="M362.258 37.2294C362.258 37.2294 384.254 192.803 306.634 268.298C306.634 268.298 271.595 171.451 362.258 37.2294Z" fill="url(#paint5_linear_1061_1912)"/>
<defs>
<linearGradient id="paint0_linear_1061_1912" x1="295.621" y1="109.638" x2="94.164" y2="19.1741" gradientUnits="userSpaceOnUse">
<stop/>
<stop offset="0.60345" stop-color="#6633CC"/>
<stop offset="1" stop-color="#FF9CAA"/>
</linearGradient>
<linearGradient id="paint1_linear_1061_1912" x1="386.058" y1="58.1244" x2="142.876" y2="269.412" gradientUnits="userSpaceOnUse">
<stop/>
<stop offset="0.60345" stop-color="#6633CC"/>
<stop offset="1" stop-color="#FF9CAA"/>
</linearGradient>
<linearGradient id="paint2_linear_1061_1912" x1="248.862" y1="-188.975" x2="333.204" y2="16.7384" gradientUnits="userSpaceOnUse">
<stop stop-color="#FFA5A5"/>
<stop offset="1" stop-color="#311172"/>
</linearGradient>
<linearGradient id="paint3_linear_1061_1912" x1="476.09" y1="95.7372" x2="280.092" y2="-4.76428" gradientUnits="userSpaceOnUse">
<stop/>
<stop offset="0.60345" stop-color="#4D2899"/>
<stop offset="1" stop-color="#FF9CAA"/>
</linearGradient>
<linearGradient id="paint4_linear_1061_1912" x1="240.406" y1="-47.6311" x2="357.873" y2="14.6266" gradientUnits="userSpaceOnUse">
<stop stop-color="#FFA5A5"/>
<stop offset="1" stop-color="#4A219B"/>
</linearGradient>
<linearGradient id="paint5_linear_1061_1912" x1="376.936" y1="11.404" x2="257.907" y2="175.391" gradientUnits="userSpaceOnUse">
<stop/>
<stop offset="0.60345" stop-color="#6633CC"/>
<stop offset="1" stop-color="#FF9CAA"/>
</linearGradient>
</defs>
</svg>
