<svg width="200" height="110" viewBox="0 0 233 104" fill="none" xmlns="http://www.w3.org/2000/svg">
<path d="M103.275 51.6376C103.275 75.5346 87.0428 95.6399 65.0016 101.529C63.6849 101.88 62.347 102.182 60.9898 102.43C57.9572 102.985 54.8313 103.275 51.6376 103.275C48.4438 103.275 45.249 102.979 42.185 102.412C41.8262 102.346 41.4694 102.276 41.1136 102.201C39.798 101.929 38.5006 101.607 37.2245 101.236C36.8728 101.133 36.5231 101.028 36.1745 100.919C31.0944 99.3273 26.3509 96.9717 22.0817 93.9847C21.1999 93.3685 20.3384 92.7259 19.4981 92.0559C7.616 82.5962 0 68.0068 0 51.6376C0 23.1186 23.1186 0 51.6376 0C80.1565 0 103.275 23.1186 103.275 51.6376Z" fill="url(#paint0_linear_1061_1815)"/>
<path d="M67.9997 32.8894C67.8821 33.0364 67.8061 33.2199 67.7919 33.4206L61.7166 32.8986L63.1305 31.1086L64.7735 29.9856L65.0918 29.7676L67.9997 32.8894Z" fill="#110C24"/>
<path d="M62.5751 29.5577V29.5405L60.628 27.6248C60.5652 28.4083 60.6159 29.2617 60.9808 29.8658C60.9808 29.8658 61.6933 29.9195 62.5751 29.5587V29.5577Z" fill="#110C24"/>
<path d="M75.9706 28.3993C75.7619 29.1605 75.5389 29.8132 75.3078 30.3727L69.652 33.2107C69.6419 33.1773 69.6307 33.1459 69.6165 33.1145L71.6295 29.273C71.963 29.0297 72.3299 28.8473 72.708 28.7125H72.709C74.2648 28.156 75.9706 28.3993 75.9706 28.3993Z" fill="#110C24"/>
<path d="M34.8456 92.3458C34.9115 92.5221 34.9743 92.6965 35.0331 92.8678L38.982 94.4165C38.7448 93.5388 38.5147 92.6813 38.3019 91.8775L34.8456 92.3458Z" fill="#110C24"/>
<path d="M61.5392 41.1073L58.9901 43.5581L58.012 43.2408L58.914 39.8322L61.1125 40.3593C61.151 40.6623 61.3091 40.9279 61.5392 41.1073Z" fill="#110C24"/>
<path d="M69.4584 55.6858C69.4584 55.7922 69.4756 55.8956 69.506 55.9919L58.4753 61.0983C58.3831 60.9928 58.2706 60.9077 58.1418 60.8489L62.2306 49.285C62.3806 49.1634 62.5245 49.0398 62.6634 48.9151L69.5628 55.2428C69.4959 55.3766 69.4584 55.5266 69.4584 55.6858Z" fill="#110C24"/>
<path d="M61.6416 49.7349L57.7434 60.7565H57.7241C57.4383 60.7565 57.1799 60.8771 56.9974 61.0717L51.1653 57.2698C51.1714 57.2242 51.1744 57.1775 51.1744 57.1299C51.1744 56.7924 51.0234 56.4903 50.7862 56.2866L53.8817 52.3063C54.1523 52.283 54.425 52.2576 54.7007 52.2283C54.726 52.2252 54.7523 52.2232 54.7777 52.2201C57.7566 51.9009 59.9864 50.9218 61.6416 49.7349Z" fill="#110C24"/>
<path d="M50.7325 72.3985C50.6565 72.3904 50.5825 72.3823 50.5065 72.3742H50.5055C50.2318 72.3448 49.9551 72.3154 49.6764 72.286L46.6904 67.7006C46.7249 67.587 46.7431 67.4654 46.7431 67.3407C46.7431 66.8796 46.4907 66.4772 46.1167 66.2643L49.7261 58.1831C49.8082 58.2094 49.8943 58.2267 49.9825 58.2338L50.7325 72.3985Z" fill="#110C24"/>
<path d="M49.1575 72.2322C47.0047 72.0072 44.7221 71.7892 42.5825 71.695H42.5814C42.3362 71.6838 42.0939 71.6747 41.8527 71.6676L44.6613 68.2458C44.8823 68.4526 45.1792 68.5792 45.5056 68.5792C45.8979 68.5792 46.2476 68.3968 46.4746 68.111L49.1575 72.2322Z" fill="#110C24"/>
<path d="M69.9651 56.5533L66.5433 66.4427C66.3841 66.3363 66.1936 66.2735 65.9878 66.2735C65.6736 66.2735 65.3939 66.4184 65.2114 66.6454L58.6313 62.1634C58.6891 62.0377 58.7205 61.8989 58.7205 61.7519C58.7205 61.6475 58.7043 61.5472 58.6749 61.4529L69.7086 56.3455C69.7816 56.4286 69.8678 56.4985 69.9651 56.5533Z" fill="#110C24"/>
<path d="M71.7035 33.6788C71.7035 33.6788 72.6137 35.4161 73.7671 37.8395L63.3689 40.116C63.3628 40.043 63.3496 39.9721 63.3293 39.9032L68.6638 34.4339C68.6891 34.4359 68.7145 34.4369 68.7408 34.4369C69.2101 34.4369 69.5993 34.0984 69.6774 33.6524L75.0493 30.9563C74.9865 31.0881 74.9236 31.2138 74.8608 31.3324C73.3506 34.1815 71.7035 33.6788 71.7035 33.6788Z" fill="#110C24"/>
<path d="M68.2349 34.292L63.1367 39.52C62.9755 39.3102 62.7414 39.1582 62.4738 39.1024L61.5646 33.2916L67.8559 33.8318C67.9298 34.0234 68.0636 34.1835 68.2349 34.292Z" fill="#110C24"/>
<path d="M77.1512 45.7355L75.9095 47.5296C75.7747 47.4606 75.6227 47.4221 75.4605 47.4221C75.1646 47.4221 74.898 47.5509 74.7156 47.7566L66.7174 44.1361L74.2402 38.8432C75.2294 40.9667 76.3231 43.457 77.1512 45.7355Z" fill="#110C24"/>
<path d="M66.0933 43.7023C66.0964 43.6932 66.0974 43.6881 66.0974 43.6881L64.647 41.959L62.1374 44.5801L59.9663 43.8756L59.4271 43.7003L61.9205 41.3032C62.0208 41.3326 62.1272 41.3478 62.2377 41.3478C62.7587 41.3478 63.1986 40.9961 63.3314 40.5166L73.8229 38.3648L66.0933 43.7023Z" fill="#110C24"/>
<path d="M74.7868 49.1511L70.8855 54.7886C70.7548 54.7257 70.6088 54.6902 70.4547 54.6902C70.2115 54.6902 69.9875 54.7784 69.8142 54.9244L62.9624 48.6392C63.081 48.5267 63.1955 48.4132 63.305 48.2986C63.3435 48.2591 63.381 48.2196 63.4185 48.18C64.8375 46.6749 65.5653 45.1414 65.8845 44.3133L74.5111 48.1172C74.4807 48.2135 74.4644 48.3138 74.4644 48.4182C74.4644 48.7081 74.5881 48.9696 74.7868 49.1511Z" fill="#110C24"/>
<path d="M62.0621 39.0903C61.606 39.1613 61.2391 39.5039 61.1337 39.9478L59.0174 39.44L59.0265 39.4076L60.2904 34.6275L60.4617 33.9799L61.1763 33.4346L62.0621 39.0903Z" fill="#110C24"/>
<path d="M40.1001 73.8033L40.0899 73.7952L39.795 73.8063L39.7919 73.8094L39.7899 73.8063L37.0239 73.9087L39.9774 77.513C41.9164 75.4493 43.3759 73.6746 43.3759 73.6746L40.1082 73.7952L40.1011 73.8043L40.1001 73.8033Z" fill="#110C24"/>
<path d="M26.1371 82.6447L26.1421 82.6569L26.8668 83.1728C26.9641 83.0795 27.0604 82.9893 27.1516 82.9032C27.4922 82.5839 27.7942 82.3113 28.0649 82.0761L25.7134 72.9387C25.5411 73.2276 25.3505 73.483 25.1387 73.702C22.7994 76.1295 20.6323 77.9498 20.6323 77.9498C20.6323 77.9498 20.6171 78.0471 20.5898 78.2286C20.5725 78.3401 20.5512 78.485 20.5269 78.6563L26.1289 82.6478L26.1371 82.6447Z" fill="#110C24"/>
<path d="M32.3634 64.8919C32.0633 65.1037 31.8677 65.4544 31.8677 65.8497H27.3452C27.5752 63.411 27.7131 60.7332 28.0019 58.1871C28.0557 57.7087 28.1124 57.2627 28.1732 56.8461L32.3634 64.8919Z" fill="#110C24"/>
<path d="M25.682 82.8273L20.4621 79.1084C20.2726 80.4413 19.9634 82.7644 19.7354 85.2122L25.682 82.8283V82.8273Z" fill="#110C24"/>
<path d="M39.114 94.903L35.1985 93.3674C35.4002 94.0212 35.5381 94.6283 35.5807 95.1655C35.6263 95.7331 35.6851 96.3646 35.7509 97.0275L40.0242 98.2417C39.7242 97.1481 39.415 96.0149 39.115 94.903H39.114Z" fill="#110C24"/>
<path d="M21.0449 61.3507C22.9109 62.4109 25.6202 62.4291 25.6202 62.4291L25.759 60.9908L23.066 58.984L21.0449 61.3507Z" fill="#110C24"/>
<path d="M29.2093 74.4694L28.9488 81.3465C28.7856 81.4742 28.6062 81.6181 28.4086 81.7833L25.9962 72.4067C26.1767 72.0226 26.3348 71.5959 26.4736 71.1327C26.5 71.0414 26.5263 70.9482 26.5517 70.8549L28.6457 73.1132C28.5859 73.2409 28.5525 73.3828 28.5525 73.5338C28.5525 73.9646 28.8261 74.3315 29.2093 74.4694Z" fill="#110C24"/>
<path d="M72.3469 64.1064C69.515 67.213 66.1702 71.9079 65.412 75.0459C65.2174 75.8466 65.0826 77.2606 64.9894 79.0424L60.9077 82.3477C60.9108 81.1284 60.9168 80.1675 60.928 79.6019C60.9493 78.5357 60.9148 77.5049 60.7891 76.5845C60.7486 76.2936 60.6989 76.0159 60.6391 75.7504L66.152 68.2519C66.6233 68.1729 66.9831 67.7634 66.9831 67.2688C66.9831 67.0914 66.9365 66.9241 66.8544 66.7802L70.3512 56.6769C70.3847 56.68 70.4191 56.682 70.4546 56.682H70.4667L72.3469 64.1064Z" fill="#110C24"/>
<path d="M57.0217 62.4573L51.967 72.5282C51.967 72.5282 51.9589 72.5282 51.9559 72.5282C51.6883 72.5008 51.4156 72.4725 51.141 72.4431L50.3869 58.1912C50.6646 58.1081 50.8957 57.9185 51.0345 57.6692L56.7866 61.4194C56.7491 61.5238 56.7288 61.6353 56.7288 61.7529C56.7288 62.0286 56.8403 62.2779 57.0217 62.4583V62.4573Z" fill="#110C24"/>
<path d="M32.5459 66.9139L29.7647 72.5606C29.6948 72.5454 29.6228 72.5372 29.5488 72.5372C29.2984 72.5372 29.0694 72.6295 28.894 72.7836L26.6723 70.3875C26.7219 70.1787 26.7696 69.9648 26.8142 69.7448C27.029 68.6877 27.1821 67.5059 27.3068 66.2551H31.9398C32.0473 66.546 32.2672 66.7832 32.5459 66.9139Z" fill="#110C24"/>
<path d="M31.8972 85.714L36.6448 85.7738C36.1532 84.3578 35.7376 83.3858 35.9525 82.3692L33.2452 77.7635C32.0837 79.1886 31.0346 80.7008 30.8329 81.7103C30.6616 82.5678 31.1624 84.0243 31.8972 85.714Z" fill="#110C24"/>
<path d="M37.5722 79.9444C37.8965 79.6343 38.2178 79.318 38.535 79.0008L33.5979 77.3375C33.5341 77.4135 33.4712 77.4896 33.4084 77.5656L36.0812 81.9351C36.3113 81.3401 36.7745 80.7066 37.5732 79.9444H37.5722Z" fill="#110C24"/>
<path d="M38.1267 71.9271C36.3022 72.3802 35.3079 73.3492 34.4667 74.5837C34.4231 74.6465 34.3815 74.7104 34.339 74.7742L34.3815 74.5867L30.5279 73.713C30.5391 73.6553 30.5441 73.5944 30.5441 73.5336C30.5441 73.2032 30.383 72.9093 30.1346 72.7289L32.9463 67.0194C32.9777 67.0224 33.0091 67.0235 33.0416 67.0235C33.2605 67.0235 33.4652 66.9637 33.6406 66.8593L38.1267 71.9271Z" fill="#110C24"/>
<path d="M37.2853 87.9203C37.1292 87.2695 36.9549 86.6969 36.7836 86.181L32.0766 86.1212C32.111 86.2002 32.1465 86.2783 32.182 86.3573L37.5529 89.0017C37.4495 88.5933 37.3593 88.2294 37.2853 87.9192V87.9203Z" fill="#110C24"/>
<path d="M38.1974 91.4821C38.0099 90.7726 37.8366 90.1097 37.6856 89.5198L32.4485 86.9413C33.2026 88.5812 34.0661 90.3469 34.6986 91.9564L38.1985 91.4821H38.1974Z" fill="#110C24"/>
<path d="M38.8078 78.7272C39.1108 78.4201 39.4078 78.1129 39.6956 77.8099L36.6113 74.0455C36.2211 74.4387 34.9795 75.7067 33.7429 77.1653L38.8078 78.7282V78.7272Z" fill="#110C24"/>
<path d="M40.3636 60.5225L34.0176 65.1961C33.8788 64.9884 33.6751 64.8282 33.4359 64.7431L33.821 51.0933C34.0663 51.076 34.3217 51.0618 34.5893 51.0487C34.6045 51.0476 34.6187 51.0476 34.6339 51.0466H34.6532L40.168 59.2475C40.0748 59.3995 40.02 59.5789 40.02 59.7715C40.02 60.0715 40.1528 60.3401 40.3636 60.5225Z" fill="#110C24"/>
<path d="M49.3692 57.9886L45.7365 66.1246H45.7355C45.6605 66.1094 45.5845 66.1023 45.5054 66.1023C44.8213 66.1023 44.2669 66.6567 44.2669 67.3409C44.2669 67.5487 44.3175 67.7443 44.4088 67.9156L41.3386 71.6557C41.215 71.6526 41.0893 71.6496 40.9677 71.6476C40.3291 71.6395 39.7554 71.6678 39.2365 71.7297C39.0074 71.757 38.7895 71.7905 38.5807 71.829L33.9487 66.5959C34.1159 66.3922 34.2163 66.1327 34.2163 65.8499C34.2163 65.7557 34.2051 65.6654 34.1838 65.5773L40.7619 60.7344C40.843 60.7557 40.9281 60.7668 41.0153 60.7668C41.4359 60.7668 41.7958 60.5064 41.9417 60.1374L49.0104 57.4585C49.0753 57.6694 49.202 57.8528 49.3692 57.9886Z" fill="#110C24"/>
<path d="M72.3815 74.3618L73.3829 70.9015L69.4461 69.9589L67.2386 72.8253C67.2386 72.8253 70.0888 73.8611 72.3825 74.3618H72.3815Z" fill="#110C24"/>
<path d="M41.7776 51.7609L41.0346 58.7749H41.0154C40.8076 58.7749 40.615 58.8387 40.4549 58.9482L35.1346 51.0352C35.39 51.0332 35.6485 51.0372 35.913 51.0474C37.6554 51.1183 39.5832 51.4416 41.7776 51.7609Z" fill="#110C24"/>
<path d="M25.8046 60.5195L26.212 56.3C25.7295 57.5609 24.5933 58.2917 23.3821 58.7154L25.8035 60.5206L25.8046 60.5195Z" fill="#110C24"/>
<path d="M53.3355 52.3491L50.4316 56.0841C50.3181 56.0436 50.1955 56.0223 50.0677 56.0223C49.486 56.0223 49.0086 56.4713 48.965 57.0429L42.0078 59.6792C41.9744 59.3184 41.7483 59.0123 41.4331 58.8674L42.1791 51.819C42.4416 51.8565 42.7062 51.894 42.9768 51.9305C45.9091 52.3298 49.3066 52.645 53.3355 52.3491Z" fill="#110C24"/>
<path d="M33.4156 51.1246L33.0324 64.6751C32.928 64.6761 32.8267 64.6903 32.7304 64.7177L28.2808 56.1742C28.3487 55.784 28.4207 55.4222 28.5018 55.0897C29.2153 52.1179 30.4802 51.378 33.4156 51.1246Z" fill="#110C24"/>
<path d="M62.5975 28.9932L62.7049 26.2627C62.2488 25.9616 61.6883 25.7163 61.0112 25.616C61.0112 25.616 60.8034 26.2728 60.6848 27.112L62.5975 28.9932Z" fill="#110C24"/>
<path d="M66.7498 28.0598L67.3235 28.6335L71.2238 24.7332V12.6737C71.7275 12.5045 72.0914 12.0291 72.0914 11.4676C72.0914 10.7642 71.5218 10.1945 70.8183 10.1945C70.1149 10.1945 69.5453 10.7642 69.5453 11.4676C69.5453 12.0291 69.9092 12.5045 70.4129 12.6737V24.3967L69.2088 25.6009V16.949C69.7125 16.7797 70.0764 16.3044 70.0764 15.7428C70.0764 15.0394 69.5068 14.4698 68.8034 14.4698C68.0999 14.4698 67.5303 15.0394 67.5303 15.7428C67.5303 16.3044 67.8942 16.7797 68.3979 16.949V26.4117L66.7498 28.0598Z" fill="#110C24"/>
<path d="M70.3238 30.8915L69.3477 32.7535C69.1835 32.6166 68.9716 32.5345 68.7405 32.5345C68.5885 32.5345 68.4446 32.57 68.3169 32.6339L65.563 29.6793L66.2786 29.656L69.3892 29.5566L70.3238 30.8915Z" fill="#110C24"/>
<path d="M62.9887 29.3611C63.4479 29.1118 63.9283 28.7408 64.3631 28.1894C64.3631 28.1894 63.9891 27.2995 63.0992 26.5565L62.9887 29.3611Z" fill="#110C24"/>
<path d="M34.2163 74.9649C33.6162 75.9086 33.0628 76.9809 32.2885 78.0837C31.2658 79.5402 30.7945 79.9953 30.2005 80.4342C29.9583 80.6126 29.6947 80.7899 29.3663 81.0312L29.6126 74.5271C29.9279 74.5068 30.2035 74.3395 30.3718 74.0932L34.2163 74.9649Z" fill="#110C24"/>
<path d="M57.7242 72.8709C57.6837 72.873 57.6421 72.874 57.6006 72.877C56.6225 72.952 55.0433 72.8365 53.1469 72.649C52.9026 72.6257 52.6523 72.5993 52.3979 72.574L57.3634 62.6805L57.4384 62.5305L57.4435 62.7078L57.7242 72.8709Z" fill="#110C24"/>
<path d="M60.9687 98.8892C60.9778 100.34 60.9849 101.569 60.991 102.43C62.3482 102.181 63.6861 101.88 65.0027 101.529C64.9936 101.158 64.9825 100.735 64.9713 100.268L60.9687 98.8892Z" fill="#110C24"/>
<path d="M74.5465 81.4852L71.8808 84.9404L71.0801 85.9783C72.2224 85.0621 73.4336 83.8954 74.5465 82.4369V81.4852Z" fill="#110C24"/>
<path d="M41.1137 102.2C39.7981 101.929 38.5007 101.607 37.2246 101.236C36.8729 101.133 36.5232 101.028 36.1746 100.918C36.0438 99.7973 35.91 98.5942 35.7945 97.461L40.1488 98.6986C40.4964 99.9676 40.8289 101.17 41.1137 102.2Z" fill="#110C24"/>
<path d="M20.6973 61.1336L22.5552 58.9574C20.9142 59.3558 19.3777 59.2828 19.3777 59.2828C19.5469 60.0886 20.0476 60.6876 20.6973 61.1336Z" fill="#110C24"/>
<path d="M74.0844 10.1275V23.4489L69.4736 28.0597L70.0473 28.6333L78.4002 20.2805V12.0127C78.9039 11.8435 79.2678 11.3681 79.2678 10.8066C79.2678 10.1032 78.6981 9.53353 77.9947 9.53353C77.2913 9.53353 76.7217 10.1032 76.7217 10.8066C76.7217 11.3681 77.0855 11.8435 77.5893 12.0127V19.945L74.8952 22.638V10.1275C75.399 9.95822 75.7628 9.48285 75.7628 8.92133C75.7628 8.21791 75.1932 7.64828 74.4898 7.64828C73.7864 7.64828 73.2167 8.21791 73.2167 8.92133C73.2167 9.48285 73.5806 9.95822 74.0844 10.1275Z" fill="#110C24"/>
<path d="M22.4932 89.974L19.5832 87.064C19.4535 88.9016 19.3957 90.6865 19.4981 92.0559C20.3383 92.7258 21.1999 93.3684 22.0817 93.9847C22.0421 92.8809 22.1131 91.4761 22.4922 89.974H22.4932Z" fill="#110C24"/>
<path d="M26.0742 83.1068L19.6948 85.6651C19.6887 85.7299 19.6836 85.7948 19.6776 85.8597C19.6583 86.0837 19.6401 86.3077 19.6228 86.5317L22.6159 89.5248C22.6696 89.3413 22.7264 89.1568 22.7892 88.9713C23.3082 87.45 24.1728 85.8779 25.5735 84.4518C25.9344 84.0849 26.2648 83.7565 26.5699 83.4605L26.0742 83.1078V83.1068Z" fill="#110C24"/>
<path d="M69.7167 69.6059L73.4953 70.5111L73.7781 69.5309L71.5168 67.2686L69.7167 69.6059Z" fill="#110C24"/>
<path d="M73.697 76.9868C73.4791 77.6224 73.1872 78.343 72.8 79.0941L77.4918 75.131L73.697 76.9868Z" fill="#110C24"/>
<path d="M66.3365 85.2019V88.8142C66.3365 88.8142 67.6481 88.3399 69.4158 87.1854L66.3365 85.2029V85.2019Z" fill="#110C24"/>
<path d="M73.8896 70.6053L75.1555 70.9084L74.1055 69.8583L73.8896 70.6053Z" fill="#110C24"/>
<path d="M65.6756 68.2153L60.5084 75.2444C60.2043 74.2268 59.7127 73.4565 58.9475 73.0946C58.7032 72.9791 58.4316 72.9061 58.1305 72.8788L57.8488 62.74C58.0565 62.7146 58.244 62.6244 58.392 62.4916L65.0259 67.0091C65.0036 67.0912 64.9914 67.1784 64.9914 67.2686C64.9914 67.7095 65.2783 68.0835 65.6756 68.2153Z" fill="#110C24"/>
<path d="M60.9159 88.279C60.9159 88.4503 60.9169 88.6226 60.918 88.796L63.8218 91.0025L64.8172 89.6443C64.8151 89.2703 64.8141 88.8963 64.8141 88.5213L60.9109 86.1222C60.9129 86.8175 60.9149 87.5391 60.9169 88.277L60.9159 88.279Z" fill="#110C24"/>
<path d="M76.4479 48.5409C76.4529 48.5003 76.456 48.4598 76.456 48.4182C76.456 48.177 76.3698 47.9561 76.2279 47.7837L77.3196 46.2056C77.3773 46.3708 77.4341 46.534 77.4888 46.6962C77.5172 46.7803 77.5446 46.8644 77.5709 46.9496C77.7878 47.6277 77.9571 48.3301 78.0828 49.0436C78.098 49.1288 78.1122 49.2149 78.1264 49.3001L76.4479 48.5409Z" fill="#110C24"/>
<path d="M64.8131 87.661C64.8162 84.9882 64.8506 82.3681 64.9378 80.1666C64.9459 79.968 64.954 79.7764 64.9621 79.5858L60.9068 82.8698C60.9068 83.0523 60.9068 83.2388 60.9068 83.4293C60.9068 84.004 60.9068 84.6172 60.9078 85.2608C60.9078 85.3886 60.9078 85.5173 60.9078 85.646L64.8121 88.0451C64.8121 87.9164 64.8121 87.7887 64.8121 87.66L64.8131 87.661Z" fill="#110C24"/>
<path d="M64.8303 91.7699C64.8293 91.632 64.8272 91.4952 64.8262 91.3573V91.2519C64.8242 90.9448 64.8222 90.6367 64.8201 90.3265L64.1441 91.2489L64.8303 91.7699Z" fill="#110C24"/>
<path d="M75.7039 71.4568L73.7771 70.9956L72.7797 74.4438C73.2196 74.5299 73.6301 74.5908 73.9839 74.6151L76.5543 72.3062L75.7049 71.4568H75.7039Z" fill="#110C24"/>
<path d="M60.9199 89.307C60.927 91.173 60.9361 93.1049 60.9462 94.9253L63.5815 91.3301L60.9199 89.307Z" fill="#110C24"/>
<path d="M76.8401 72.593L74.2454 74.9243C74.1886 75.2354 74.0751 75.7736 73.8693 76.4507L78.2095 74.3283C78.2307 74.2279 78.252 74.1276 78.2713 74.0262L76.8391 72.594L76.8401 72.593Z" fill="#110C24"/>
<path d="M76.9914 59.2523C75.9251 61.1457 74.1148 62.212 72.6745 63.7506L70.8633 56.5947C71.2099 56.4386 71.4501 56.09 71.4501 55.6856C71.4501 55.4372 71.3589 55.2092 71.2079 55.0359L75.1365 49.3588C75.2379 49.3943 75.3473 49.4136 75.4609 49.4136C75.8247 49.4136 76.144 49.2179 76.3173 48.926L78.1975 49.7774C78.3435 49.8433 78.3354 51.1326 78.3455 51.3181C78.4925 53.9229 78.2958 56.9353 76.9914 59.2523Z" fill="#110C24"/>
<path d="M78.0027 75.2295L74.9508 78.0422V81.8847C76.2208 80.0937 77.3266 77.8972 78.0027 75.2295Z" fill="#110C24"/>
<path d="M74.5464 80.8211V78.1493L72.2203 80.1136C71.374 81.4698 70.1962 82.8391 68.5643 83.9135L71.6456 84.5794L74.5454 80.8201L74.5464 80.8211Z" fill="#110C24"/>
<path d="M64.9569 99.7001C64.9133 97.7206 64.8637 95.0944 64.8353 92.2827L63.9048 91.5753L60.9503 95.6052C60.9523 95.9549 60.9543 96.2995 60.9563 96.6371C60.9594 97.2209 60.9624 97.7865 60.9655 98.3247C60.9655 98.3703 60.9655 98.4149 60.9655 98.4595L64.96 99.8359C64.9589 99.7903 64.9579 99.7467 64.9569 99.7001Z" fill="#110C24"/>
<path d="M68.0707 84.2228C67.6318 84.4813 67.1635 84.7195 66.6618 84.9303L69.7826 86.9402C69.813 86.92 69.8434 86.8977 69.8749 86.8764L71.3719 84.9364L68.0707 84.2228Z" fill="#110C24"/>
<path d="M57.4381 62.5305L57.3631 62.6805C57.3895 62.6907 57.4158 62.6998 57.4432 62.7079L57.4381 62.5305Z" fill="#FCF7FF"/>
<g clip-path="url(#clip0_1061_1815)">
<path d="M120.344 95.7753V90.3815L131.282 81.2562C134.823 78.3344 136.304 76.2653 136.304 73.5245C136.304 70.1531 134.646 68.3545 131.686 68.3545C128.726 68.3545 126.8 70.4684 126.8 74.198H119.582C119.582 66.7351 124.333 61.8804 131.641 61.8804C138.949 61.8804 143.745 65.972 143.745 73.0749C143.745 77.6161 141.011 81.3009 136.886 84.7637L131.909 88.9449H144.013V95.6877L120.344 95.7772V95.7753Z" fill="url(#paint1_linear_1061_1815)"/>
<path d="M161.452 61.8787C170.103 61.8787 175.932 68.9368 175.932 79.2319C175.932 89.5271 170.553 96.3594 161.452 96.3594C152.35 96.3594 146.972 89.5271 146.972 79.2319C146.972 68.9368 152.799 61.8787 161.452 61.8787ZM161.452 89.9767C166.069 89.9767 168.758 86.3796 168.758 79.2319C168.758 72.0843 166.067 68.2632 161.452 68.2632C156.836 68.2632 154.144 71.8604 154.144 79.2319C154.144 86.6035 156.834 89.9767 161.452 89.9767Z" fill="url(#paint2_linear_1061_1815)"/>
<path d="M179.653 95.7756V90.3817L190.59 81.2564C194.131 78.3346 195.612 76.2655 195.612 73.5248C195.612 70.1534 193.954 68.3548 190.994 68.3548C188.034 68.3548 186.109 70.4687 186.109 74.1983H178.892C178.892 66.7353 183.643 61.8807 190.951 61.8807C198.259 61.8807 203.056 65.9722 203.056 73.0751C203.056 77.6163 200.321 81.3012 196.196 84.764L191.219 88.9451H203.324V95.6879L179.655 95.7775L179.653 95.7756Z" fill="url(#paint3_linear_1061_1815)"/>
<path d="M228.92 89.8853V95.7735H222.06V89.8853H205.563V83.5026L219.863 62.5074H228.918V83.5026H232.998V89.8853H228.918H228.92ZM222.06 83.5026V70.5562L213.273 83.5026H222.06Z" fill="url(#paint4_linear_1061_1815)"/>
<path d="M134.519 7.22353H120.601V29.5397H134.519C137.775 29.5397 140.724 28.2915 142.856 26.2727C144.99 24.254 146.309 21.4629 146.309 18.3825C146.309 12.2181 141.031 7.22353 134.519 7.22353ZM139.392 22.5786C138.257 23.6532 137.031 24.0264 135.299 24.0264L126.566 23.9126C126.157 23.907 125.825 23.5917 125.825 23.2036V13.2405C125.825 12.8021 126.201 12.4457 126.666 12.4457H134.847C138.322 12.4457 141.254 15.1361 141.23 18.4254C141.217 20.0468 140.518 21.5132 139.394 22.5786H139.392ZM173.357 9.55384C173.357 11.011 172.179 12.192 170.726 12.192H149.716C148.263 12.192 147.085 11.011 147.085 9.55384C147.085 8.09669 148.263 6.91568 149.716 6.91568H170.726C172.179 6.91568 173.357 8.09669 173.357 9.55384ZM173.357 26.9034C173.357 28.3605 172.179 29.5415 170.726 29.5415H149.716C148.263 29.5415 147.085 28.3605 147.085 26.9034C147.085 25.4462 148.263 24.2652 149.716 24.2652H170.726C172.179 24.2652 173.357 25.4462 173.357 26.9034ZM149.093 18.2277C149.093 16.7705 150.27 15.5895 151.723 15.5895H168.719C170.172 15.5895 171.349 16.7705 171.349 18.2277C171.349 19.6848 170.172 20.8658 168.719 20.8658H151.723C150.27 20.8658 149.093 19.6848 149.093 18.2277ZM202.099 9.55384C202.099 11.011 200.922 12.192 199.469 12.192H178.458C177.005 12.192 175.828 11.011 175.828 9.55384C175.828 8.09669 177.005 6.91568 178.458 6.91568H199.469C200.922 6.91568 202.099 8.09669 202.099 9.55384ZM202.099 26.9034C202.099 28.3605 200.922 29.5415 199.469 29.5415H178.458C177.005 29.5415 175.828 28.3605 175.828 26.9034C175.828 25.4462 177.005 24.2652 178.458 24.2652H199.469C200.922 24.2652 202.099 25.4462 202.099 26.9034ZM177.837 18.2295C177.837 16.7724 179.015 15.5914 180.468 15.5914H197.463C198.916 15.5914 200.094 16.7724 200.094 18.2295C200.094 19.6867 198.916 20.8677 197.463 20.8677H180.468C179.015 20.8677 177.837 19.6867 177.837 18.2295ZM226.438 22.7745L230.386 29.5434H224.256L220.771 23.5712H210.285V29.5434H204.978V18.3769H222.713C223.543 18.3769 224.297 18.043 224.842 17.5038C225.387 16.9646 225.724 16.2201 225.724 15.3973C225.724 13.7518 224.377 12.4196 222.715 12.4196H204.979V7.2142H222.883C227.446 7.2142 231.145 10.8748 231.145 15.3899C231.145 17.6474 230.22 19.6923 228.725 21.1718C228.064 21.8248 227.292 22.3696 226.438 22.7708V22.7745ZM146.644 33.0603V55.3858H141.615V46.7455H125.63V55.3858H120.601V33.0603H125.63V41.7006H141.615V33.0603H146.644ZM178.029 55.3858H171.95L163.349 40.4487C163.141 40.0867 162.618 40.0867 162.41 40.4487L153.809 55.3858H147.731L159.349 35.2041C160.918 32.4782 164.84 32.4782 166.41 35.2041L178.029 55.3858ZM197.746 41.9319V38.7863H182.589V50.1393H197.746V46.8948H203.908V46.9937C203.908 51.839 199.991 55.7664 195.16 55.7664H184.652C180.384 55.7664 176.925 52.298 176.925 48.018V40.9076C176.925 36.6276 180.384 33.1592 184.652 33.1592H195.16C199.991 33.1592 203.908 37.0866 203.908 41.9319H197.746ZM232.751 55.2514L232.593 55.3858H225.763L216.14 43.8853L210.645 48.5087V55.3839H205.206V33.0585H210.645V41.3871L212.643 39.7061L216.81 36.1985L220.542 33.0585H229.004L220.304 40.3778L232.749 55.2496L232.751 55.2514Z" fill="url(#paint5_linear_1061_1815)"/>
</g>
<defs>
<linearGradient id="paint0_linear_1061_1815" x1="0" y1="51.6376" x2="103.275" y2="51.6376" gradientUnits="userSpaceOnUse">
<stop stop-color="#8247FF"/>
<stop offset="1" stop-color="#F5C144"/>
</linearGradient>
<linearGradient id="paint1_linear_1061_1815" x1="252.127" y1="48.003" x2="111.752" y2="85.2698" gradientUnits="userSpaceOnUse">
<stop stop-color="#8247FF"/>
<stop offset="1" stop-color="#F5C144"/>
</linearGradient>
<linearGradient id="paint2_linear_1061_1815" x1="253.847" y1="54.4773" x2="113.472" y2="91.7459" gradientUnits="userSpaceOnUse">
<stop stop-color="#8247FF"/>
<stop offset="1" stop-color="#F5C144"/>
</linearGradient>
<linearGradient id="paint3_linear_1061_1815" x1="256.053" y1="62.7893" x2="115.678" y2="100.056" gradientUnits="userSpaceOnUse">
<stop stop-color="#8247FF"/>
<stop offset="1" stop-color="#F5C144"/>
</linearGradient>
<linearGradient id="paint4_linear_1061_1815" x1="258.012" y1="70.1644" x2="117.635" y2="107.433" gradientUnits="userSpaceOnUse">
<stop stop-color="#8247FF"/>
<stop offset="1" stop-color="#F5C144"/>
</linearGradient>
<linearGradient id="paint5_linear_1061_1815" x1="232.847" y1="6.83137" x2="93.6523" y2="71.3656" gradientUnits="userSpaceOnUse">
<stop stop-color="#8247FF"/>
<stop offset="1" stop-color="#F5C144"/>
</linearGradient>
<clipPath id="clip0_1061_1815">
<rect width="113.418" height="89.4436" fill="white" transform="translate(119.582 6.91585)"/>
</clipPath>
</defs>
</svg>
