<svg width="1125" height="2436" viewBox="0 0 1125 2436" fill="none" xmlns="http://www.w3.org/2000/svg">
<g clip-path="url(#clip0_1950_925)">
<rect width="1125" height="2436" fill="#110C24"/>
<g clip-path="url(#clip1_1950_925)">
<rect width="1370.25" height="2436" transform="translate(-123)" fill="#110C24"/>
<g opacity="0.3">
<path d="M155.204 272.165C155.639 270.106 157.661 268.789 159.72 269.225C161.779 269.66 163.095 271.683 162.661 273.742C162.226 275.801 160.203 277.118 158.145 276.682C156.086 276.247 154.77 274.225 155.204 272.165Z" fill="#FBF7FF"/>
<path d="M305.193 219.382C305.627 217.323 307.649 216.007 309.708 216.442C311.766 216.877 313.084 218.899 312.648 220.958C312.213 223.019 310.191 224.335 308.132 223.899C306.073 223.464 304.757 221.442 305.193 219.382Z" fill="#FBF7FF"/>
<path d="M241.601 458.623C242.036 456.564 244.058 455.248 246.117 455.683C248.176 456.119 249.492 458.14 249.056 460.199C248.622 462.258 246.6 463.576 244.541 463.141C242.483 462.705 241.165 460.683 241.601 458.623Z" fill="#FBF7FF"/>
<path d="M506.48 346.419C506.915 344.359 508.936 343.042 510.995 343.478C513.053 343.913 514.371 345.936 513.935 347.995C513.5 350.054 511.478 351.37 509.419 350.935C507.36 350.5 506.044 348.478 506.48 346.419Z" fill="#FBF7FF"/>
<path d="M474.61 515.669C475.046 513.61 477.068 512.293 479.127 512.729C481.186 513.163 482.502 515.185 482.066 517.245C481.631 519.304 479.61 520.621 477.551 520.186C475.493 519.751 474.175 517.728 474.61 515.669Z" fill="#FBF7FF"/>
<path d="M695.632 423.659C696.067 421.6 698.089 420.284 700.148 420.719C702.207 421.154 703.523 423.176 703.088 425.235C702.652 427.294 700.632 428.612 698.573 428.176C696.514 427.741 695.197 425.718 695.632 423.659Z" fill="#FBF7FF"/>
<path d="M631.624 201.089C631.812 200.201 632.684 199.633 633.572 199.82C634.461 200.008 635.028 200.881 634.84 201.769C634.653 202.658 633.78 203.225 632.893 203.037C632.004 202.85 631.436 201.977 631.624 201.089Z" fill="#FBF7FF"/>
<path d="M597.2 367.124C597.388 366.236 598.26 365.668 599.148 365.856C600.037 366.044 600.604 366.916 600.416 367.805C600.229 368.692 599.356 369.26 598.469 369.073C597.581 368.884 597.012 368.012 597.2 367.124Z" fill="#FBF7FF"/>
<path d="M508.231 209.65C508.419 208.762 509.291 208.195 510.179 208.382C511.067 208.569 511.634 209.443 511.447 210.33C511.26 211.218 510.388 211.787 509.499 211.599C508.611 211.411 508.043 210.539 508.231 209.65Z" fill="#FBF7FF"/>
<path d="M805.079 179.876C805.269 178.988 806.142 178.419 807.028 178.608C807.914 178.795 808.483 179.667 808.294 180.556C808.104 181.444 807.231 182.011 806.345 181.824C805.459 181.637 804.89 180.765 805.079 179.876Z" fill="#FBF7FF"/>
<path d="M499.348 355.301C499.537 354.414 500.409 353.845 501.297 354.033C502.185 354.221 502.752 355.093 502.565 355.982C502.378 356.869 501.504 357.437 500.617 357.25C499.729 357.062 499.161 356.189 499.348 355.301Z" fill="#FBF7FF"/>
<path d="M438.581 484.889C438.769 484 439.641 483.433 440.529 483.621C441.416 483.808 441.985 484.681 441.797 485.569C441.61 486.457 440.737 487.025 439.85 486.838C438.961 486.649 438.393 485.777 438.581 484.889Z" fill="#FBF7FF"/>
<path d="M596.895 501.313C597.082 500.424 597.956 499.856 598.843 500.044C599.731 500.232 600.299 501.104 600.112 501.992C599.923 502.881 599.051 503.448 598.163 503.26C597.275 503.073 596.708 502.201 596.895 501.313Z" fill="#FBF7FF"/>
<path d="M390.51 294.494C390.698 293.605 391.571 293.038 392.458 293.226C393.346 293.413 393.914 294.285 393.727 295.174C393.539 296.062 392.667 296.63 391.778 296.442C390.89 296.254 390.323 295.382 390.51 294.494Z" fill="#FBF7FF"/>
<path d="M329.011 509.25C329.198 508.361 330.07 507.793 330.958 507.98C331.847 508.169 332.415 509.041 332.226 509.929C332.039 510.818 331.167 511.385 330.279 511.197C329.39 511.01 328.822 510.137 329.011 509.25Z" fill="#FBF7FF"/>
<path d="M398.157 364.745C398.345 363.858 399.216 363.289 400.105 363.477C400.993 363.664 401.56 364.537 401.373 365.426C401.185 366.313 400.313 366.881 399.425 366.694C398.537 366.505 397.969 365.633 398.157 364.745Z" fill="#FBF7FF"/>
<path d="M298.624 333.89C298.811 333.001 299.683 332.434 300.571 332.622C301.46 332.809 302.027 333.682 301.839 334.57C301.652 335.458 300.78 336.026 299.892 335.839C299.004 335.65 298.435 334.778 298.624 333.89Z" fill="#FBF7FF"/>
<path d="M315.932 423.084C316.121 422.196 316.993 421.627 317.881 421.816C318.769 422.003 319.336 422.875 319.149 423.764C318.962 424.652 318.088 425.221 317.201 425.032C316.313 424.845 315.745 423.973 315.932 423.084Z" fill="#FBF7FF"/>
<path d="M312.282 439.468C312.47 438.58 313.342 438.012 314.23 438.2C315.118 438.388 315.686 439.26 315.498 440.148C315.311 441.037 314.438 441.604 313.551 441.416C312.663 441.229 312.095 440.357 312.282 439.468Z" fill="#FBF7FF"/>
<path d="M300.059 424.01C300.248 423.123 301.12 422.554 302.008 422.742C302.895 422.93 303.463 423.802 303.276 424.691C303.087 425.578 302.215 426.146 301.327 425.959C300.44 425.771 299.872 424.898 300.059 424.01Z" fill="#FBF7FF"/>
<path d="M197.825 175.864C198.012 174.975 198.884 174.408 199.772 174.595C200.661 174.783 201.229 175.656 201.04 176.543C200.853 177.432 199.981 178 199.093 177.813C198.204 177.624 197.638 176.752 197.825 175.864Z" fill="#FBF7FF"/>
<path d="M198.926 194.479C199.115 193.591 199.987 193.022 200.875 193.211C201.763 193.398 202.33 194.27 202.143 195.159C201.956 196.047 201.083 196.616 200.196 196.427C199.307 196.24 198.739 195.368 198.926 194.479Z" fill="#FBF7FF"/>
<path d="M199.864 212.918C200.051 212.031 200.923 211.463 201.811 211.65C202.7 211.839 203.268 212.711 203.079 213.599C202.892 214.486 202.02 215.055 201.132 214.867C200.244 214.679 199.677 213.807 199.864 212.918Z" fill="#FBF7FF"/>
<path d="M23.9419 100.039C24.1305 99.1507 25.0023 98.5824 25.8906 98.771C26.7777 98.9583 27.3459 99.8304 27.1586 100.719C26.9713 101.607 26.0982 102.174 25.2111 101.987C24.3228 101.8 23.7547 100.928 23.9419 100.039Z" fill="#FBF7FF"/>
<path d="M9.85644 305.36C10.0437 304.472 10.9156 303.905 11.8039 304.092C12.6922 304.279 13.2591 305.153 13.0719 306.04C12.8846 306.928 12.0127 307.497 11.1244 307.309C10.2361 307.121 9.66789 306.249 9.85644 305.36Z" fill="#FBF7FF"/>
<path d="M79.5478 390.271C79.7351 389.383 80.607 388.816 81.4953 389.003C82.3836 389.19 82.9518 390.062 82.7632 390.951C82.5759 391.839 81.7041 392.408 80.8158 392.219C79.9274 392.032 79.3593 391.16 79.5478 390.271Z" fill="#FBF7FF"/>
<path d="M359.409 116.691C359.597 115.802 360.469 115.234 361.357 115.421C362.246 115.61 362.813 116.482 362.625 117.371C362.438 118.259 361.565 118.826 360.678 118.639C359.79 118.451 359.221 117.578 359.409 116.691Z" fill="#FBF7FF"/>
<path d="M223.852 88.0344C224.041 87.1459 224.912 86.5789 225.801 86.7662C226.689 86.9536 227.256 87.8256 227.069 88.7141C226.881 89.6026 226.008 90.1709 225.121 89.9823C224.233 89.795 223.665 88.9229 223.852 88.0344Z" fill="#FBF7FF"/>
<path d="M148.26 158.63C148.448 157.742 149.32 157.173 150.208 157.362C151.096 157.549 151.664 158.421 151.476 159.31C151.288 160.198 150.417 160.766 149.528 160.578C148.64 160.391 148.073 159.519 148.26 158.63Z" fill="#FBF7FF"/>
<path d="M89.5846 180.853C89.7719 179.964 90.645 179.397 91.532 179.585C92.4204 179.772 92.9885 180.645 92.8012 181.532C92.6127 182.421 91.7408 182.989 90.8525 182.802C89.9642 182.613 89.3973 181.741 89.5846 180.853Z" fill="#FBF7FF"/>
<path d="M123.856 61.7247C124.043 60.8365 124.915 60.2686 125.804 60.4563C126.692 60.644 127.26 61.5163 127.071 62.4045C126.884 63.2928 126.012 63.8607 125.124 63.673C124.236 63.4853 123.669 62.613 123.856 61.7247Z" fill="#FBF7FF"/>
<path d="M849.37 348.144C849.56 347.256 850.433 346.687 851.319 346.876C852.205 347.063 852.774 347.935 852.585 348.824C852.395 349.712 851.534 350.281 850.636 350.092C849.75 349.905 849.181 349.033 849.37 348.144Z" fill="#FBF7FF"/>
<path d="M837.693 403.453C837.87 402.565 838.743 401.996 839.642 402.184C840.527 402.372 841.097 403.244 840.907 404.133C840.717 405.02 839.844 405.588 838.958 405.401C838.072 405.214 837.503 404.34 837.693 403.453Z" fill="#FBF7FF"/>
<path d="M922.257 444.85C922.447 443.961 923.32 443.393 924.206 443.58C925.104 443.769 925.661 444.641 925.484 445.529C925.294 446.418 924.421 446.985 923.535 446.797C922.649 446.61 922.08 445.737 922.257 444.85Z" fill="#FBF7FF"/>
<path d="M718.12 484.279C718.307 483.392 719.179 482.823 720.068 483.011C720.956 483.198 721.523 484.071 721.335 484.959C721.148 485.847 720.276 486.415 719.388 486.228C718.5 486.04 717.932 485.167 718.12 484.279Z" fill="#FBF7FF"/>
<path d="M572.069 452.833C572.257 451.945 573.129 451.376 574.018 451.565C574.905 451.752 575.473 452.624 575.286 453.513C575.097 454.401 574.225 454.968 573.337 454.781C572.45 454.594 571.882 453.722 572.069 452.833Z" fill="#FBF7FF"/>
<path d="M656.585 321.031C656.773 320.143 657.645 319.575 658.533 319.763C659.42 319.951 659.988 320.823 659.801 321.711C659.613 322.6 658.741 323.168 657.852 322.979C656.965 322.792 656.397 321.92 656.585 321.031Z" fill="#FBF7FF"/>
<path d="M570.042 302.738C570.229 301.85 571.101 301.283 571.989 301.47C572.878 301.657 573.446 302.529 573.257 303.418C573.07 304.306 572.198 304.874 571.31 304.686C570.422 304.499 569.853 303.627 570.042 302.738Z" fill="#FBF7FF"/>
<path d="M519.967 292.155C520.156 291.266 521.028 290.698 521.916 290.887C522.804 291.074 523.371 291.946 523.184 292.835C522.997 293.723 522.124 294.29 521.237 294.103C520.348 293.915 519.78 293.043 519.967 292.155Z" fill="#FBF7FF"/>
<path d="M431.702 212.713C431.889 211.824 432.761 211.256 433.649 211.443C434.538 211.632 435.106 212.504 434.917 213.393C434.73 214.281 433.858 214.848 432.97 214.661C432.081 214.473 431.514 213.6 431.702 212.713Z" fill="#FBF7FF"/>
<path d="M196.085 371.263C196.272 370.375 197.144 369.808 198.032 369.995C198.92 370.183 199.489 371.056 199.3 371.943C199.113 372.832 198.241 373.4 197.353 373.213C196.464 373.024 195.897 372.152 196.085 371.263Z" fill="#FBF7FF"/>
<path d="M774.405 340.953C774.592 340.065 775.465 339.496 776.352 339.685C777.241 339.872 777.809 340.744 777.621 341.633C777.433 342.521 776.561 343.09 775.673 342.901C774.786 342.714 774.218 341.842 774.405 340.953Z" fill="#FBF7FF"/>
<path d="M469.853 156.378C470.04 155.489 470.912 154.921 471.8 155.108C472.688 155.297 473.255 156.169 473.068 157.058C472.881 157.946 472.009 158.513 471.12 158.326C470.232 158.138 469.664 157.265 469.853 156.378Z" fill="#FBF7FF"/>
<path d="M67.9367 644.414C68.3707 642.355 70.3929 641.038 72.4517 641.474C74.5105 641.909 75.8277 643.931 75.3924 645.99C74.9571 648.05 72.9351 649.367 70.8762 648.931C68.8174 648.496 67.5014 646.473 67.9367 644.414Z" fill="#FBF7FF"/>
<path d="M4.34486 883.655C4.78016 881.596 6.80223 880.28 8.86105 880.715C10.9199 881.15 12.2359 883.172 11.8006 885.231C11.3665 887.29 9.34444 888.608 7.28562 888.172C5.22681 887.737 3.90956 885.714 4.34486 883.655Z" fill="#FBF7FF"/>
<path d="M269.224 771.451C269.659 769.39 271.68 768.074 273.739 768.509C275.798 768.945 277.115 770.967 276.68 773.027C276.244 775.086 274.222 776.402 272.163 775.967C270.105 775.531 268.789 773.51 269.224 771.451Z" fill="#FBF7FF"/>
<path d="M237.353 940.701C237.788 938.642 239.81 937.326 241.869 937.761C243.928 938.195 245.244 940.218 244.808 942.277C244.373 944.336 242.352 945.654 240.294 945.218C238.235 944.783 236.917 942.76 237.353 940.701Z" fill="#FBF7FF"/>
<path d="M458.376 848.691C458.811 846.632 460.834 845.315 462.892 845.751C464.951 846.186 466.267 848.207 465.832 850.267C465.397 852.326 463.376 853.643 461.317 853.208C459.258 852.773 457.941 850.75 458.376 848.691Z" fill="#FBF7FF"/>
<path d="M394.368 626.121C394.556 625.233 395.428 624.664 396.316 624.852C397.205 625.04 397.772 625.912 397.584 626.801C397.397 627.689 396.524 628.256 395.637 628.069C394.749 627.882 394.18 627.008 394.368 626.121Z" fill="#FBF7FF"/>
<path d="M359.944 792.155C360.132 791.268 361.004 790.7 361.893 790.887C362.781 791.076 363.348 791.948 363.161 792.836C362.973 793.724 362.1 794.292 361.213 794.105C360.325 793.916 359.757 793.044 359.944 792.155Z" fill="#FBF7FF"/>
<path d="M270.976 634.682C271.163 633.794 272.035 633.227 272.923 633.414C273.811 633.602 274.378 634.475 274.191 635.362C274.004 636.251 273.132 636.819 272.244 636.632C271.355 636.443 270.787 635.571 270.976 634.682Z" fill="#FBF7FF"/>
<path d="M567.824 604.908C568.013 604.019 568.887 603.451 569.772 603.64C570.658 603.827 571.228 604.699 571.038 605.588C570.848 606.476 569.975 607.043 569.089 606.856C568.203 606.668 567.634 605.796 567.824 604.908Z" fill="#FBF7FF"/>
<path d="M972.425 698.651C972.615 697.762 973.488 697.194 974.374 697.382C975.26 697.57 975.829 698.442 975.639 699.33C975.462 700.219 974.589 700.786 973.703 700.598C972.805 700.411 972.235 699.539 972.425 698.651Z" fill="#FBF7FF"/>
<path d="M262.092 780.333C262.281 779.445 263.153 778.877 264.041 779.065C264.929 779.253 265.496 780.125 265.309 781.014C265.122 781.901 264.249 782.469 263.362 782.282C262.473 782.093 261.905 781.221 262.092 780.333Z" fill="#FBF7FF"/>
<path d="M201.325 909.92C201.513 909.032 202.385 908.465 203.273 908.652C204.161 908.839 204.729 909.713 204.541 910.6C204.354 911.488 203.481 912.057 202.594 911.869C201.706 911.681 201.137 910.809 201.325 909.92Z" fill="#FBF7FF"/>
<path d="M359.639 926.344C359.827 925.456 360.7 924.888 361.587 925.076C362.475 925.263 363.043 926.136 362.856 927.024C362.667 927.913 361.796 928.48 360.907 928.292C360.019 928.105 359.452 927.233 359.639 926.344Z" fill="#FBF7FF"/>
<path d="M153.255 719.526C153.442 718.637 154.315 718.07 155.202 718.257C156.09 718.445 156.659 719.317 156.471 720.205C156.283 721.094 155.411 721.662 154.522 721.474C153.634 721.286 153.067 720.414 153.255 719.526Z" fill="#FBF7FF"/>
<path d="M91.7549 934.282C91.9422 933.393 92.814 932.825 93.7023 933.012C94.5906 933.201 95.1588 934.073 94.9703 934.961C94.783 935.85 93.9111 936.417 93.0228 936.23C92.1345 936.042 91.5663 935.169 91.7549 934.282Z" fill="#FBF7FF"/>
<path d="M160.901 789.777C161.089 788.889 161.96 788.321 162.849 788.508C163.737 788.696 164.304 789.569 164.117 790.457C163.929 791.345 163.058 791.913 162.169 791.726C161.281 791.537 160.713 790.665 160.901 789.777Z" fill="#FBF7FF"/>
<path d="M61.3682 758.921C61.5554 758.033 62.4273 757.466 63.3156 757.653C64.2039 757.84 64.7708 758.714 64.5836 759.601C64.3963 760.489 63.5244 761.058 62.6361 760.87C61.7478 760.682 61.1796 759.81 61.3682 758.921Z" fill="#FBF7FF"/>
<path d="M78.6763 848.114C78.8649 847.226 79.7367 846.658 80.625 846.846C81.5133 847.034 82.0803 847.906 81.893 848.794C81.7057 849.683 80.8326 850.251 79.9455 850.062C79.0572 849.875 78.489 849.003 78.6763 848.114Z" fill="#FBF7FF"/>
<path d="M75.0318 864.5C75.2203 863.612 76.0922 863.043 76.9805 863.232C77.8675 863.419 78.4357 864.291 78.2484 865.18C78.0612 866.068 77.188 866.635 76.301 866.448C75.4127 866.261 74.8445 865.389 75.0318 864.5Z" fill="#FBF7FF"/>
<path d="M62.8033 849.041C62.9918 848.154 63.8637 847.586 64.752 847.773C65.6391 847.962 66.2072 848.834 66.0199 849.722C65.8314 850.609 64.9595 851.178 64.0712 850.99C63.1842 850.802 62.616 849.93 62.8033 849.041Z" fill="#FBF7FF"/>
<path d="M122.153 541.721C122.341 540.833 123.213 540.264 124.102 540.452C124.99 540.64 125.557 541.512 125.37 542.401C125.182 543.289 124.309 543.856 123.422 543.669C122.534 543.482 121.966 542.608 122.153 541.721Z" fill="#FBF7FF"/>
<path d="M612.115 773.176C612.304 772.288 613.178 771.72 614.063 771.908C614.949 772.096 615.519 772.968 615.329 773.856C615.139 774.745 614.278 775.313 613.38 775.124C612.494 774.937 611.925 774.065 612.115 773.176Z" fill="#FBF7FF"/>
<path d="M600.437 828.485C600.614 827.596 601.487 827.028 602.386 827.215C603.271 827.404 603.841 828.276 603.651 829.165C603.461 830.052 602.588 830.62 601.702 830.433C600.817 830.245 600.247 829.372 600.437 828.485Z" fill="#FBF7FF"/>
<path d="M685.001 869.881C685.191 868.993 686.064 868.425 686.95 868.612C687.848 868.8 688.405 869.672 688.228 870.561C688.038 871.449 687.165 872.017 686.279 871.829C685.393 871.642 684.824 870.769 685.001 869.881Z" fill="#FBF7FF"/>
<path d="M480.864 909.311C481.052 908.423 481.923 907.855 482.812 908.043C483.7 908.23 484.267 909.103 484.08 909.99C483.892 910.879 483.02 911.447 482.132 911.26C481.244 911.071 480.676 910.199 480.864 909.311Z" fill="#FBF7FF"/>
<path d="M334.813 877.865C335.002 876.977 335.873 876.409 336.762 876.597C337.649 876.784 338.217 877.657 338.03 878.545C337.841 879.434 336.969 880.001 336.081 879.813C335.194 879.626 334.626 878.754 334.813 877.865Z" fill="#FBF7FF"/>
<path d="M419.329 746.063C419.517 745.175 420.389 744.606 421.277 744.795C422.164 744.982 422.733 745.854 422.545 746.743C422.357 747.631 421.485 748.2 420.597 748.011C419.71 747.824 419.141 746.952 419.329 746.063Z" fill="#FBF7FF"/>
<path d="M332.786 727.77C332.973 726.881 333.845 726.314 334.734 726.502C335.622 726.689 336.19 727.561 336.001 728.449C335.814 729.338 334.942 729.906 334.054 729.718C333.166 729.53 332.598 728.658 332.786 727.77Z" fill="#FBF7FF"/>
<path d="M282.711 717.187C282.9 716.298 283.772 715.73 284.66 715.918C285.548 716.106 286.115 716.978 285.928 717.866C285.741 718.755 284.868 719.322 283.981 719.135C283.092 718.947 282.524 718.075 282.711 717.187Z" fill="#FBF7FF"/>
<path d="M194.446 637.745C194.633 636.857 195.505 636.288 196.393 636.476C197.282 636.664 197.85 637.536 197.661 638.425C197.474 639.313 196.602 639.88 195.714 639.693C194.825 639.506 194.259 638.632 194.446 637.745Z" fill="#FBF7FF"/>
<path d="M537.149 765.985C537.336 765.096 538.209 764.528 539.096 764.717C539.985 764.904 540.553 765.776 540.366 766.665C540.177 767.553 539.305 768.121 538.417 767.933C537.53 767.746 536.962 766.873 537.149 765.985Z" fill="#FBF7FF"/>
<path d="M232.597 581.41C232.784 580.521 233.656 579.953 234.544 580.14C235.432 580.329 235.999 581.201 235.812 582.089C235.625 582.978 234.753 583.545 233.865 583.358C232.976 583.17 232.408 582.297 232.597 581.41Z" fill="#FBF7FF"/>
<path d="M677.927 131.335C678.362 129.276 680.384 127.959 682.443 128.395C684.502 128.83 685.818 130.853 685.384 132.912C684.948 134.971 682.926 136.287 680.867 135.852C678.809 135.417 677.492 133.395 677.927 131.335Z" fill="#FBF7FF"/>
<path d="M827.915 78.5522C828.349 76.4929 830.371 75.1766 832.43 75.612C834.489 76.0474 835.806 78.0687 835.371 80.1279C834.936 82.1885 832.914 83.5048 830.855 83.0694C828.796 82.634 827.48 80.6114 827.915 78.5522Z" fill="#FBF7FF"/>
<path d="M764.323 317.793C764.759 315.734 766.781 314.418 768.84 314.853C770.898 315.289 772.214 317.31 771.779 319.369C771.345 321.428 769.323 322.746 767.264 322.311C765.205 321.875 763.888 319.853 764.323 317.793Z" fill="#FBF7FF"/>
<path d="M1029.2 205.589C1029.64 203.529 1031.66 202.212 1033.72 202.648C1035.78 203.083 1037.09 205.106 1036.66 207.165C1036.22 209.224 1034.2 210.54 1032.14 210.105C1030.08 209.67 1028.77 207.648 1029.2 205.589Z" fill="#FBF7FF"/>
<path d="M997.333 374.839C997.768 372.78 999.791 371.463 1001.85 371.899C1003.91 372.333 1005.22 374.355 1004.79 376.415C1004.35 378.474 1002.33 379.791 1000.27 379.356C998.215 378.921 996.898 376.898 997.333 374.839Z" fill="#FBF7FF"/>
<path d="M1119.92 226.294C1120.11 225.406 1120.98 224.838 1121.87 225.025C1122.76 225.214 1123.33 226.086 1123.14 226.975C1122.95 227.862 1122.08 228.43 1121.19 228.243C1120.3 228.054 1119.74 227.182 1119.92 226.294Z" fill="#FBF7FF"/>
<path d="M1030.95 68.8201C1031.14 67.9316 1032.01 67.3646 1032.9 67.5519C1033.79 67.7392 1034.36 68.6125 1034.17 69.4997C1033.98 70.3882 1033.11 70.9565 1032.22 70.7692C1031.33 70.5806 1030.77 69.7086 1030.95 68.8201Z" fill="#FBF7FF"/>
<path d="M1022.07 214.471C1022.26 213.584 1023.13 213.015 1024.02 213.203C1024.91 213.391 1025.47 214.263 1025.29 215.152C1025.1 216.039 1024.23 216.607 1023.34 216.42C1022.45 216.231 1021.88 215.359 1022.07 214.471Z" fill="#FBF7FF"/>
<path d="M961.303 344.059C961.492 343.17 962.364 342.603 963.252 342.791C964.139 342.978 964.707 343.851 964.52 344.739C964.333 345.627 963.46 346.195 962.572 346.008C961.684 345.819 961.116 344.947 961.303 344.059Z" fill="#FBF7FF"/>
<path d="M1119.62 360.483C1119.81 359.594 1120.68 359.026 1121.57 359.214C1122.45 359.402 1123.02 360.274 1122.83 361.162C1122.65 362.051 1121.77 362.618 1120.89 362.43C1120 362.243 1119.43 361.371 1119.62 360.483Z" fill="#FBF7FF"/>
<path d="M913.233 153.665C913.42 152.777 914.293 152.21 915.18 152.397C916.069 152.584 916.637 153.456 916.45 154.345C916.261 155.233 915.389 155.802 914.501 155.613C913.613 155.426 913.046 154.554 913.233 153.665Z" fill="#FBF7FF"/>
<path d="M851.733 368.419C851.921 367.531 852.793 366.963 853.681 367.15C854.569 367.339 855.137 368.211 854.949 369.099C854.762 369.988 853.89 370.555 853.001 370.367C852.113 370.18 851.545 369.307 851.733 368.419Z" fill="#FBF7FF"/>
<path d="M920.88 223.915C921.067 223.027 921.939 222.459 922.827 222.647C923.716 222.834 924.282 223.707 924.095 224.596C923.908 225.483 923.036 226.051 922.148 225.864C921.259 225.675 920.691 224.803 920.88 223.915Z" fill="#FBF7FF"/>
<path d="M821.347 193.06C821.534 192.171 822.406 191.604 823.294 191.792C824.182 191.979 824.749 192.852 824.562 193.739C824.375 194.628 823.503 195.196 822.615 195.009C821.726 194.82 821.158 193.948 821.347 193.06Z" fill="#FBF7FF"/>
<path d="M838.655 282.254C838.843 281.366 839.715 280.797 840.604 280.986C841.492 281.173 842.059 282.045 841.871 282.934C841.684 283.822 840.811 284.391 839.924 284.202C839.036 284.015 838.468 283.143 838.655 282.254Z" fill="#FBF7FF"/>
<path d="M835.004 298.638C835.193 297.75 836.065 297.182 836.953 297.37C837.84 297.557 838.408 298.429 838.221 299.318C838.034 300.207 837.161 300.774 836.274 300.586C835.385 300.399 834.817 299.527 835.004 298.638Z" fill="#FBF7FF"/>
<path d="M822.782 283.18C822.97 282.293 823.842 281.724 824.731 281.912C825.618 282.1 826.186 282.972 825.998 283.861C825.81 284.748 824.938 285.316 824.05 285.129C823.163 284.94 822.595 284.068 822.782 283.18Z" fill="#FBF7FF"/>
<path d="M720.547 35.0335C720.735 34.145 721.607 33.5779 722.495 33.7653C723.383 33.9526 723.951 34.8259 723.763 35.7131C723.576 36.6016 722.704 37.1699 721.815 36.9826C720.927 36.794 720.36 35.922 720.547 35.0335Z" fill="#FBF7FF"/>
<path d="M721.649 53.6491C721.838 52.7606 722.709 52.1923 723.598 52.3809C724.486 52.5682 725.053 53.4402 724.866 54.3287C724.678 55.2172 723.805 55.7855 722.918 55.5969C722.03 55.4096 721.462 54.5376 721.649 53.6491Z" fill="#FBF7FF"/>
<path d="M722.587 72.0881C722.774 71.2009 723.646 70.6326 724.534 70.8199C725.422 71.0085 725.99 71.8805 725.802 72.769C725.615 73.6563 724.743 74.2246 723.854 74.0372C722.966 73.8487 722.399 72.9766 722.587 72.0881Z" fill="#FBF7FF"/>
<path d="M532.579 164.53C532.766 163.642 533.638 163.075 534.527 163.262C535.415 163.449 535.982 164.322 535.795 165.21C535.607 166.098 534.735 166.666 533.847 166.479C532.959 166.291 532.391 165.419 532.579 164.53Z" fill="#FBF7FF"/>
<path d="M602.271 249.441C602.458 248.553 603.33 247.986 604.218 248.173C605.106 248.36 605.674 249.232 605.486 250.121C605.299 251.009 604.427 251.578 603.538 251.389C602.65 251.202 602.082 250.33 602.271 249.441Z" fill="#FBF7FF"/>
<path d="M670.983 17.7999C671.17 16.9114 672.042 16.3432 672.93 16.5317C673.819 16.7191 674.387 17.5911 674.198 18.4796C674.011 19.3681 673.139 19.9364 672.251 19.7478C671.363 19.5605 670.796 18.6884 670.983 17.7999Z" fill="#FBF7FF"/>
<path d="M612.307 40.0227C612.495 39.1342 613.368 38.5672 614.255 38.7545C615.143 38.9418 615.711 39.8151 615.524 40.7024C615.335 41.5909 614.463 42.1592 613.575 41.9719C612.687 41.7833 612.12 40.9112 612.307 40.0227Z" fill="#FBF7FF"/>
<path d="M438.466 85.8079C438.653 84.9194 439.525 84.3523 440.413 84.5397C441.302 84.727 441.868 85.599 441.681 86.4875C441.494 87.376 440.622 87.9443 439.734 87.7558C438.845 87.5684 438.277 86.6964 438.466 85.8079Z" fill="#FBF7FF"/>
<path d="M512.833 83.4572C513.021 82.5687 513.893 82.0004 514.781 82.189C515.67 82.3763 516.237 83.2483 516.049 84.1368C515.862 85.0253 514.99 85.5936 514.102 85.405C513.213 85.2177 512.645 84.3457 512.833 83.4572Z" fill="#FBF7FF"/>
<path d="M1094.79 312.003C1094.98 311.115 1095.85 310.546 1096.74 310.735C1097.63 310.922 1098.2 311.794 1098.01 312.683C1097.82 313.571 1096.95 314.138 1096.06 313.951C1095.17 313.764 1094.6 312.892 1094.79 312.003Z" fill="#FBF7FF"/>
<path d="M1092.76 161.908C1092.95 161.019 1093.82 160.452 1094.71 160.64C1095.6 160.827 1096.17 161.699 1095.98 162.588C1095.79 163.476 1094.92 164.044 1094.03 163.856C1093.14 163.669 1092.58 162.796 1092.76 161.908Z" fill="#FBF7FF"/>
<path d="M1042.69 151.325C1042.88 150.436 1043.75 149.868 1044.64 150.057C1045.53 150.244 1046.09 151.116 1045.91 152.005C1045.72 152.893 1044.85 153.46 1043.96 153.273C1043.07 153.085 1042.5 152.213 1042.69 151.325Z" fill="#FBF7FF"/>
<path d="M954.424 71.8828C954.612 70.9943 955.484 70.426 956.372 70.6133C957.26 70.8019 957.828 71.674 957.64 72.5625C957.452 73.451 956.581 74.018 955.692 73.8307C954.804 73.6434 954.237 72.7701 954.424 71.8828Z" fill="#FBF7FF"/>
<path d="M718.807 230.433C718.995 229.545 719.866 228.978 720.755 229.165C721.643 229.352 722.211 230.226 722.023 231.113C721.835 232.002 720.964 232.57 720.075 232.382C719.187 232.194 718.62 231.322 718.807 230.433Z" fill="#FBF7FF"/>
<path d="M992.575 15.5478C992.762 14.6593 993.634 14.0911 994.523 14.2784C995.411 14.467 995.978 15.339 995.791 16.2275C995.603 17.116 994.731 17.683 993.843 17.4957C992.955 17.3084 992.387 16.4351 992.575 15.5478Z" fill="#FBF7FF"/>
</g>
<path opacity="0.0737945" d="M114.258 269.307C114.258 -232.586 521.035 -639.45 1022.82 -639.45C1524.61 -639.45 1931.39 -232.586 1931.39 269.307C1931.39 771.199 1524.61 1178.06 1022.82 1178.06C521.035 1178.06 114.258 771.199 114.258 269.307Z" fill="#FBF7FF"/>
<path opacity="0.0737945" d="M381.404 269.306C381.404 -85.0156 668.576 -372.249 1022.82 -372.249C1377.07 -372.249 1664.24 -85.0156 1664.24 269.306C1664.24 623.628 1377.07 910.862 1022.82 910.862C668.576 910.862 381.404 623.628 381.404 269.306Z" fill="#FBF7FF"/>
<path opacity="0.0737945" d="M635.033 239.091C635.033 24.8786 808.656 -148.775 1022.82 -148.775C1236.99 -148.775 1410.6 24.8786 1410.6 239.091C1410.6 453.304 1236.99 626.958 1022.82 626.958C808.656 626.958 635.033 453.304 635.033 239.091Z" fill="#FBF7FF"/>
<path opacity="0.780606" d="M839.777 245.067C839.777 165.479 904.278 100.96 983.851 100.96C1063.42 100.96 1127.92 165.479 1127.92 245.067C1127.92 324.655 1063.42 389.174 983.851 389.174C904.278 389.174 839.777 324.655 839.777 245.067Z" fill="url(#paint0_linear_1950_925)"/>
<path d="M276.891 330.131C277.043 329.409 277.752 328.947 278.474 329.099C279.196 329.252 279.657 329.961 279.505 330.684C279.353 331.406 278.644 331.867 277.922 331.715C277.199 331.563 276.737 330.852 276.891 330.131Z" fill="#FBF7FF"/>
<path d="M1610.43 446.664C1609.83 446.828 1609.2 447.294 1608.54 448.111C1569.43 496.372 1254.3 539.906 989.569 618.072C724.849 696.239 770.223 720.045 729.428 736.709C688.633 753.372 657.272 760.331 627.373 777.036C597.475 793.74 569.113 801.542 569.113 801.542L566.606 801.348C599.677 806.942 629.161 811.813 639.11 813.248C667.736 817.373 1132.89 906.28 1172.55 926.384C1212.21 946.487 1603.91 1028.46 1603.91 1028.46L1600.86 1301.01C1604.45 1220.41 1608.42 1127.69 1612.07 1028.2C1622.48 744.542 1629.28 441.558 1610.43 446.664ZM-426.229 729.248L-418.48 985.911L-415.361 730.051L-426.229 729.248ZM694.189 1538.95L-401.471 1548.41L-400.635 1575.55L694.189 1538.95Z" fill="url(#paint1_linear_1950_925)"/>
<path d="M-411.978 449.262C-411.978 449.262 -122.99 535.476 69.9948 648.993C262.98 762.51 383.338 761.119 408.826 770.56C434.313 780.002 610.477 809.106 639.1 813.232C667.724 817.358 1132.88 906.288 1172.54 926.391C1212.21 946.495 1603.92 1028.45 1603.92 1028.45L1598.29 1531.18L-425.279 1548.6L-411.978 449.262Z" fill="url(#paint2_linear_1950_925)"/>
<path d="M-873.204 1531.11C-873.204 1531.11 -223.856 1541.88 -169.27 1541.96C-90.2079 1542.07 125.944 1505.94 240.771 1524.83C355.598 1543.71 567.172 1525.67 616.906 1525.67C666.644 1525.67 818.475 1537.47 881.56 1537.47C944.645 1537.47 1018.84 1532.55 1088.45 1532.55C1158.06 1532.55 1395.46 1532.12 1442.03 1532.55C1488.61 1532.97 1998.72 1520.26 2048.49 1522.89C2098.27 1525.52 2264.79 1512.58 2264.79 1512.58L2247.44 2069.33L-1205.24 2051.3L-1172.88 1508.54L-873.204 1531.11Z" fill="url(#paint3_radial_1950_925)"/>
<path d="M664.562 -39.3647C664.562 -39.3647 700.86 70.3953 725.795 148.409C750.73 226.422 776.281 317.16 811.349 601.919C846.417 886.677 962.253 1385.73 984.242 1572.73L1174.87 1545.12C1174.87 1545.12 1072.36 1078.59 1061.78 973.219C1051.23 867.834 1147.39 828.551 1210.56 696.601C1273.72 564.651 1234.27 497.817 1204.42 471.526C1174.57 445.235 1162.64 600.298 1120.41 671.565C1078.15 742.845 992.287 861.552 992.572 759.928C992.855 658.303 991.07 628.063 973.244 510.396C955.417 392.728 941.832 392.138 912.213 216.975C882.569 41.8225 879.055 -126.659 879.055 -126.659L664.562 -39.3647Z" fill="url(#paint4_linear_1950_925)"/>
<path d="M1750.18 1181.53C1750.18 1181.53 1714.49 1167.31 1700.19 1201.93C1700.19 1201.93 1667.57 1194.68 1654.47 1236.9C1654.47 1236.9 1638.31 1217.47 1626.94 1224.13C1626.94 1224.13 1597.76 1255.72 1618.51 1285.54C1618.51 1285.54 1583.11 1278.47 1581.37 1320.59C1581.37 1320.59 1584.19 1279.51 1555.26 1276.91C1555.26 1276.91 1518.31 1301.85 1541.92 1345.07C1541.92 1345.07 1519.06 1306.16 1492.61 1320.35C1492.61 1320.35 1480.59 1359.41 1510.5 1375.69C1510.5 1375.69 1497.26 1374.04 1497.38 1394.76C1497.38 1394.76 1497.45 1355.5 1473.86 1357.9C1473.86 1357.9 1447.87 1392.11 1470.82 1419.01C1470.82 1419.01 1456.04 1418.22 1457.23 1433.58C1457.23 1433.58 1421.64 1412.54 1418.03 1454.53C1418.03 1454.53 1416.22 1458.23 1421.61 1471.16C1421.61 1471.16 1395.9 1452.57 1375.38 1484.12C1375.38 1484.12 1355.6 1471.23 1335.4 1490.87C1335.4 1490.87 1331.94 1469.84 1307.45 1487.49C1307.45 1487.49 1330.2 1477.75 1314.81 1447.29C1314.81 1447.29 1286.08 1448.8 1285.96 1485.29C1285.96 1485.29 1264.58 1455.99 1242.17 1467.37C1242.17 1467.37 1229.08 1498.27 1251.63 1504.68C1251.63 1504.68 1230.92 1489.94 1215.85 1512.45C1215.85 1512.45 1187.25 1500.97 1173.4 1523.95C1173.4 1523.95 1145.67 1519.44 1139.56 1526.13C1139.56 1526.13 1120.24 1543.13 1076.15 1522.41C1032.08 1501.69 1017.16 1534.62 983.239 1528.03C949.323 1521.45 943.813 1511.68 925.406 1517.28C907 1522.87 877.598 1515.24 864.055 1526.98C850.499 1538.71 826.711 1521.89 818.536 1524.71C810.348 1527.54 783.883 1528.39 779.317 1529.3C774.738 1530.22 758.168 1533.03 747.044 1532.28C735.92 1531.53 724.407 1530.3 724.407 1530.3C724.407 1530.3 741.572 1527.89 734.768 1511.83C734.768 1511.83 713.231 1508.21 703.737 1524.62L698.279 1531.2C698.279 1531.2 698.641 1503.62 676.987 1506.76C676.987 1506.76 666.212 1515.48 670.895 1531.33C670.895 1531.33 652.398 1524.83 640.678 1532.15C628.946 1539.46 597.19 1517.59 575.373 1525.39C553.558 1533.19 526.729 1518 507.527 1522.94C488.323 1527.88 496.318 1500.42 472.05 1506.55C472.05 1506.55 446.618 1499.19 436.1 1516.48C436.1 1516.48 409.147 1509.27 392.69 1519.97C392.69 1519.97 381.086 1513.23 368.694 1515.96C368.694 1515.96 363.212 1495.51 341.173 1511.38C341.173 1511.38 333.359 1480.32 307.886 1499.16C307.886 1499.16 299.764 1473.46 279.469 1478.29C279.469 1478.29 282.858 1447.07 243.417 1457.77C203.977 1468.46 181.472 1453.97 181.472 1453.97C181.472 1453.97 193.849 1448.79 186.927 1428.91C186.927 1428.91 162.591 1427.73 160.061 1450.05C160.061 1450.05 165.539 1405.54 150.557 1399.8C135.577 1394.07 123.123 1438.44 122.846 1445.05C122.846 1445.05 125.718 1421.1 105.441 1427.72C105.441 1427.72 100.299 1409.39 84.0824 1424.3C84.0824 1424.3 92.2367 1409.77 83.8004 1391.22C83.8004 1391.22 53.4778 1393.64 55.8152 1420.85C55.8152 1420.85 52.5555 1403.12 29.3836 1410.91C29.3836 1410.91 22.7 1384.12 -2.53125 1395.96C-2.53125 1395.96 -17.2359 1370.74 -33.115 1382.69C-33.115 1382.69 -27.1572 1360.37 -44.6597 1353.98C-62.1635 1347.58 -72.2852 1367.97 -72.2852 1367.97C-72.2852 1367.97 -94.3564 1341.1 -122.37 1372.98C-122.37 1372.98 -130.51 1330.13 -164.279 1348.46C-164.279 1348.46 -158.44 1308.74 -189.734 1310.67C-189.734 1310.67 -179.404 1284.22 -185.62 1274.41C-185.62 1274.41 -203.626 1263.27 -215.16 1280.88C-215.16 1280.88 -238.474 1258.5 -255.303 1269.82C-272.132 1281.13 -258.084 1268.17 -258.084 1268.17C-258.084 1268.17 -275.385 1242.32 -293.163 1255.83C-310.942 1269.33 -299.306 1214.29 -347.496 1240.83C-347.496 1240.83 -360.313 1209.05 -390.58 1228.53C-390.58 1228.53 -357.383 1220.63 -357.046 1186.83C-357.046 1186.83 -412.138 1178.86 -419.111 1213.96C-419.111 1213.96 -394.49 1170.96 -417.79 1150.93C-417.79 1150.93 -465.247 1162.55 -459.771 1198.55C-459.771 1198.55 -464.904 1164.58 -483.38 1164.58C-483.38 1164.58 -507.882 1186.88 -489.765 1204.73C-489.765 1204.73 -500.358 1181.04 -524.738 1190.96C-549.118 1200.88 -526.844 1192.49 -526.844 1192.49C-526.844 1192.49 -509.782 1160.65 -542.925 1162.76C-542.925 1162.76 -532.82 1143.96 -544.217 1132.29C-544.217 1132.29 -569.546 1135.09 -566.613 1156.86C-566.613 1156.86 -585.049 1142 -597.11 1164.23C-597.11 1164.23 -608.529 1151.35 -614.241 1164.56C-614.241 1164.56 -611.381 1128.08 -629.905 1124.11C-629.905 1124.11 -648.932 1144.72 -635.496 1168.57C-635.496 1168.57 -653.561 1148.06 -666.817 1155.72C-666.817 1155.72 -673.379 1180.2 -653.263 1181.19C-653.263 1181.19 -665.624 1178.15 -670.605 1190.74C-670.605 1190.74 -690.647 1178.14 -694.447 1190.14L-699.012 1563.63L1759.83 1575.79L1750.18 1181.53Z" fill="url(#paint5_linear_1950_925)"/>
<path d="M-773.24 1185.81C-773.24 1185.81 -738.042 1171.79 -723.958 1205.93C-723.958 1205.93 -691.785 1198.78 -678.863 1240.41C-678.863 1240.41 -662.933 1221.25 -651.725 1227.82C-651.725 1227.82 -622.954 1258.98 -643.418 1288.38C-643.418 1288.38 -608.51 1281.4 -606.801 1322.95C-606.801 1322.95 -609.581 1282.43 -581.041 1279.86C-581.041 1279.86 -544.62 1304.46 -567.893 1347.08C-567.893 1347.08 -545.361 1308.71 -519.274 1322.7C-519.274 1322.7 -507.428 1361.22 -536.917 1377.28C-536.917 1377.28 -523.856 1375.65 -523.985 1396.09C-523.985 1396.09 -524.041 1357.37 -500.782 1359.73C-500.782 1359.73 -475.162 1393.47 -497.78 1420C-497.78 1420 -483.217 1419.22 -484.391 1434.36C-484.391 1434.36 -449.297 1413.62 -445.733 1455.03C-445.733 1455.03 -443.958 1458.67 -449.275 1471.43C-449.275 1471.43 -423.913 1453.09 -403.682 1484.2C-403.682 1484.2 -384.191 1471.49 -364.271 1490.86C-364.271 1490.86 -360.864 1470.12 -336.7 1487.53C-336.7 1487.53 -359.137 1477.93 -343.962 1447.89C-343.962 1447.89 -315.628 1449.38 -315.518 1485.36C-315.518 1485.36 -294.441 1456.46 -272.342 1467.69C-272.342 1467.69 -259.444 1498.16 -281.668 1504.48C-281.668 1504.48 -261.252 1489.95 -246.398 1512.14C-246.398 1512.14 -218.198 1500.82 -204.538 1523.48C-204.538 1523.48 -177.184 1519.04 -171.17 1525.64C-171.17 1525.64 -152.111 1542.4 -108.651 1521.97C-65.1907 1501.53 -50.4736 1534.01 -17.0331 1527.51C16.4085 1521.01 21.841 1511.38 39.9873 1516.9C58.1336 1522.42 87.1232 1514.89 100.485 1526.47C113.848 1538.04 137.303 1521.45 145.367 1524.24C153.431 1527.02 179.527 1527.86 184.035 1528.76C188.543 1529.66 204.881 1532.44 215.852 1531.7C226.822 1530.96 238.172 1529.74 238.172 1529.74C238.172 1529.74 221.25 1527.37 227.952 1511.54C227.952 1511.54 249.193 1507.96 258.554 1524.14L263.939 1530.63C263.939 1530.63 263.582 1503.43 284.928 1506.53C284.928 1506.53 295.548 1515.13 290.932 1530.76C290.932 1530.76 309.172 1524.35 320.735 1531.57C332.296 1538.78 363.609 1517.22 385.119 1524.91C406.629 1532.6 433.082 1517.62 452.017 1522.49C470.951 1527.36 463.068 1500.27 486.996 1506.33C486.996 1506.33 512.072 1499.07 522.443 1516.12C522.443 1516.12 549.018 1509.01 565.244 1519.56C565.244 1519.56 576.687 1512.91 588.905 1515.61C588.905 1515.61 594.31 1495.44 616.04 1511.09C616.04 1511.09 623.744 1480.46 648.862 1499.04C648.862 1499.04 656.87 1473.69 676.881 1478.46C676.881 1478.46 673.54 1447.67 712.431 1458.22C751.313 1468.76 773.506 1454.48 773.506 1454.48C773.506 1454.48 761.303 1449.37 768.125 1429.76C768.125 1429.76 792.118 1428.59 794.618 1450.61C794.618 1450.61 789.217 1406.71 803.991 1401.05C818.756 1395.4 831.04 1439.16 831.308 1445.68C831.308 1445.68 828.478 1422.06 848.47 1428.59C848.47 1428.59 853.542 1410.52 869.531 1425.21C869.531 1425.21 861.495 1410.88 869.809 1392.59C869.809 1392.59 899.708 1394.98 897.403 1421.81C897.403 1421.81 900.613 1404.33 923.464 1412.01C923.464 1412.01 930.049 1385.6 954.928 1397.27C954.928 1397.27 969.435 1372.39 985.084 1384.18C985.084 1384.18 979.209 1362.18 996.474 1355.87C1013.73 1349.56 1023.71 1369.67 1023.71 1369.67C1023.71 1369.67 1045.47 1343.16 1073.09 1374.6C1073.09 1374.6 1081.12 1332.35 1114.41 1350.42C1114.41 1350.42 1108.66 1311.25 1139.52 1313.16C1139.52 1313.16 1129.33 1287.07 1135.45 1277.4C1135.45 1277.4 1153.21 1266.42 1164.58 1283.78C1164.58 1283.78 1187.58 1261.71 1204.16 1272.87C1220.76 1284.03 1206.91 1271.25 1206.91 1271.25C1206.91 1271.25 1223.97 1245.76 1241.5 1259.08C1259.02 1272.4 1247.55 1218.12 1295.06 1244.29C1295.06 1244.29 1307.71 1212.95 1337.55 1232.16C1337.55 1232.16 1304.82 1224.36 1304.49 1191.04C1304.49 1191.04 1358.8 1183.17 1365.68 1217.79C1365.68 1217.79 1341.4 1175.38 1364.38 1155.63C1364.38 1155.63 1411.17 1167.09 1405.77 1202.6C1405.77 1202.6 1410.83 1169.09 1429.04 1169.09C1429.04 1169.09 1453.21 1191.08 1435.34 1208.69C1435.34 1208.69 1445.79 1185.32 1469.83 1195.11C1493.86 1204.89 1471.91 1196.62 1471.91 1196.62C1471.91 1196.62 1455.09 1165.22 1487.76 1167.3C1487.76 1167.3 1477.79 1148.76 1489.04 1137.25C1489.04 1137.25 1514.01 1140.01 1511.12 1161.48C1511.12 1161.48 1529.3 1146.83 1541.18 1168.74C1541.18 1168.74 1552.45 1156.04 1558.08 1169.07C1558.08 1169.07 1555.26 1133.1 1573.52 1129.19C1573.52 1129.19 1592.29 1149.51 1579.03 1173.03C1579.03 1173.03 1596.84 1152.81 1609.92 1160.35C1609.92 1160.35 1616.39 1184.5 1596.56 1185.47C1596.56 1185.47 1608.74 1182.48 1613.66 1194.89C1613.66 1194.89 1633.41 1182.47 1637.17 1194.3L1641.66 1562.61L-782.748 1574.6L-773.24 1185.81Z" fill="url(#paint6_linear_1950_925)"/>
<path d="M348.189 958.65H279.026V891.954H117V838.306L270.804 634.833H348.189V832.023H398.006V891.954H348.189V958.65ZM190.516 832.023H279.026V716.512L190.516 832.023Z" fill="url(#paint7_linear_1950_925)"/>
<path d="M561.091 963C468.712 963 417.444 892.92 417.444 796.258C417.444 700.08 468.712 630 561.091 630C653.47 630 704.254 700.08 704.254 796.258C704.254 892.92 653.47 963 561.091 963ZM561.091 895.82C610.908 895.82 631.705 857.155 631.705 796.258C631.705 735.845 610.908 696.697 561.091 696.697C511.274 696.697 490.476 735.845 490.476 796.258C490.476 857.155 511.274 895.82 561.091 895.82Z" fill="url(#paint8_linear_1950_925)"/>
<path d="M958.183 958.65H889.02V891.954H726.993V838.306L880.797 634.833H958.183V832.023H1008V891.954H958.183V958.65ZM800.51 832.023H889.02V716.512L800.51 832.023Z" fill="url(#paint9_linear_1950_925)"/>
<path d="M681.933 1319.34C681.933 1319.34 559.46 1599.38 480.926 1659.86C480.926 1659.86 811.104 1664.5 866.247 1659.82L1038.72 1652.02L681.933 1319.34Z" fill="url(#paint10_linear_1950_925)"/>
<path d="M681.363 1318.23C681.363 1318.23 760.376 1549 868.677 1660.74C868.677 1660.74 1348.28 1657.3 1396.07 1654.8C1396.07 1654.8 1095.55 1516.79 1062.23 1332.41C1062.23 1332.41 887.975 1424.13 681.363 1318.23Z" fill="url(#paint11_linear_1950_925)"/>
<path opacity="0.457807" d="M1031.14 1401.14C1030.29 1401 1029.43 1401.01 1028.55 1401.2C1028.55 1401.2 906.848 1426.3 822.35 1411.4C822.211 1411.37 822.069 1411.36 821.928 1411.34C821.029 1411.24 819.231 1411.02 818.332 1410.92C813.579 1410.37 809.64 1414.52 810.437 1419.24C810.574 1420.05 820.162 1476.09 872.108 1541.65C873.592 1543.53 875.91 1544.54 878.293 1544.35C878.293 1544.35 1099.38 1527.12 1104.04 1527.12C1110.53 1527.12 1113.68 1519.2 1108.99 1514.73C1108.99 1514.73 1058.15 1466.04 1036.78 1405.8C1035.88 1403.27 1033.66 1401.54 1031.14 1401.14Z" fill="url(#paint12_linear_1950_925)"/>
<path d="M817.506 1418.05C817.506 1418.05 826.77 1472.88 877.735 1537.2C877.735 1537.2 1098.3 1519.94 1104.04 1519.94C1104.04 1519.94 1052.09 1470.48 1030 1408.22C1030 1408.22 907.684 1433.74 821.101 1418.46L817.506 1418.05Z" fill="url(#paint13_linear_1950_925)"/>
<path opacity="0.33822" d="M722.76 1393.15C722.76 1393.15 834.084 1610.04 871.945 1660.99C872.134 1661.25 890.619 1661.18 890.566 1661.1C886.412 1654.89 873.725 1652.63 831.773 1585.65C789.821 1518.66 748.447 1445.18 722.76 1393.15Z" fill="#6633CC"/>
<path opacity="0.33822" d="M821.912 1526.2L892.848 1660.53L934.511 1661.91C934.511 1661.91 916.916 1662.32 897.487 1640.43C867.769 1606.93 830.711 1544.02 821.912 1526.2Z" fill="#6633CC"/>
<path d="M681.293 1318.92C681.293 1318.92 773.941 1570.39 870.165 1660.88L854.03 1661.91C854.03 1661.91 796.316 1595.77 753.132 1510.02C709.948 1424.27 681.293 1318.92 681.293 1318.92Z" fill="#2F1A61"/>
<path opacity="0.666842" d="M681.799 1320.21C681.799 1320.21 577.15 1572.72 480.926 1663.21H504.37C504.37 1663.21 562.083 1597.06 605.268 1511.31C648.452 1425.56 681.799 1320.21 681.799 1320.21Z" fill="#100C25"/>
<path d="M1407.47 1556.82C1400.72 1556.07 1394.05 1562.53 1390.15 1571.43C1385.26 1582.59 1383.8 1597.83 1384.5 1607.98C1381.15 1614.68 1378.9 1617.62 1376.06 1624.25C1376.06 1624.25 1380.51 1590.66 1366.4 1584.59C1351.85 1578.33 1361.16 1627.19 1369.69 1638.82C1367.54 1643.69 1365.77 1648.69 1364.4 1653.85C1361.73 1642.85 1357.07 1618.68 1345.86 1613.85C1341.35 1611.91 1337.93 1614.3 1336.81 1616.87C1331.57 1628.81 1360.48 1668.63 1360.48 1668.63C1359.48 1673.75 1358.93 1679.01 1358.78 1684.36C1358.78 1684.36 1347.73 1647.2 1329.42 1648.1C1328.02 1648.17 1327.03 1648.55 1326.21 1649.06C1326.84 1645.33 1327.06 1641.94 1326.12 1639.95C1324.89 1637.34 1321.71 1636.74 1316.1 1639.35C1303.35 1645.28 1301.57 1674.03 1301.76 1675.17C1301.76 1675.2 1303.21 1682.71 1303.09 1682.73C1296.94 1677.18 1292.89 1672.88 1288.69 1666.33C1291.72 1662.22 1313.32 1631.37 1309.56 1623.78C1309.23 1623.13 1308.63 1622.63 1307.8 1622.36C1306.62 1621.89 1304.99 1622.07 1303.58 1622.82C1295.18 1626.72 1285.02 1646.83 1281.98 1654.51L1276.21 1642.3C1281.16 1635.71 1285.52 1628.93 1289.28 1622.11C1293.16 1614.82 1294.5 1603.38 1292.02 1598.4C1290.95 1596.26 1289.3 1595.27 1286.67 1596.43C1285.66 1596.91 1284.68 1597.47 1283.87 1598.16C1274.35 1605.85 1273.1 1623.52 1272.83 1630.44C1271.5 1627.01 1270.85 1623.27 1270.93 1619.38C1270.99 1618.13 1269.22 1604.33 1264.5 1594.06C1260.86 1586.18 1254.75 1579.95 1249.08 1582.58C1242.63 1585.56 1242.58 1594.58 1246.61 1603.12C1251.03 1612.49 1259.94 1621.97 1266.86 1627.24C1269.28 1633.12 1269.96 1636.17 1272.62 1641.69C1272.62 1641.69 1253.51 1620.04 1241.68 1625.54C1229.47 1631.22 1266.13 1652.8 1278.4 1653.95C1280.31 1658.04 1282.58 1661.95 1285.12 1665.73C1278.94 1662.49 1267.82 1656.23 1258.56 1654.52C1261.68 1647.94 1228.33 1647.48 1223.66 1649.12C1208.24 1654.52 1220.44 1640.62 1202.35 1641.01C1194.49 1641.18 1186.94 1643.73 1179.96 1647.22C1179.01 1647.69 1172.32 1653.36 1172.32 1653.36C1170.33 1653.02 1174.51 1650 1175.29 1648.17C1176.82 1644.61 1179.9 1634.43 1175.29 1631.41C1164.63 1624.44 1156.22 1642.44 1149.62 1645.05C1147.12 1646.04 1151.44 1640.02 1152.51 1637.57C1154.36 1633.38 1155.47 1624.53 1149.06 1622.98C1140.92 1621.02 1137.68 1633.7 1132.69 1633.61C1131.38 1633.58 1135.62 1620.03 1128.99 1620.78C1116.89 1622.14 1133.06 1641.13 1109.04 1640.64C1106.46 1635.56 1105.92 1625.49 1098.06 1627.33C1084.57 1630.49 1101.7 1642.55 1101.58 1646.44C1101.57 1647.19 1100.39 1645.55 1099.72 1645.21C1096.6 1643.63 1092.93 1643.9 1089.52 1644.33C1081.59 1645.32 1077.09 1652.14 1070.12 1654.55C1069.29 1654.83 1058.33 1647.68 1049.08 1647.22C1052.06 1644.21 1054.05 1639.49 1050.12 1636.61C1038.66 1628.18 1030.93 1646.4 1023.34 1647.17C1023.15 1647.19 1023.22 1642.7 1023.22 1642.59C1023.25 1637.59 1023.84 1624.7 1018.17 1622.5C1011.02 1619.71 1011.46 1638.85 1010.81 1640.67C1009.84 1643.38 1003.36 1635.56 998.941 1638.56C995.199 1641.09 995.474 1644.94 996.913 1648.88C996.403 1648.54 995.801 1647.95 995.395 1647.89C987.833 1646.8 985.975 1654.1 979.931 1655.41C977.707 1655.89 979.29 1650.68 977.864 1648.92C974.527 1644.82 968.182 1644.69 963.433 1645.43C952.456 1647.13 949.944 1655.09 942.447 1658.75C939.268 1660.31 939.529 1651.88 936.598 1649.9C928.617 1644.51 918.412 1644.66 909.123 1644.93C893.331 1645.38 899.729 1654.21 890.767 1660.9C890.1 1661.4 889.734 1659.58 889.197 1658.94C885.547 1654.57 881.321 1651.09 875.394 1650.93C861.303 1650.53 853.636 1660.87 844.151 1661.76C840.684 1662.09 849.031 1656.75 851.752 1654.59C856.318 1650.99 871.94 1639.28 863.462 1632.84C854.238 1625.83 834.846 1649.4 827.653 1652.27C826.343 1652.79 828.854 1649.75 829.442 1648.48C831.538 1643.95 829.579 1647.74 832.077 1642.6C834.298 1638.04 848.717 1616.52 839.074 1612.68C829.183 1608.76 815.898 1644.53 813.373 1650.1C813.032 1650.85 813.647 1648.47 813.829 1647.66C814.385 1645.21 815.103 1642.78 815.638 1640.32C817.11 1633.54 821.295 1608.77 814.021 1604.26C812.236 1603.16 810.69 1602.84 809.312 1603.17C799.675 1605.43 799.337 1638.41 799.179 1641.49C799.114 1642.76 799.726 1644.35 798.862 1645.29C796.759 1647.58 796.234 1639.49 793.995 1637.32C791.235 1634.65 780.84 1632.51 778.77 1637.48C775.404 1645.57 783.466 1652.67 792.902 1657.53C796.561 1662.7 708.704 1663.96 713.282 1667.46C713.914 1667.95 836.982 1669.89 844.609 1668.68C877.788 1663.43 913.244 1669.06 946.555 1669.25C954.405 1669.29 991.64 1667.33 1001.35 1663.17C1001.41 1663.18 1001.48 1663.16 1001.54 1663.17C1015.09 1665.52 1028.37 1673.36 1042.21 1673.39C1059.64 1673.42 1077.72 1666.01 1095.05 1663.4C1098.39 1662.9 1101.7 1663.54 1104.97 1664.24L1104.67 1666.09C1106.04 1665.5 1107.26 1665.21 1108.5 1664.89C1112.09 1665.65 1115.67 1666.25 1119.36 1665.44C1119.54 1665.4 1119.68 1665.22 1119.85 1665.15C1125.77 1666.69 1131.24 1669.53 1138.83 1669.01C1165.69 1667.14 1191.99 1661.12 1218.99 1659.61C1224.09 1659.33 1236.04 1659.96 1245.66 1659.03C1245.41 1660.23 1245.39 1661.45 1245.84 1662.39C1250.57 1672.41 1292.42 1676.53 1292.42 1676.53C1295.15 1680.04 1298.2 1683.32 1301.55 1686.42C1301.55 1686.42 1271.46 1672.5 1261.72 1684.59C1252.11 1696.55 1296.55 1698.21 1311.62 1693.69C1312.03 1693.92 1317.2 1696.3 1319.76 1697.48C1318.79 1699.66 1319.83 1702.94 1322.06 1706.8C1309.02 1706.35 1290.36 1707.11 1287.77 1715.96C1285.23 1724.66 1310.68 1724.85 1332.84 1720.5C1344.81 1733.03 1362.28 1746.49 1375.44 1752.15C1380.56 1764.9 1384.72 1769.16 1384.72 1769.16C1385.52 1769.99 1386.54 1770.71 1387.66 1771.27C1389.04 1771.88 1390.03 1771.78 1390.8 1770.02C1391.75 1767.87 1385.86 1761.86 1378.19 1742.96C1381.23 1739.43 1391.75 1726.65 1396.66 1715.4C1400.83 1705.88 1401.41 1696.6 1393.79 1693.32C1385.23 1689.64 1378.28 1698.41 1374.71 1706.8C1373.81 1708.87 1373.22 1711.06 1372.71 1713.27C1371.69 1712.97 1370.22 1712.68 1368.34 1712.27C1365.94 1704.36 1363.37 1695.44 1363.05 1692.27C1367.75 1691.19 1384.24 1688.32 1393.09 1685.28C1403.34 1681.76 1416.76 1675.4 1419.26 1669.69C1420.62 1666.59 1418.74 1663.32 1412.05 1660.44C1396.85 1653.91 1369.87 1674.7 1368.99 1675.74C1368.97 1675.77 1363.41 1682.91 1363.3 1682.82C1363.46 1673.12 1364.11 1666.23 1366.68 1657.46C1372.71 1656.91 1416.97 1651.82 1420.79 1642.62C1421.12 1641.82 1421.07 1640.92 1420.66 1639.99C1420.16 1638.6 1418.72 1637.31 1416.94 1636.65C1406.94 1632.35 1381.17 1639.08 1371.98 1642.39L1378.33 1627.82C1386.51 1627.15 1394.41 1625.93 1402.08 1624.39H1402.17C1437.18 1624.61 1471.69 1635.91 1507.65 1636.87C1530.69 1637.48 1553.4 1639.85 1576.5 1639.98C1595.44 1640.08 1632.35 1645.25 1649.41 1633.56C1665.73 1622.39 1662.53 1576.44 1647.04 1564.82C1644.22 1562.7 1641.7 1562.11 1639.39 1562.49C1632.48 1563.64 1627.51 1573.33 1622.04 1575.25C1615.13 1577.68 1606.44 1564.06 1596.59 1566.93C1587 1569.72 1582.16 1588.28 1572.32 1586.52C1551.7 1582.85 1542.99 1558.43 1517.65 1562.79C1503.96 1565.14 1504 1588.31 1492.2 1590.31C1487.39 1591.13 1483.85 1584.62 1479.03 1584C1458.17 1581.33 1434.72 1593.35 1434 1615.51L1411.82 1621.67C1419.81 1618.36 1427.69 1612.42 1429.73 1607.5C1430.8 1604.9 1430.38 1602.65 1427.31 1601.25C1426.09 1600.74 1424.79 1600.39 1423.53 1600.21C1409.28 1597.86 1392.65 1610.49 1386.26 1615.63C1388.28 1611.79 1391.05 1608.36 1394.57 1605.4C1395.72 1604.48 1406.7 1592.15 1412.16 1580.03C1416.34 1570.71 1417.11 1560.53 1410.36 1557.61C1409.39 1557.2 1408.43 1556.92 1407.47 1556.82ZM1324.56 1655.52C1325.39 1659.14 1327.85 1663.8 1331.16 1668.71C1329.81 1668.58 1328.42 1668.7 1326.98 1669.37C1319.81 1672.71 1321.53 1682.01 1324.92 1688.99C1325.92 1691.12 1327.18 1693.12 1328.66 1695C1326.52 1694.48 1324.51 1694.43 1322.66 1695.07C1316.83 1692.37 1310.92 1689.54 1309.01 1688.17C1310.96 1684.59 1318.43 1672.56 1321.46 1665.25C1322.68 1662.31 1323.59 1658.87 1324.56 1655.52ZM1344.97 1685.59C1350.4 1691.28 1355.91 1696.21 1360.16 1698.83C1360.29 1699.48 1362.49 1706.82 1363.79 1711.17C1360.16 1710.29 1355.9 1709.14 1350.1 1707.1C1349.64 1703.92 1347.97 1694.21 1344.97 1685.59ZM1354.48 1713.99C1359.49 1715.77 1362.88 1716.55 1365.51 1717.03C1368.08 1725.56 1370.09 1732.31 1371.54 1737.47C1371.41 1737.28 1365.89 1729.84 1365.89 1729.84C1365.89 1729.84 1360.36 1722.36 1353.4 1714.43C1353.72 1714.28 1354.17 1714.14 1354.48 1713.99ZM1372.04 1717.36C1371.83 1719.15 1371.54 1720.91 1371.57 1722.76C1371.32 1721.97 1370.47 1719.2 1369.99 1717.64C1370.05 1717.64 1370.62 1717.69 1370.62 1717.69C1371.09 1717.67 1371.57 1717.45 1372.04 1717.36Z" fill="url(#paint14_radial_1950_925)"/>
<path d="M-91.8808 -140.82C-91.8808 -140.82 -93.3181 -18.2269 -95.2072 68.6099C-97.0964 155.447 -102.758 255.258 -165.807 552.939C-228.855 850.619 -267.312 1245.41 -309.759 1440.54L-126.373 1624.21C-126.373 1624.21 -68.3002 1120.98 -42.5575 1011.65C-16.7866 902.318 93.2813 896.065 202.203 785.501C311.124 674.936 294.583 594.307 273.697 557.651C252.812 520.995 187.336 672.4 120.36 729.319C53.3555 786.242 -73.781 875.7 -38.434 773.877C-3.08713 672.051 5.55454 641.108 28.2593 516.951C50.964 392.794 37.5333 387.519 68.239 201.633C98.9163 15.7493 153.518 -154.437 153.518 -154.437L-91.8808 -140.82Z" fill="url(#paint15_linear_1950_925)"/>
<path opacity="0.5" d="M228.767 1843.49C202.46 1881.38 238.726 1905.51 260.147 1912.84C256.416 1902.68 260.6 1877.62 284.391 1846.76C313.172 1809.42 256.493 1768.23 240.546 1764.18C247.581 1774.83 255.073 1805.61 228.767 1843.49Z" fill="url(#paint16_linear_1950_925)"/>
<path opacity="0.2" d="M250.153 1848.76C223.613 1885.62 259.402 1909.51 280.614 1916.85C277.013 1906.87 281.433 1882.39 305.399 1852.37C334.392 1816.06 278.494 1775.33 262.688 1771.24C269.568 1781.72 276.692 1811.89 250.153 1848.76Z" fill="url(#paint17_linear_1950_925)"/>
<path d="M636.696 -83.7378C636.696 -83.7378 605.446 -46.3009 549.231 -7.6159C493.887 -45.683 480.502 -5.60276 480.502 -5.60276C499.343 11.1274 520.907 7.23513 535.145 1.56896C518.697 12.1401 500.435 22.482 480.439 32.0807C436.24 -18.6477 413.345 16.9191 413.345 16.9191C430.171 41.8457 457.96 39.355 472.328 36.044C454.493 44.1953 435.305 51.5375 414.98 57.7482C375.405 2.8992 349.334 36.3586 349.334 36.3586C363.122 61.3666 388.879 62.6033 403.977 60.9567C383.252 66.7086 361.466 71.3105 338.456 73.9791C309.772 12.0697 277.775 40.259 277.775 40.259C286.796 67.8614 312.539 73.6727 327.576 74.734C318.923 75.5155 310.306 76.3757 301.356 76.6214C288.764 76.9672 276.71 76.7048 265.136 75.9294C252.355 11.1894 215.083 30.0676 215.083 30.0676C216.769 56.0182 235.964 68.5365 250.233 74.2938C228.307 71.867 208.27 67.6081 190.058 61.9003C189.496 -7.13506 148.431 5.59524 148.431 5.59524C144.562 42.0598 177.983 57.3202 186.599 60.7051C182.394 59.3294 178.033 58.1301 174.023 56.6158C172.924 56.1534 171.701 55.7353 170.502 55.2947C151.705 47.9193 135.158 39.0696 120.512 29.5643C120.598 29.5144 120.675 29.4885 120.763 29.4384C120.763 29.4384 115.46 24.7341 107.117 20.3164C89.719 7.50527 75.6762 -5.87488 64.4214 -18.5624C61.9762 -22.5883 58.1145 -28.2915 51.2798 -34.5418C34.9031 -56.1074 27.7632 -72.2252 27.7632 -72.2252L16.9483 -69.4572C16.9483 -69.4572 22.3217 -59.8979 33.3592 -45.6769C25.3557 -48.7011 16.0381 -49.8936 5.31478 -47.1868C5.31478 -47.1868 -0.938238 -6.81391 62.3479 -13.4037C72.1071 -3.80246 83.4965 6.09421 96.6165 15.9126C83.5863 11.4277 66.9528 10.0564 50.84 21.8891C50.84 21.8891 60.4071 62.6308 118.248 30.7595C130.445 38.4512 143.86 45.6795 158.429 52.2121C145.652 49.9951 130.6 51.2688 117.052 63.5989C117.052 63.5989 131.137 104.409 187.353 63.7248C187.353 63.7248 186.362 63.1294 186.222 63.0327C199.284 67.4852 213.079 71.3626 227.786 74.2938C216.191 75.2962 203.807 79.9709 194.019 92.5377C194.019 92.5377 214.817 130.355 263.314 80.7106C263.314 80.7106 260.603 79.6885 258.346 78.8233C271.314 80.2116 284.73 80.9622 298.841 80.8993C288.651 84.986 278.793 92.3993 272.87 106.001C272.87 106.001 301.869 136.767 336.066 79.0119C349.921 77.6222 363.576 75.7095 376.812 73.0355C367.919 78.9749 359.991 87.8287 356.816 101.849C356.816 101.849 390.862 126.488 413.661 63.9134C422.286 61.3856 430.661 58.4884 438.939 55.5463C432.948 61.9173 428.18 70.2192 426.677 81.4655C426.677 81.4655 462.533 102.784 479.685 39.0637C493.521 32.753 506.571 26.055 519.049 19.1211C512.413 27.7642 507.76 39.0003 509.49 53.5961C509.49 53.5961 548.994 65.1562 550.299 0.625257C615.535 -40.9778 654.745 -83.1088 654.745 -83.1088L636.696 -83.7378ZM60.3353 -83.4861C36.869 -48.9338 70.3333 -13.907 70.3333 -13.907C102.67 -75.3222 60.3353 -83.4861 60.3353 -83.4861ZM94.604 -32.7173C90.7423 -33.0095 88.1284 -32.4656 88.1284 -32.4656C79.3925 8.3836 123.593 28.1802 123.593 28.1802C128.727 -23.6276 106.191 -31.8407 94.604 -32.7173Z" fill="url(#paint18_radial_1950_925)"/>
<path d="M1195.63 -116.725C1195.63 -116.725 1330.9 27.8663 1303.13 35.1232C1275.35 42.3802 1207.67 -115.816 1223.29 -51.2687C1238.94 13.2786 1261.63 121.434 1238.01 127.071C1214.37 132.709 1220.47 -83.8872 1211.16 -57.3834C1201.83 -30.8795 1199.74 146.131 1167.55 126.65C1135.34 107.169 1221.08 -101.086 1197.96 -86.6712C1174.86 -72.2563 1152.3 -39.8259 1118.49 79.4026C1115.09 91.4111 1096.79 103.34 1098.99 71.0042C1101.21 38.6686 1202.7 -131.762 1152.56 -72.2794C1102.42 -12.7968 1084.23 -63.515 1192.55 -116.156L1195.63 -116.725Z" fill="url(#paint19_linear_1950_925)"/>
<path d="M52.3426 1584.17C52.3426 1584.17 114.528 1585.33 138.207 1585.07C161.885 1584.81 354.944 1579.78 420.823 1576.38C486.703 1572.99 561.881 1585.27 574.372 1585.27C577.509 1585.27 595.342 1605.95 598.071 1616.72C606.208 1648.86 597.129 1699.37 597.129 1699.37C597.129 1699.37 509.975 1705.17 444.838 1704.95C379.701 1704.74 221.807 1694.23 158.201 1699.94C94.5945 1705.65 61.8227 1698.79 61.8227 1698.79C61.8227 1698.79 -127.737 1567.55 52.3426 1584.17Z" fill="url(#paint20_linear_1950_925)"/>
<path d="M595.102 1612.73C595.102 1612.73 755.391 1767.09 795.702 1807.41C795.702 1807.41 808.753 1844.08 765.383 1904.13C722.014 1964.19 632.323 1916.63 630.046 1896.15C630.046 1896.15 459.861 1711.56 463.672 1703.2C467.483 1694.84 443.479 1617.31 505.912 1608.78C568.345 1600.25 545.701 1573.97 595.102 1612.73Z" fill="url(#paint21_linear_1950_925)"/>
<path d="M258.65 1916.18C258.65 1916.18 308.257 1920.36 310.75 1914.26C313.242 1908.15 317.432 1894.9 288.825 1899.06C260.22 1903.21 242.44 1910.63 258.65 1916.18Z" fill="url(#paint22_linear_1950_925)"/>
<path d="M230.914 1902.86C230.914 1902.86 287.153 1883.41 291.842 1888.78C296.53 1894.14 297.381 1911.39 236.867 1918.44C176.351 1925.5 220.963 1916.85 230.914 1902.86Z" fill="url(#paint23_linear_1950_925)"/>
<path d="M3869.96 1583.84C3869.96 1583.84 3800.28 1556.09 3772.4 1623.67C3772.4 1623.67 3708.7 1609.51 3683.12 1691.93C3683.12 1691.93 3651.58 1654 3629.39 1667.02C3629.39 1667.02 3572.44 1728.69 3612.95 1786.9C3612.95 1786.9 3543.84 1773.09 3540.46 1855.33C3540.46 1855.33 3545.96 1775.13 3489.46 1770.04C3489.46 1770.04 3417.35 1818.74 3463.43 1903.12C3463.43 1903.12 3418.82 1827.16 3367.18 1854.85C3367.18 1854.85 3343.72 1931.1 3402.11 1962.88C3402.11 1962.88 3376.25 1959.67 3376.5 2000.13C3376.5 2000.13 3376.61 1923.48 3330.57 1928.15C3330.57 1928.15 3279.85 1994.95 3324.62 2047.45C3324.62 2047.45 3295.79 2045.92 3298.12 2075.89C3298.12 2075.89 3228.64 2034.82 3221.59 2116.8C3221.59 2116.8 3218.07 2124.03 3228.6 2149.27C3228.6 2149.27 3178.39 2112.97 3138.34 2174.56C3138.34 2174.56 3099.75 2149.4 3060.31 2187.74C3060.31 2187.74 3053.57 2146.69 3005.73 2181.14C3005.73 2181.14 3050.15 2162.13 3020.11 2102.68C3020.11 2102.68 2964.01 2105.62 2963.79 2176.84C2963.79 2176.84 2922.07 2119.65 2878.32 2141.88C2878.32 2141.88 2852.78 2202.18 2896.78 2214.71C2896.78 2214.71 2856.36 2185.93 2826.96 2229.87C2826.96 2229.87 2771.13 2207.46 2744.08 2252.32C2744.08 2252.32 2689.93 2243.54 2678.03 2256.58C2678.03 2256.58 2640.29 2289.79 2554.25 2249.33C2468.21 2208.89 2439.08 2273.16 2372.87 2260.31C2306.67 2247.43 2295.91 2228.38 2259.99 2239.3C2224.07 2250.22 2166.67 2235.33 2140.22 2258.23C2113.76 2281.15 2067.33 2248.31 2051.37 2253.81C2035.4 2259.33 1983.74 2261 1974.81 2262.77C1965.89 2264.56 1933.54 2270.06 1911.82 2268.6C1890.11 2267.13 1867.64 2264.71 1867.64 2264.71C1867.64 2264.71 1901.14 2260.02 1887.87 2228.67C1887.87 2228.67 1845.82 2221.6 1827.29 2253.62L1816.63 2266.48C1816.63 2266.48 1817.33 2212.63 1775.07 2218.77C1775.07 2218.77 1754.05 2235.8 1763.19 2266.72C1763.19 2266.72 1727.08 2254.05 1704.18 2268.33C1681.3 2282.61 1619.31 2239.91 1576.72 2255.15C1534.14 2270.37 1481.77 2240.71 1444.28 2250.34C1406.8 2260 1422.4 2206.38 1375.03 2218.36C1375.03 2218.36 1325.39 2204 1304.86 2237.73C1304.86 2237.73 1252.25 2223.68 1220.12 2244.56C1220.12 2244.56 1197.47 2231.4 1173.28 2236.73C1173.28 2236.73 1162.58 2196.8 1119.56 2227.79C1119.56 2227.79 1104.31 2167.14 1054.58 2203.93C1054.58 2203.93 1038.73 2153.76 999.112 2163.19C999.112 2163.19 1005.73 2102.25 928.731 2123.12C851.756 2144 807.82 2115.72 807.82 2115.72C807.82 2115.72 831.978 2105.6 818.473 2066.79C818.473 2066.79 770.973 2064.48 766.023 2108.06C766.023 2108.06 776.717 2021.15 747.467 2009.97C718.238 1998.76 693.917 2085.39 693.387 2098.3C693.387 2098.3 698.989 2051.55 659.412 2064.46C659.412 2064.46 649.37 2028.69 617.716 2057.78C617.716 2057.78 633.625 2029.42 617.166 1993.2C617.166 1993.2 557.974 1997.93 562.537 2051.04C562.537 2051.04 556.182 2016.44 510.942 2031.64C510.942 2031.64 497.906 1979.35 448.654 2002.47C448.654 2002.47 419.933 1953.21 388.952 1976.55C388.952 1976.55 400.583 1933 366.404 1920.51C332.245 1908.01 312.487 1947.83 312.487 1947.83C312.487 1947.83 269.406 1895.35 214.716 1957.59C214.716 1957.59 198.828 1873.95 132.914 1909.72C132.914 1909.72 144.3 1832.18 83.2135 1835.96C83.2135 1835.96 103.379 1784.31 91.2591 1765.17C91.2591 1765.17 56.1021 1743.42 33.5944 1777.8C33.5944 1777.8 -11.9303 1734.11 -44.7651 1756.2C-77.6203 1778.29 -50.2035 1752.98 -50.2035 1752.98C-50.2035 1752.98 -83.9753 1702.53 -118.684 1728.89C-153.373 1755.26 -130.661 1647.81 -224.725 1699.62C-224.725 1699.62 -249.759 1637.56 -308.829 1675.6C-308.829 1675.6 -244.035 1660.17 -243.383 1594.19C-243.383 1594.19 -350.911 1578.63 -364.518 1647.16C-364.518 1647.16 -316.467 1563.2 -361.951 1524.1C-361.951 1524.1 -454.589 1546.78 -443.896 1617.08C-443.896 1617.08 -453.917 1550.75 -489.97 1550.75C-489.97 1550.75 -537.817 1594.28 -502.436 1629.15C-502.436 1629.15 -523.131 1582.88 -570.713 1602.25C-618.295 1621.61 -574.828 1605.24 -574.828 1605.24C-574.828 1605.24 -541.525 1543.08 -606.217 1547.21C-606.217 1547.21 -586.479 1510.51 -608.742 1487.71C-608.742 1487.71 -658.177 1493.18 -652.454 1535.68C-652.454 1535.68 -688.446 1506.68 -711.972 1550.06C-711.972 1550.06 -734.276 1524.92 -745.418 1550.7C-745.418 1550.7 -739.837 1479.5 -775.992 1471.75C-775.992 1471.75 -813.145 1511.97 -786.91 1558.54C-786.91 1558.54 -822.169 1518.51 -848.058 1533.45C-848.058 1533.45 -860.869 1581.25 -821.598 1583.18C-821.598 1583.18 -845.715 1577.25 -855.452 1601.82C-855.452 1601.82 -894.56 1577.23 -901.995 1600.66L-910.896 2329.78L3888.79 2353.53L3869.96 1583.84Z" fill="url(#paint24_linear_1950_925)"/>
<path d="M976.262 -57.0938C976.262 -57.0938 703.354 91.652 740.731 116.827C778.133 142.001 958.021 -61.891 902.355 27.4463C846.666 116.784 758.524 268.263 790.623 288.878C822.722 309.491 923 -20.2968 923.377 24.4482C923.778 69.1931 837.569 337.227 895.002 324.351C952.459 311.476 930.777 -46.5423 957.667 -12.9597C984.558 20.6229 1001.53 81.0878 991.369 278.232C990.355 298.089 1011.38 325.455 1024.43 275.558C1037.49 225.661 973.434 -83.387 1017.55 32.0196C1061.67 147.426 1114.15 80.2555 980.551 -54.6559L976.262 -57.0938Z" fill="url(#paint25_linear_1950_925)"/>
<path d="M1037.48 -247.876C1037.48 -247.876 1038.09 -68.5251 1038.09 13.4806C1038.09 95.487 1048.44 154.361 1036.97 154.361C1025.47 154.361 910.536 -128.546 801.142 -240.403C691.724 -352.26 609.17 -289.477 609.17 -289.477C609.17 -289.477 713.98 -176.067 749.129 -114.951C784.279 -53.8347 822.296 14.9445 869.897 70.3321C917.498 125.719 924.116 165.997 951.004 259.612C977.918 353.226 983.31 562.9 1055.59 673.753C1127.9 784.603 1106.85 1309.05 1127.44 1583.52C1148.03 1857.98 1200.11 2014.99 1200.11 2014.99L1520.13 2064.26L1465.5 -268.447L1037.48 -247.876Z" fill="url(#paint26_linear_1950_925)"/>
<path d="M1294.28 -237.991C1294.28 -237.991 853.251 -29.4555 901.346 24.2096C949.476 77.8794 1268.78 -250.661 1162.88 -101.618C1056.95 47.4203 886.559 301.509 928.133 345.783C969.707 390.052 1206.11 -183.27 1194.57 -102.409C1183.07 -21.5425 984.02 443.387 1071.85 432.769C1159.72 422.156 1224.62 -228.941 1255.04 -162.403C1285.46 -95.8647 1294.04 17.0232 1225.85 370.695C1219 406.32 1242.48 460.346 1275.14 373.138C1307.8 285.929 1297.23 -286.08 1330.84 -68.0368C1364.45 150.006 1459.69 40.2809 1299.92 -232.647L1294.28 -237.991Z" fill="url(#paint27_linear_1950_925)"/>
<path d="M1204.28 1828.69C1204.28 1828.69 976.81 1540.19 1322.04 1441.89C1322.04 1441.89 1377.45 1584.42 1204.28 1828.69Z" fill="url(#paint28_linear_1950_925)"/>
<path d="M1136.95 1866.68C1136.95 1866.68 971.57 1728.17 1112.96 1399.43C1112.96 1399.43 1308.68 1613.85 1136.95 1866.68Z" fill="url(#paint29_linear_1950_925)"/>
<path d="M1278.03 1864.27C1278.03 1864.27 1087.5 1965.42 836.174 1710.71C836.174 1710.71 1108.43 1610.01 1278.03 1864.27Z" fill="url(#paint30_linear_1950_925)"/>
<path d="M1181.7 1853.72C1181.7 1853.72 969.221 1816.66 927 1461.3C927 1461.3 1203.75 1548.86 1181.7 1853.72Z" fill="url(#paint31_linear_1950_925)"/>
<path d="M-3187.88 1799.36C-3187.88 1799.36 -3062.22 1762.96 -3036 1826.52C-3036 1826.52 -2976.11 1813.21 -2952.06 1890.73C-2952.06 1890.73 -2922.4 1855.04 -2901.54 1867.29C-2901.54 1867.29 -2847.98 1925.3 -2886.07 1980.05C-2886.07 1980.05 -2821.09 1967.05 -2817.91 2044.41C-2817.91 2044.41 -2823.08 1968.97 -2769.95 1964.19C-2769.95 1964.19 -2702.15 2009.99 -2745.48 2089.36C-2745.48 2089.36 -2703.53 2017.91 -2654.97 2043.95C-2654.97 2043.95 -2632.92 2115.68 -2687.81 2145.58C-2687.81 2145.58 -2663.5 2142.55 -2663.74 2180.59C-2663.74 2180.59 -2663.84 2108.5 -2620.55 2112.9C-2620.55 2112.9 -2572.85 2175.73 -2614.96 2225.12C-2614.96 2225.12 -2587.85 2223.68 -2590.03 2251.87C-2590.03 2251.87 -2524.7 2213.24 -2518.07 2290.34C-2518.07 2290.34 -2514.76 2297.13 -2524.66 2320.87C-2524.66 2320.87 -2477.45 2286.74 -2439.79 2344.67C-2439.79 2344.67 -2403.5 2320.99 -2366.42 2357.05C-2366.42 2357.05 -2360.08 2318.44 -2315.09 2350.86C-2315.09 2350.86 -2356.86 2332.98 -2328.61 2277.06C-2328.61 2277.06 -2275.87 2279.82 -2275.66 2346.82C-2275.66 2346.82 -2236.43 2293.01 -2195.29 2313.92C-2195.29 2313.92 -2171.28 2370.66 -2212.65 2382.42C-2212.65 2382.42 -2174.64 2355.37 -2146.99 2396.7C-2146.99 2396.7 -2094.5 2375.62 -2069.07 2417.79C-2069.07 2417.79 -2060.93 2406.28 -2017.8 2406.26C-1899.55 2406.2 -1974.17 2449.39 -1896.55 2418.52C-1813.48 2385.47 -1782.26 2437.42 -1720.01 2425.31C-1657.76 2413.22 -1647.65 2395.28 -1613.86 2405.55C-1580.08 2415.84 -1526.12 2401.81 -1501.24 2423.37C-1476.37 2444.91 -1432.7 2414.02 -1417.69 2419.21C-1402.68 2424.39 -1354.1 2425.96 -1345.71 2427.64C-1337.32 2429.31 -1306.9 2434.48 -1286.48 2433.11C-1266.06 2431.73 -1244.93 2429.46 -1244.93 2429.46C-1244.93 2429.46 -1276.43 2425.04 -1263.95 2395.57C-1263.95 2395.57 -1224.41 2388.92 -1206.98 2419.04L-1196.96 2431.11C-1196.96 2431.11 -1197.63 2380.47 -1157.89 2386.24C-1157.89 2386.24 -1138.12 2402.25 -1146.7 2431.36C-1146.7 2431.36 -1112.76 2419.42 -1091.24 2432.86C-1069.71 2446.29 -1011.42 2406.14 -971.375 2420.46C-931.326 2434.77 -882.082 2406.89 -846.84 2415.96C-811.598 2425.02 -826.27 2374.6 -781.719 2385.87C-781.719 2385.87 -735.042 2372.36 -715.736 2404.09C-715.736 2404.09 -666.263 2390.85 -636.058 2410.51C-636.058 2410.51 -614.76 2398.12 -592.006 2403.14C-592.006 2403.14 -581.95 2365.6 -541.499 2394.72C-541.499 2394.72 -527.153 2337.7 -480.399 2372.29C-480.399 2372.29 -465.498 2325.11 -428.245 2333.98C-428.245 2333.98 -434.47 2276.65 -362.071 2296.29C-289.671 2315.91 -248.358 2289.32 -248.358 2289.32C-248.358 2289.32 -271.092 2279.81 -258.375 2243.31C-258.375 2243.31 -213.709 2241.12 -209.074 2282.12C-209.074 2282.12 -219.13 2200.38 -191.626 2189.85C-164.122 2179.32 -141.271 2260.79 -140.754 2272.93C-140.754 2272.93 -146.022 2228.96 -108.807 2241.12C-108.807 2241.12 -99.364 2207.46 -69.5998 2234.83C-69.5998 2234.83 -84.5776 2208.15 -69.0826 2174.09C-69.0826 2174.09 -13.4425 2178.54 -17.7136 2228.49C-17.7136 2228.49 -11.7379 2195.95 30.8016 2210.24C30.8016 2210.24 43.0599 2161.06 89.3726 2182.8C89.3726 2182.8 116.36 2136.48 145.511 2158.42C145.511 2158.42 134.574 2117.46 166.694 2105.71C198.834 2093.96 217.412 2131.41 217.412 2131.41C217.412 2131.41 257.921 2082.06 309.348 2140.59C309.348 2140.59 324.288 2061.92 386.268 2095.57C386.268 2095.57 375.542 2022.64 432.983 2026.19C432.983 2026.19 414.021 1977.61 425.436 1959.61C425.436 1959.61 458.476 1939.15 479.659 1971.49C479.659 1971.49 522.448 1930.39 553.342 1951.17C584.236 1971.95 558.437 1948.15 558.437 1948.15C558.437 1948.15 590.193 1900.69 622.83 1925.49C655.467 1950.29 634.111 1849.22 722.561 1897.96C722.561 1897.96 746.082 1839.59 801.645 1875.37C801.645 1875.37 740.699 1860.85 740.086 1798.8C740.086 1798.8 841.216 1784.15 854.01 1848.62C854.01 1848.62 808.809 1769.65 851.578 1732.87C851.578 1732.87 938.687 1754.2 928.651 1820.32C928.651 1820.32 938.055 1757.94 971.975 1757.94C971.975 1757.94 1016.95 1798.88 983.697 1831.67C983.697 1831.67 1003.14 1788.15 1047.88 1806.37C1092.64 1824.59 1051.75 1809.19 1051.75 1809.19C1051.75 1809.19 1020.43 1750.72 1081.26 1754.6C1081.26 1754.6 1062.72 1720.08 1083.64 1698.65C1083.64 1698.65 1130.14 1703.78 1124.74 1743.76C1124.74 1743.76 1158.59 1716.48 1180.73 1757.29C1180.73 1757.29 1201.68 1733.64 1212.18 1757.89C1212.18 1757.89 1206.93 1690.92 1240.93 1683.63C1240.93 1683.63 1275.84 1721.46 1251.19 1765.26C1251.19 1765.26 1284.35 1727.61 1308.67 1741.66C1308.67 1741.66 1320.72 1786.62 1283.79 1788.44C1283.79 1788.44 1306.49 1782.86 1315.62 1805.97C1315.62 1805.97 1352.42 1782.84 1359.39 1804.88L1367.78 2490.67L-3188.3 2507.05L-3187.88 1799.36Z" fill="url(#paint32_linear_1950_925)"/>
<path fill-rule="evenodd" clip-rule="evenodd" d="M-159.842 1812.2C-155.68 1809.08 -156.97 1795.46 -144.654 1758.92C-135.546 1754.65 -103.28 1738.91 -81.5 1722.57C-63.0591 1708.73 -50.448 1693.28 -57.8918 1683.35C-66.2476 1672.21 -87.9657 1683.17 -104.065 1695.41C-113.621 1702.6 -122.063 1711.16 -129.119 1720.82C-125.465 1711.9 -108.75 1672.51 -103.348 1664.01C-94.8224 1664.86 -66.0357 1669.41 -48.6752 1669.29C-28.6074 1669.14 -0.123353 1665.93 10.9414 1657.63C16.9536 1653.12 18.1888 1646.54 11.6543 1637.82C-3.18496 1618.03 -70.6904 1638.03 -73.3558 1639.31C-73.4276 1639.34 -90.9342 1648.34 -90.996 1648.13C-78.4331 1631.7 -68.6361 1620.31 -53.5902 1606.84C-43.72 1609.34 30.1327 1625.95 47.643 1612.46C49.1435 1611.29 50.2523 1609.69 50.8197 1607.87C51.8298 1605.22 51.2868 1602.23 49.4118 1600.11C39.6433 1587.08 -8.21116 1583.86 -26.4215 1584.26L1.80551 1563.08C17.6138 1567.28 33.7265 1570.24 49.9978 1571.92C67.3722 1573.46 94.3922 1566.61 105.865 1557.76C110.808 1553.94 113.001 1549.89 110.103 1545.76C108.902 1544.19 107.415 1542.86 105.723 1541.84C87.0012 1529.72 45.5692 1541.72 29.3255 1546.84C37.2833 1541.44 45.9499 1537.16 55.0801 1534.13C58.0058 1533.22 90.2898 1518.49 113.999 1500.96C132.204 1487.49 146.343 1470.61 139.764 1461.79C132.287 1451.77 111.145 1459.03 91.4337 1473.8C69.792 1490.01 48.2309 1515.05 36.3852 1532.73C22.7829 1542.24 15.6254 1546.01 2.86639 1555.67C2.86639 1555.67 52.2937 1501 38.5202 1482.63C24.3076 1463.68 -23.565 1552.18 -25.3606 1576.85C-34.8001 1583.9 -43.8686 1591.44 -52.5291 1599.43C-42.6178 1579.19 -18.9651 1535.37 -29.925 1520.75C-34.327 1514.88 -42.5859 1517.03 -47.5618 1520.76C-70.6887 1538.11 -77.2299 1622.37 -77.2299 1622.37C-85.2468 1630.52 -92.7868 1639.12 -99.8148 1648.13C-99.8148 1648.13 -69.4082 1578.62 -98.4713 1569.7C-127.213 1560.88 -127.752 1648.08 -116.05 1673.54C-118.017 1677.23 -139.623 1727.71 -147.823 1745.87C-147.773 1745.47 -146.759 1729.64 -146.759 1729.64C-146.759 1729.64 -137.921 1642.27 -170.009 1645.68C-198.175 1648.69 -185.158 1740.19 -160.532 1773.04C-168.922 1797.66 -167.952 1807.26 -167.952 1807.26C-167.797 1809.14 -167.192 1810.96 -166.191 1812.55C-164.882 1814.38 -163.263 1814.77 -159.842 1812.2Z" fill="url(#paint33_linear_1950_925)"/>
</g>
</g>
<defs>
<linearGradient id="paint0_linear_1950_925" x1="918.847" y1="352.209" x2="1270.6" y2="112.881" gradientUnits="userSpaceOnUse">
<stop stop-color="white"/>
<stop offset="1" stop-color="#2E2168"/>
</linearGradient>
<linearGradient id="paint1_linear_1950_925" x1="934.506" y1="565.863" x2="1747.14" y2="1474.92" gradientUnits="userSpaceOnUse">
<stop stop-color="#4E2F81"/>
<stop offset="0.37" stop-color="#482F81"/>
<stop offset="1" stop-color="#271355"/>
</linearGradient>
<linearGradient id="paint2_linear_1950_925" x1="330.579" y1="393.312" x2="589.32" y2="1548.6" gradientUnits="userSpaceOnUse">
<stop stop-color="#674297"/>
<stop offset="0.345" stop-color="#372269"/>
<stop offset="0.73" stop-color="#2A1657"/>
</linearGradient>
<radialGradient id="paint3_radial_1950_925" cx="0" cy="0" r="1" gradientUnits="userSpaceOnUse" gradientTransform="translate(-470.004 1620.19) rotate(2.63722) scale(2095.66 2096.29)">
<stop stop-color="#6633CC"/>
<stop offset="0.371069" stop-color="#A968A9"/>
<stop offset="0.790132" stop-color="#6633CC"/>
</radialGradient>
<linearGradient id="paint4_linear_1950_925" x1="623.437" y1="-401.594" x2="1162.64" y2="1989.97" gradientUnits="userSpaceOnUse">
<stop stop-color="#6633CC"/>
<stop offset="1"/>
</linearGradient>
<linearGradient id="paint5_linear_1950_925" x1="44.4758" y1="1144.41" x2="791.135" y2="1575.79" gradientUnits="userSpaceOnUse">
<stop stop-color="#45256E"/>
<stop offset="0.37" stop-color="#2B1956"/>
<stop offset="1" stop-color="#1D0D41"/>
</linearGradient>
<linearGradient id="paint6_linear_1950_925" x1="525.968" y1="1318.23" x2="1020.78" y2="2219.04" gradientUnits="userSpaceOnUse">
<stop stop-color="#331559"/>
<stop offset="0.175831" stop-color="#23114C"/>
<stop offset="0.435202" stop-color="#0F0526"/>
</linearGradient>
<linearGradient id="paint7_linear_1950_925" x1="-43.9978" y1="583.067" x2="108.561" y2="1074.8" gradientUnits="userSpaceOnUse">
<stop stop-color="#6633CC"/>
<stop offset="1" stop-color="#F5C144"/>
</linearGradient>
<linearGradient id="paint8_linear_1950_925" x1="-43.9978" y1="583.067" x2="108.561" y2="1074.8" gradientUnits="userSpaceOnUse">
<stop stop-color="#6633CC"/>
<stop offset="1" stop-color="#F5C144"/>
</linearGradient>
<linearGradient id="paint9_linear_1950_925" x1="-43.9978" y1="583.067" x2="108.561" y2="1074.8" gradientUnits="userSpaceOnUse">
<stop stop-color="#6633CC"/>
<stop offset="1" stop-color="#F5C144"/>
</linearGradient>
<linearGradient id="paint10_linear_1950_925" x1="568.554" y1="1414.91" x2="975.094" y2="1705.04" gradientUnits="userSpaceOnUse">
<stop/>
<stop offset="0.60345" stop-color="#6633CC"/>
<stop offset="1" stop-color="#FF9CAA"/>
</linearGradient>
<linearGradient id="paint11_linear_1950_925" x1="745.728" y1="1888.7" x2="1073.88" y2="1507.39" gradientUnits="userSpaceOnUse">
<stop stop-color="#F7717C"/>
<stop offset="1" stop-color="#6633CC"/>
</linearGradient>
<linearGradient id="paint12_linear_1950_925" x1="1099.85" y1="1357.06" x2="882.356" y2="1623.47" gradientUnits="userSpaceOnUse">
<stop/>
<stop offset="0.60345" stop-color="#6633CC"/>
<stop offset="1" stop-color="#FF9CAA"/>
</linearGradient>
<linearGradient id="paint13_linear_1950_925" x1="1003.02" y1="1388.97" x2="908.918" y2="1630.3" gradientUnits="userSpaceOnUse">
<stop/>
<stop offset="0.60345" stop-color="#6633CC"/>
<stop offset="1" stop-color="#FF9CAA"/>
</linearGradient>
<radialGradient id="paint14_radial_1950_925" cx="0" cy="0" r="1" gradientUnits="userSpaceOnUse" gradientTransform="translate(677.05 1676.19) rotate(-4.75184) scale(1509.5 1497.27)">
<stop stop-color="#8C548B"/>
<stop offset="0.107383" stop-color="#4F26A1"/>
<stop offset="0.772634"/>
</radialGradient>
<linearGradient id="paint15_linear_1950_925" x1="-8.18252" y1="-518.286" x2="-358.193" y2="2845.56" gradientUnits="userSpaceOnUse">
<stop stop-color="#6633CC"/>
<stop offset="0.567593"/>
</linearGradient>
<linearGradient id="paint16_linear_1950_925" x1="266.242" y1="1953.64" x2="252.829" y2="1774.16" gradientUnits="userSpaceOnUse">
<stop/>
<stop offset="1" stop-opacity="0"/>
</linearGradient>
<linearGradient id="paint17_linear_1950_925" x1="277.025" y1="1917.35" x2="279.841" y2="1759.38" gradientUnits="userSpaceOnUse">
<stop/>
<stop offset="1" stop-opacity="0"/>
</linearGradient>
<radialGradient id="paint18_radial_1950_925" cx="0" cy="0" r="1" gradientUnits="userSpaceOnUse" gradientTransform="translate(240.946 212.294) rotate(-37.0522) scale(495.25 495.316)">
<stop stop-color="#FF9CAA"/>
<stop offset="0.396043" stop-color="#6633CC"/>
<stop offset="1"/>
</radialGradient>
<linearGradient id="paint19_linear_1950_925" x1="1205.71" y1="-259.588" x2="962.093" y2="265.488" gradientUnits="userSpaceOnUse">
<stop/>
<stop offset="1" stop-color="#6633CC"/>
</linearGradient>
<linearGradient id="paint20_linear_1950_925" x1="166.585" y1="1582.09" x2="520.315" y2="1688.06" gradientUnits="userSpaceOnUse">
<stop/>
<stop offset="0.488319" stop-color="#321964"/>
<stop offset="1" stop-color="#6633CC"/>
</linearGradient>
<linearGradient id="paint21_linear_1950_925" x1="742.67" y1="1796.8" x2="370.858" y2="1738.73" gradientUnits="userSpaceOnUse">
<stop/>
<stop offset="1" stop-color="#6633CC"/>
</linearGradient>
<linearGradient id="paint22_linear_1950_925" x1="285.591" y1="1907.92" x2="312.533" y2="1907.92" gradientUnits="userSpaceOnUse">
<stop stop-color="#7A5641"/>
<stop offset="1" stop-color="#3D271B"/>
</linearGradient>
<linearGradient id="paint23_linear_1950_925" x1="262.342" y1="1903.15" x2="293.769" y2="1903.15" gradientUnits="userSpaceOnUse">
<stop stop-color="#7A5641"/>
<stop offset="1" stop-color="#3D271B"/>
</linearGradient>
<linearGradient id="paint24_linear_1950_925" x1="-68.4458" y1="1714.72" x2="-513.777" y2="2312.3" gradientUnits="userSpaceOnUse">
<stop stop-color="#763EC9"/>
<stop offset="0.376032" stop-color="#4A2593"/>
<stop offset="1" stop-color="#1F0F44"/>
</linearGradient>
<linearGradient id="paint25_linear_1950_925" x1="927.643" y1="-50.5369" x2="823.343" y2="469.913" gradientUnits="userSpaceOnUse">
<stop/>
<stop offset="0.60345" stop-color="#6633CC"/>
<stop offset="1" stop-color="#FF9CAA"/>
</linearGradient>
<linearGradient id="paint26_linear_1950_925" x1="963.151" y1="-91.9845" x2="1395.19" y2="1879.01" gradientUnits="userSpaceOnUse">
<stop stop-color="#6633CC"/>
<stop offset="0.582926" stop-color="#1B0E33"/>
</linearGradient>
<linearGradient id="paint27_linear_1950_925" x1="1221.1" y1="-236.842" x2="856.216" y2="650.584" gradientUnits="userSpaceOnUse">
<stop/>
<stop offset="0.60345" stop-color="#6633CC"/>
<stop offset="1" stop-color="#FF9CAA"/>
</linearGradient>
<linearGradient id="paint28_linear_1950_925" x1="1162.42" y1="1855.39" x2="1509.78" y2="1409.98" gradientUnits="userSpaceOnUse">
<stop/>
<stop offset="0.60345" stop-color="#6633CC"/>
<stop offset="1" stop-color="#FF9CAA"/>
</linearGradient>
<linearGradient id="paint29_linear_1950_925" x1="1269.26" y1="1702.65" x2="1013.41" y2="1447.42" gradientUnits="userSpaceOnUse">
<stop/>
<stop offset="0.60345" stop-color="#6633CC"/>
<stop offset="1" stop-color="#FF9CAA"/>
</linearGradient>
<linearGradient id="paint30_linear_1950_925" x1="1160.63" y1="1740" x2="683.584" y2="1787.5" gradientUnits="userSpaceOnUse">
<stop/>
<stop offset="0.60345" stop-color="#4D2899"/>
<stop offset="1" stop-color="#FF9CAA"/>
</linearGradient>
<linearGradient id="paint31_linear_1950_925" x1="1017.55" y1="1829.17" x2="1019.24" y2="1453.96" gradientUnits="userSpaceOnUse">
<stop/>
<stop offset="0.60345" stop-color="#6633CC"/>
<stop offset="1" stop-color="#FF9CAA"/>
</linearGradient>
<linearGradient id="paint32_linear_1950_925" x1="-910.262" y1="1683.63" x2="1124.18" y2="3320.95" gradientUnits="userSpaceOnUse">
<stop offset="0.474817" stop-color="#2B0B44"/>
<stop offset="0.680794" stop-color="#1E0C48"/>
<stop offset="1" stop-color="#0A031B"/>
</linearGradient>
<linearGradient id="paint33_linear_1950_925" x1="-286.228" y1="1739.48" x2="62.2778" y2="1500.49" gradientUnits="userSpaceOnUse">
<stop/>
<stop offset="0.60345" stop-color="#6633CC"/>
<stop offset="1" stop-color="#FF9CAA"/>
</linearGradient>
<clipPath id="clip0_1950_925">
<rect width="1125" height="2436" fill="white"/>
</clipPath>
<clipPath id="clip1_1950_925">
<rect width="1370.25" height="2436" fill="white" transform="translate(-123)"/>
</clipPath>
</defs>
</svg>
