<svg width="37" height="37" viewBox="0 0 37 37" fill="none" xmlns="http://www.w3.org/2000/svg">
<circle cx="18.5" cy="18.5" r="18.5" fill="#F5C144"/>
<path d="M10.05 18H12.9C12.8 17.3667 12.6083 16.775 12.325 16.225C12.0417 15.675 11.6833 15.1833 11.25 14.75C10.95 15.2333 10.6958 15.7458 10.4875 16.2875C10.2792 16.8292 10.1333 17.4 10.05 18ZM23.1 18H25.95C25.8667 17.4 25.7208 16.8292 25.5125 16.2875C25.3042 15.7458 25.05 15.2333 24.75 14.75C24.3167 15.1833 23.9583 15.675 23.675 16.225C23.3917 16.775 23.2 17.3667 23.1 18ZM11.25 23.25C11.6833 22.8167 12.0417 22.325 12.325 21.775C12.6083 21.225 12.8 20.6333 12.9 20H10.05C10.1333 20.6 10.2792 21.1708 10.4875 21.7125C10.6958 22.2542 10.95 22.7667 11.25 23.25ZM24.75 23.25C25.05 22.7667 25.3042 22.2542 25.5125 21.7125C25.7208 21.1708 25.8667 20.6 25.95 20H23.1C23.2 20.6333 23.3917 21.225 23.675 21.775C23.9583 22.325 24.3167 22.8167 24.75 23.25ZM14.95 18H17V11.05C16.1167 11.1833 15.2958 11.4292 14.5375 11.7875C13.7792 12.1458 13.1 12.6167 12.5 13.2C13.15 13.8333 13.6875 14.5542 14.1125 15.3625C14.5375 16.1708 14.8167 17.05 14.95 18ZM19 18H21.05C21.1833 17.05 21.4625 16.1708 21.8875 15.3625C22.3125 14.5542 22.85 13.8333 23.5 13.2C22.9 12.6167 22.2208 12.1458 21.4625 11.7875C20.7042 11.4292 19.8833 11.1833 19 11.05V18ZM17 26.95V20H14.95C14.8167 20.95 14.5375 21.8292 14.1125 22.6375C13.6875 23.4458 13.15 24.1667 12.5 24.8C13.1 25.3833 13.7792 25.8542 14.5375 26.2125C15.2958 26.5708 16.1167 26.8167 17 26.95ZM19 26.95C19.8833 26.8167 20.7042 26.5708 21.4625 26.2125C22.2208 25.8542 22.9 25.3833 23.5 24.8C22.85 24.1667 22.3125 23.4458 21.8875 22.6375C21.4625 21.8292 21.1833 20.95 21.05 20H19V26.95ZM18 29C16.6167 29 15.3167 28.7375 14.1 28.2125C12.8833 27.6875 11.825 26.975 10.925 26.075C10.025 25.175 9.3125 24.1167 8.7875 22.9C8.2625 21.6833 8 20.3833 8 19C8 17.6167 8.2625 16.3167 8.7875 15.1C9.3125 13.8833 10.025 12.825 10.925 11.925C11.825 11.025 12.8833 10.3125 14.1 9.7875C15.3167 9.2625 16.6167 9 18 9C19.3833 9 20.6833 9.2625 21.9 9.7875C23.1167 10.3125 24.175 11.025 25.075 11.925C25.975 12.825 26.6875 13.8833 27.2125 15.1C27.7375 16.3167 28 17.6167 28 19C28 20.3833 27.7375 21.6833 27.2125 22.9C26.6875 24.1167 25.975 25.175 25.075 26.075C24.175 26.975 23.1167 27.6875 21.9 28.2125C20.6833 28.7375 19.3833 29 18 29Z" fill="black"/>
</svg>
