<svg width="274" height="274" viewBox="0 0 274 274" fill="none" xmlns="http://www.w3.org/2000/svg">
<path d="M274 137C274 167.773 263.64 197.649 244.588 221.816C225.537 245.982 198.905 263.031 168.982 270.215C139.059 277.398 107.59 274.299 79.6436 261.416C51.6975 248.532 28.9027 226.615 14.9321 199.197C0.961555 171.778 -3.37106 140.454 2.63241 110.273C8.63588 80.0911 24.6258 52.8097 48.0256 32.8244C71.4254 12.8391 100.872 1.31376 131.621 0.105623C162.37 -1.10252 192.631 8.07687 217.527 26.1647L185.316 70.4988C170.379 59.6461 152.222 54.1385 133.773 54.8634C115.323 55.5883 97.6552 62.5034 83.6154 74.4946C69.5755 86.4858 59.9815 102.855 56.3794 120.964C52.7774 139.072 55.3769 157.867 63.7593 174.318C72.1416 190.769 85.8185 203.919 102.586 211.649C119.354 219.379 138.236 221.239 156.189 216.929C174.143 212.619 190.122 202.389 201.553 187.89C212.984 173.39 219.2 155.464 219.2 137H274Z" fill="#110C24"/>
<path d="M217.527 26.1647C235.018 38.8726 249.253 55.5397 259.068 74.8033C268.883 94.0669 274 115.38 274 137L219.2 137C219.2 124.028 216.13 111.24 210.241 99.682C204.352 88.1238 195.811 78.1236 185.316 70.4988L217.527 26.1647Z" fill="#9D4BAD"/>
</svg>
