<svg width="44" height="44" viewBox="0 0 44 44" fill="none" xmlns="http://www.w3.org/2000/svg">
<circle cx="22" cy="22" r="22" fill="#110C24"/>
<path d="M21.0249 31.9498C18.4582 31.6998 16.3166 30.6248 14.5999 28.7248C12.8832 26.8248 12.0249 24.5831 12.0249 21.9998C12.0249 19.4165 12.8832 17.1748 14.5999 15.2748C16.3166 13.3748 18.4582 12.2998 21.0249 12.0498V15.0498C19.2916 15.2831 17.8582 16.0581 16.7249 17.3748C15.5916 18.6915 15.0249 20.2331 15.0249 21.9998C15.0249 23.7665 15.5916 25.3081 16.7249 26.6248C17.8582 27.9415 19.2916 28.7165 21.0249 28.9498V31.9498ZM23.0249 31.9498V28.9498C24.5916 28.7498 25.9166 28.0998 26.9999 26.9998C28.0832 25.8998 28.7416 24.5665 28.9749 22.9998H31.9749C31.7416 25.3831 30.7874 27.4123 29.1124 29.0873C27.4374 30.7623 25.4082 31.7165 23.0249 31.9498ZM28.9749 20.9998C28.7416 19.4331 28.0832 18.0998 26.9999 16.9998C25.9166 15.8998 24.5916 15.2498 23.0249 15.0498V12.0498C25.4082 12.2831 27.4374 13.2373 29.1124 14.9123C30.7874 16.5873 31.7416 18.6165 31.9749 20.9998H28.9749Z" fill="#F5C144"/>
</svg>
