<svg width="44" height="44" viewBox="0 0 44 44" fill="none" xmlns="http://www.w3.org/2000/svg">
<circle cx="22" cy="22" r="22" fill="#110C24"/>
<path d="M11.05 31V28.2C11.05 27.65 11.1917 27.1333 11.475 26.65C11.7584 26.1667 12.15 25.8 12.65 25.55C13.5 25.1167 14.4584 24.75 15.525 24.45C16.5917 24.15 17.7667 24 19.05 24C20.3334 24 21.5084 24.15 22.575 24.45C23.6417 24.75 24.6 25.1167 25.45 25.55C25.95 25.8 26.3417 26.1667 26.625 26.65C26.9084 27.1333 27.05 27.65 27.05 28.2V31H11.05ZM13.05 29H25.05V28.2C25.05 28.0167 25.0042 27.85 24.9125 27.7C24.8209 27.55 24.7 27.4333 24.55 27.35C23.95 27.05 23.1792 26.75 22.2375 26.45C21.2959 26.15 20.2334 26 19.05 26C17.8667 26 16.8042 26.15 15.8625 26.45C14.9209 26.75 14.15 27.05 13.55 27.35C13.4 27.4333 13.2792 27.55 13.1875 27.7C13.0959 27.85 13.05 28.0167 13.05 28.2V29ZM19.05 23C17.95 23 17.0084 22.6083 16.225 21.825C15.4417 21.0417 15.05 20.1 15.05 19H14.8C14.65 19 14.5292 18.9542 14.4375 18.8625C14.3459 18.7708 14.3 18.65 14.3 18.5C14.3 18.35 14.3459 18.2292 14.4375 18.1375C14.5292 18.0458 14.65 18 14.8 18H15.05C15.05 17.25 15.2334 16.575 15.6 15.975C15.9667 15.375 16.45 14.9 17.05 14.55V15.5C17.05 15.65 17.0959 15.7708 17.1875 15.8625C17.2792 15.9542 17.4 16 17.55 16C17.7 16 17.8209 15.9542 17.9125 15.8625C18.0042 15.7708 18.05 15.65 18.05 15.5V14.15C18.2 14.1 18.3584 14.0625 18.525 14.0375C18.6917 14.0125 18.8667 14 19.05 14C19.2334 14 19.4084 14.0125 19.575 14.0375C19.7417 14.0625 19.9 14.1 20.05 14.15V15.5C20.05 15.65 20.0959 15.7708 20.1875 15.8625C20.2792 15.9542 20.4 16 20.55 16C20.7 16 20.8209 15.9542 20.9125 15.8625C21.0042 15.7708 21.05 15.65 21.05 15.5V14.55C21.65 14.9 22.1334 15.375 22.5 15.975C22.8667 16.575 23.05 17.25 23.05 18H23.3C23.45 18 23.5709 18.0458 23.6625 18.1375C23.7542 18.2292 23.8 18.35 23.8 18.5C23.8 18.65 23.7542 18.7708 23.6625 18.8625C23.5709 18.9542 23.45 19 23.3 19H23.05C23.05 20.1 22.6584 21.0417 21.875 21.825C21.0917 22.6083 20.15 23 19.05 23ZM19.05 21C19.6 21 20.0709 20.8042 20.4625 20.4125C20.8542 20.0208 21.05 19.55 21.05 19H17.05C17.05 19.55 17.2459 20.0208 17.6375 20.4125C18.0292 20.8042 18.5 21 19.05 21ZM26.55 25L26.4 24.25C26.3 24.2167 26.2042 24.1792 26.1125 24.1375C26.0209 24.0958 25.9334 24.0333 25.85 23.95L25.15 24.2L24.65 23.3L25.2 22.8V22.2L24.65 21.7L25.15 20.8L25.85 21.05C25.9167 20.9833 26 20.925 26.1 20.875C26.2 20.825 26.3 20.7833 26.4 20.75L26.55 20H27.55L27.7 20.75C27.8 20.7833 27.9 20.825 28 20.875C28.1 20.925 28.1834 20.9833 28.25 21.05L28.95 20.8L29.45 21.7L28.9 22.2V22.8L29.45 23.3L28.95 24.2L28.25 23.95C28.1667 24.0333 28.0792 24.0958 27.9875 24.1375C27.8959 24.1792 27.8 24.2167 27.7 24.25L27.55 25H26.55ZM27.05 23.25C27.25 23.25 27.425 23.175 27.575 23.025C27.725 22.875 27.8 22.7 27.8 22.5C27.8 22.3 27.725 22.125 27.575 21.975C27.425 21.825 27.25 21.75 27.05 21.75C26.85 21.75 26.675 21.825 26.525 21.975C26.375 22.125 26.3 22.3 26.3 22.5C26.3 22.7 26.375 22.875 26.525 23.025C26.675 23.175 26.85 23.25 27.05 23.25ZM28.85 20L28.65 18.95C28.5 18.9 28.3625 18.8375 28.2375 18.7625C28.1125 18.6875 28 18.6 27.9 18.5L26.85 18.85L26.15 17.65L27 16.9C26.9667 16.8167 26.95 16.75 26.95 16.7V16.3C26.95 16.25 26.9667 16.1833 27 16.1L26.15 15.35L26.85 14.15L27.9 14.5C28 14.4 28.1125 14.3125 28.2375 14.2375C28.3625 14.1625 28.5 14.1 28.65 14.05L28.85 13H30.25L30.45 14.05C30.6 14.1 30.7375 14.1625 30.8625 14.2375C30.9875 14.3125 31.1 14.4 31.2 14.5L32.25 14.15L32.95 15.35L32.1 16.1C32.1334 16.1833 32.15 16.25 32.15 16.3V16.7C32.15 16.75 32.1334 16.8167 32.1 16.9L32.95 17.65L32.25 18.85L31.2 18.5C31.1 18.6 30.9875 18.6875 30.8625 18.7625C30.7375 18.8375 30.6 18.9 30.45 18.95L30.25 20H28.85ZM29.55 17.75C29.9 17.75 30.1959 17.6292 30.4375 17.3875C30.6792 17.1458 30.8 16.85 30.8 16.5C30.8 16.15 30.6792 15.8542 30.4375 15.6125C30.1959 15.3708 29.9 15.25 29.55 15.25C29.2 15.25 28.9042 15.3708 28.6625 15.6125C28.4209 15.8542 28.3 16.15 28.3 16.5C28.3 16.85 28.4209 17.1458 28.6625 17.3875C28.9042 17.6292 29.2 17.75 29.55 17.75Z" fill="#F5C144"/>
</svg>
