<svg width="66" height="90" viewBox="0 0 66 90" fill="none" xmlns="http://www.w3.org/2000/svg">
<path d="M32.9993 90C31.0269 90 29.2441 89.531 27.6509 88.5938C26.0576 87.6565 24.8061 86.4 23.8956 84.8249C21.3919 84.8249 19.2493 83.9439 17.4664 82.1813C15.6836 80.4188 14.7925 78.2998 14.7925 75.8252V59.8501C10.3164 56.925 6.73199 53.0627 4.03932 48.2625C1.34599 43.4623 0 38.2501 0 32.6252C0 23.55 3.2052 15.844 9.61559 9.50639C16.026 3.1688 23.8206 0 33 0C42.1794 0 49.974 3.1688 56.3844 9.50639C62.7948 15.844 66 23.55 66 32.6252C66 38.4004 64.6533 43.6504 61.9607 48.3751C59.2673 53.0998 55.6829 56.925 51.2074 59.8501V75.8252C51.2074 78.3005 50.3164 80.4188 48.5335 82.1813C46.7507 83.9439 44.6074 84.8249 42.1044 84.8249C41.1939 86.4 39.9424 87.6559 38.3491 88.5938C36.7559 89.531 34.9731 90 33.0007 90H32.9993ZM23.8956 75.8252H42.1024V71.7755H23.8956V75.8252ZM23.8956 67.2753H42.1024V63.0003H23.8956V67.2753ZM22.9851 54H29.5851V41.8501L19.5715 31.9502L24.3505 27.2255L32.9987 35.7755L41.6468 27.2255L46.4258 31.9502L36.4122 41.8501V54H43.0122C47.1085 52.05 50.447 49.1812 53.0258 45.3938C55.6045 41.6063 56.8949 37.3499 56.8949 32.6252C56.8949 26.0253 54.5808 20.4375 49.9532 15.8625C45.3257 11.2875 39.6737 8.99967 32.998 8.99967C26.3223 8.99967 20.6703 11.2875 16.0427 15.8625C11.4152 20.4375 9.10105 26.0253 9.10105 32.6252C9.10105 37.3499 10.3908 41.6063 12.9702 45.3938C15.5496 49.1812 18.8875 52.05 22.9838 54H22.9851Z" fill="url(#paint0_linear_333_812)"/>
<defs>
<linearGradient id="paint0_linear_333_812" x1="-11.9258" y1="-12.6845" x2="60.3646" y2="51.1774" gradientUnits="userSpaceOnUse">
<stop stop-color="#6633CC"/>
<stop offset="1" stop-color="#F5C144"/>
</linearGradient>
</defs>
</svg>
