<svg width="298" height="263" viewBox="0 0 298 263" fill="none" xmlns="http://www.w3.org/2000/svg">
<path opacity="0.1" d="M297.347 0.447713C288.894 22.9418 276.197 38.5192 261.032 50.1408C283.631 25.01 261.54 7.87143 261.54 7.87143C242.461 35.0679 257.457 50.4066 258.879 51.7771C251.402 57.2268 243.404 61.8255 234.903 65.5961C257.224 40.5634 235.266 23.4972 235.266 23.4972C217.302 49.1026 229.303 63.8876 232.021 66.7558C222.146 70.9137 211.805 74.2878 201.128 77.0794C219.943 55.5043 201.146 40.8318 201.146 40.8318C186.515 61.6879 194.659 74.2844 197.773 77.9463C189.233 80.09 180.562 81.9283 171.841 83.7288C191.304 59.7865 170.674 43.6564 170.674 43.6564C155.791 64.8728 161.815 79.1131 165.865 85.0093C155.984 87.0255 146.326 89.3415 136.645 91.6055C156.6 63.9739 130.203 49.8912 130.203 49.8912C115.885 73.7328 124.731 87.5744 130.214 93.1286C117.91 96.2115 105.928 99.7772 94.8327 104.627C112.642 73.0062 83.5065 63.4105 83.5065 63.4105C71.4566 91.5941 84.7684 103.003 90.392 106.477C81.1708 110.867 72.6351 116.359 64.8907 122.988C79.9698 93.2418 52.3576 83.9933 52.3576 83.9933C39.6877 113.6 54.9156 124.738 59.8643 127.515C51.8402 135.215 45.3194 143.134 40.0669 151.205C47.0895 130.124 26.5943 123.532 26.5943 123.532C14.7048 151.361 31.7118 160.295 34.0467 161.389C22.6503 183.182 19.7411 204.583 19.9377 222.322C15.2617 208.228 0.279371 213.382 0.279371 213.382C3.13525 236.514 17.2986 234.933 20.2677 234.36C21.8563 251.453 25.9459 262.688 25.9459 262.688L28.3574 251.058C28.1467 250.068 28.0686 249.15 27.8675 248.168C42.226 252.339 47.2236 235.963 47.2236 235.963C36.0688 232.832 30.0049 237.468 26.7028 241.553C24.7944 228.991 24.7216 217.537 25.7644 207.178C40.3636 230.178 58.3537 211.291 58.3537 211.291C41.9411 193.125 27.6724 204.206 25.8018 205.789C27.07 194.289 29.8033 184.515 32.9851 176.013C43.6779 202.272 65.7727 187.748 65.7727 187.748C54.4085 167.113 39.9589 170.027 34.3472 172.091C38.822 161.216 43.3964 154.063 46.9463 149.239C60.0787 179.775 86.3844 162.622 86.3844 162.622C75.0359 142.022 60.9047 140.87 52.4154 142.472C65.2172 130.359 73.0108 122.683 81.0116 116.928C93.6927 151.232 121.606 132.8 121.606 132.8C110.324 112.317 96.2726 111.049 87.7688 112.61C100 105.667 120.368 100.165 156.276 91.4287C158.057 129.198 186.138 118.882 186.138 118.882C180.601 92.1794 165.782 90.2271 159.432 90.6553C169.629 88.1833 176.723 86.4412 190.316 83.1239C203.978 79.7912 215.875 76.0273 226.278 71.9399C228.059 109.709 256.152 99.329 256.152 99.329C249.601 67.7068 230.22 70.8465 227.306 71.4784C298.832 42.9116 297.347 0.447713 297.347 0.447713ZM266.723 58.9808C256.653 56.4137 249.004 62.3309 249.004 62.3309C262.798 96.7738 286.288 75.8185 286.288 75.8185C279.662 65.1388 272.763 60.5215 266.723 58.9808ZM204.007 83.7017C198.27 81.3703 193.287 82.7129 193.287 82.7129C194.683 116.028 219.303 106.946 219.303 106.946C216.224 92.0808 209.744 86.032 204.007 83.7017ZM134.292 100.254C126.311 98.3721 119.971 100.749 119.971 100.749C126.983 139.977 158.231 125.405 158.231 125.405C151.84 108.278 142.263 102.132 134.292 100.254ZM6.69703 168.689C-0.138705 197.278 19.9395 200.838 19.9395 200.838C32.5174 171.125 6.69703 168.689 6.69703 168.689Z" fill="#110C24"/>
</svg>
