<svg width="32" height="4" viewBox="0 0 32 4" fill="none" xmlns="http://www.w3.org/2000/svg">
<g clip-path="url(#clip0_1152_123)">
<path d="M16 -14C16.2709 -14 16.5306 -13.8924 16.7222 -13.7009C16.9137 -13.5093 17.0213 -13.2496 17.0213 -12.9787L17.0213 0.978724L30.9787 0.978724C31.2496 0.978724 31.5093 1.08632 31.7009 1.27785C31.8924 1.46937 32 1.72914 32 2C32 2.27086 31.8924 2.53063 31.7009 2.72215C31.5093 2.91368 31.2496 3.02128 30.9787 3.02128L17.0213 3.02128L17.0213 16.9787C17.0213 17.2496 16.9137 17.5093 16.7222 17.7009C16.5306 17.8924 16.2709 18 16 18C15.7291 18 15.4694 17.8924 15.2778 17.7009C15.0863 17.5093 14.9787 17.2496 14.9787 16.9787L14.9787 3.02128L1.02128 3.02128C0.750417 3.02128 0.490652 2.91368 0.299125 2.72215C0.107599 2.53063 1.87568e-07 2.27086 1.90798e-07 2C1.94028e-07 1.72914 0.107599 1.46937 0.299125 1.27785C0.490652 1.08632 0.750417 0.978724 1.02128 0.978724L14.9787 0.978724L14.9787 -12.9787C14.9787 -13.2496 15.0863 -13.5093 15.2778 -13.7009C15.4694 -13.8924 15.7291 -14 16 -14Z" fill="#FCF7FF"/>
</g>
<defs>
<clipPath id="clip0_1152_123">
<rect width="2.04255" height="32" fill="white" transform="translate(0 3.02051) rotate(-90)"/>
</clipPath>
</defs>
</svg>
