<svg width="4" height="32" viewBox="0 0 4 32" fill="none" xmlns="http://www.w3.org/2000/svg">
<g clip-path="url(#clip0_1150_110)">
<path d="M18 16C18 16.2709 17.8924 16.5306 17.7009 16.7222C17.5093 16.9137 17.2496 17.0213 16.9787 17.0213H3.02128V30.9787C3.02128 31.2496 2.91368 31.5093 2.72215 31.7009C2.53063 31.8924 2.27086 32 2 32C1.72914 32 1.46937 31.8924 1.27785 31.7009C1.08632 31.5093 0.978723 31.2496 0.978723 30.9787V17.0213H-12.9787C-13.2496 17.0213 -13.5093 16.9137 -13.7009 16.7222C-13.8924 16.5306 -14 16.2709 -14 16C-14 15.7291 -13.8924 15.4694 -13.7009 15.2778C-13.5093 15.0863 -13.2496 14.9787 -12.9787 14.9787H0.978723V1.02128C0.978723 0.750417 1.08632 0.490651 1.27785 0.299125C1.46937 0.107598 1.72914 0 2 0C2.27086 0 2.53063 0.107598 2.72215 0.299125C2.91368 0.490651 3.02128 0.750417 3.02128 1.02128V14.9787H16.9787C17.2496 14.9787 17.5093 15.0863 17.7009 15.2778C17.8924 15.4694 18 15.7291 18 16Z" fill="#FCF7FF"/>
</g>
<defs>
<clipPath id="clip0_1150_110">
<rect width="2.04255" height="32" fill="white" transform="translate(0.97876)"/>
</clipPath>
</defs>
</svg>
