<svg width="64" height="64" viewBox="0 0 64 64" fill="none" xmlns="http://www.w3.org/2000/svg">
<g clip-path="url(#clip0_233_873)">
<path d="M27.9251 0C30.4867 0 33.0483 0 35.61 0C36.034 0.128308 36.4496 0.307939 36.8822 0.374232C50.8062 2.53836 61.6396 13.5237 63.6358 27.505C63.6979 27.9369 63.8778 28.3518 64.002 28.7731V35.3809C63.8692 35.8001 63.6743 36.2085 63.6144 36.6362C61.3248 53.1067 46.0407 65.3109 29.4779 63.8867C11.4887 62.3384 -1.55719 46.7319 0.149851 28.8073C1.52062 14.4261 12.6196 2.64314 26.8991 0.391339C27.2525 0.335739 27.5824 0.134723 27.9251 0ZM29.54 27.6418C30.1654 27.2932 30.5424 27.0046 30.9686 26.8591C33.3653 26.0487 34.0785 24.402 33.7723 21.9685C33.6009 20.6084 33.2047 19.6247 31.9988 18.9318C29.3794 17.4264 26.7899 15.8696 24.1919 14.3277C22.9839 13.6113 21.7823 13.5964 20.5722 14.3085C17.8456 15.9145 15.1362 17.5483 12.3883 19.1158C11.2766 19.7509 10.7755 20.6041 10.7905 21.8808C10.829 25.0414 10.8354 28.2021 10.7883 31.3628C10.7669 32.7677 11.3302 33.7065 12.5382 34.393C15.1362 35.8664 17.73 37.3462 20.2702 38.9158C21.6495 39.7669 22.8618 39.7413 24.2433 38.9201C29.223 35.9583 34.2499 33.0757 39.2361 30.1246C40.4805 29.3889 41.6199 29.3847 42.8343 30.1353C44.1045 30.9201 45.3917 31.6771 46.7003 32.3956C47.8141 33.0072 48.341 33.9225 48.3431 35.1692C48.3431 36.803 48.3431 38.4368 48.3431 40.0706C48.3431 41.3216 47.7884 42.2262 46.6982 42.8506C45.3724 43.6098 44.0616 44.3988 42.7637 45.205C41.682 45.8765 40.6283 45.8551 39.5488 45.2157C38.2037 44.4202 36.8608 43.6119 35.49 42.8613C34.3377 42.2283 33.8023 41.2981 33.8387 39.9957C33.8644 39.0185 33.8429 38.0369 33.8429 36.8351C33.1897 37.2093 32.7656 37.5472 32.2837 37.7119C30.0134 38.4881 29.3387 40.0449 29.6021 42.3566C29.7606 43.7573 30.1611 44.7731 31.412 45.4809C34.0721 46.9864 36.7001 48.5496 39.3389 50.0914C40.5126 50.7779 41.7013 50.7886 42.8686 50.115C45.578 48.5539 48.266 46.9522 50.9819 45.3996C52.1213 44.7474 52.6246 43.8172 52.6139 42.517C52.5882 39.3221 52.5818 36.1251 52.6182 32.9281C52.6332 31.5338 52.0699 30.5779 50.8641 29.8936C48.236 28.4031 45.6166 26.8955 43.0357 25.3259C41.7292 24.5304 40.5554 24.5432 39.2489 25.3194C34.1449 28.3497 29.0046 31.32 23.8942 34.3374C22.7568 35.0088 21.6924 35.0003 20.5872 34.316C19.2271 33.4734 17.8671 32.6309 16.4877 31.8225C15.4318 31.2045 14.937 30.3149 14.9477 29.1045C14.9627 27.4707 14.9627 25.837 14.9477 24.2032C14.937 22.9885 15.4404 22.0946 16.4941 21.4873C17.8799 20.6897 19.2678 19.8942 20.6343 19.0602C21.763 18.3694 22.8361 18.4229 23.9391 19.1158C25.2628 19.9476 26.595 20.7688 27.9508 21.5493C29.0453 22.1823 29.5721 23.0869 29.5464 24.3464C29.525 25.3665 29.5422 26.3887 29.5422 27.644L29.54 27.6418Z" fill="#8D42EE"/>
</g>
<defs>
<clipPath id="clip0_233_873">
<rect width="64" height="64" fill="white"/>
</clipPath>
</defs>
</svg>
