<svg width="119" height="132" viewBox="0 0 119 132" fill="none" xmlns="http://www.w3.org/2000/svg">
<g clip-path="url(#clip0_337_819)">
<path d="M43.1598 60.2884C39.4217 58.3786 36.1618 56.6397 32.8281 55.056C31.8279 54.5806 30.631 54.4006 29.5072 54.3226C26.3905 54.1059 24.9775 55.3537 24.805 58.4528C24.6604 61.0413 23.9192 63.2923 21.3696 64.4006C18.6521 65.5823 16.1145 64.8377 13.8723 63.1341C11.0334 60.9768 10.6953 57.5207 12.933 54.7193C16.1688 50.6679 15.6543 48.0449 10.7615 45.8779C7.3307 44.3587 3.65582 43.3869 -0.000976562 42.1399C5.77609 28.4454 11.7204 14.3528 17.7746 0C18.6265 0.356177 19.3767 0.669613 20.1269 0.983049C32.7679 6.26347 45.3817 11.6099 58.0732 16.7651C60.4225 17.7196 61.2073 19.0011 60.3735 21.2012C59.0946 24.5762 58.0024 28.0975 56.1751 31.1696C54.3072 34.3107 51.9843 34.2732 49.1982 31.8257C46.7428 29.6684 44.206 29.2793 41.908 30.707C39.3757 32.2809 37.922 35.7812 38.6225 38.6156C39.2665 41.2221 41.3544 42.7278 44.5992 42.9272C48.0722 43.1402 49.5153 44.6241 49.0755 47.9812C48.4352 52.8619 46.0031 56.9156 43.159 60.2877L43.1598 60.2884ZM86.139 47.3701C83.1383 49.9548 81.3796 49.4284 79.5041 45.9694C78.0406 43.2692 75.1747 42.4713 72.5897 44.0887C70.7022 45.2697 69.4594 46.9044 69.5392 49.2244C69.616 51.48 71.0773 52.6932 73.0024 53.5788C75.2312 54.6046 75.7004 55.9963 74.6791 58.2331C74.426 58.7872 74.1496 59.3871 73.7195 59.795C71.3424 62.0498 68.9141 64.2514 66.5324 66.4439C69.4074 67.9406 72.2101 70.1129 74.1887 73.1693C75.9429 75.8785 75.4526 77.4959 72.6002 78.9056C70.4129 79.9869 69.3539 81.6493 69.5437 83.7039C69.7614 86.0629 71.969 88.4504 74.3816 88.9378C76.6397 89.3945 78.5053 88.2802 79.77 85.7202C80.9585 83.314 82.492 82.7636 84.8609 84.0248C85.7745 84.5115 86.6957 85.1173 87.3758 85.8792C89.2792 88.0103 91.059 90.2515 93 92.5843C95.8975 91.2098 98.4908 89.0968 100.555 86.3426C102.832 83.3042 102.426 81.5173 99.1024 79.7859C97.1185 78.7527 96.1581 77.1637 96.3314 75.2029C96.5438 72.8026 98.7657 70.4128 101.168 70.0012C103.439 69.6128 105.185 70.6543 106.43 73.14C107.632 75.5396 108.929 76.1979 111.117 75.1196C114.911 73.2488 117.307 70.0424 119.001 66.7506C116.344 64.4238 113.695 62.49 111.535 60.116C108.786 57.0941 109.289 55.1437 112.768 53.2069C114.819 52.0649 115.782 50.2322 115.405 48.1874C114.981 45.8831 112.68 43.6441 110.4 43.3156C108.337 43.0187 106.512 44.0415 105.434 46.0991C103.75 49.3129 102.045 49.9285 99.2139 47.6183C96.6372 45.5157 94.5395 42.832 92.4667 40.6522C90.5716 42.697 88.5696 45.2787 86.1413 47.3708L86.139 47.3701ZM49.4069 85.8042C45.726 85.1758 44.8236 83.7586 45.8909 80.2838C46.7767 77.3992 45.4435 74.8752 42.5542 74.1823C40.4641 73.6807 38.4425 73.9304 36.8736 75.5576C35.3529 77.1345 35.4553 78.9918 36.1588 80.9235C36.9926 83.2127 36.3561 84.5745 34.0408 85.3835C33.2017 85.6767 32.2738 85.9264 31.4023 85.8829C28.4377 85.7367 25.4806 85.451 22.3036 85.2013C21.1459 87.9315 21.0028 91.1424 21.3553 94.369C21.7719 98.1789 23.3581 99.1627 27.0202 98.1084C29.853 97.2926 32.1676 98.4661 32.9554 101.203C33.5753 103.356 33.3215 105.395 31.6253 107.013C30.0239 108.54 28.1786 108.369 26.2444 107.635C24.2725 106.888 22.9017 107.272 22.1688 109.022C20.462 113.099 21.1173 117.156 22.4294 121.27C26.2112 120.077 29.8274 119.563 33.4894 120.456C36.2612 121.132 37.0061 122.616 36.1166 125.224C35.2497 127.766 35.7249 129.744 37.5115 131.033C39.2929 132.316 42.5324 132.325 44.3408 131.052C46.0875 129.822 46.6004 127.713 45.7568 125.236C44.8681 122.627 45.5166 121.282 48.1641 120.535C49.193 120.245 50.3054 120.017 51.3584 120.085C54.0293 120.256 56.6881 120.609 59.5548 120.911C60.659 117.857 60.9971 114.496 60.3886 111.088C59.7679 107.607 58.2931 106.798 54.958 107.853C52.6637 108.579 50.7144 108 49.5349 106.244C48.2424 104.319 48.3388 101.256 49.7466 99.4732C51.0262 97.8527 52.9175 97.4823 55.4807 98.3499C57.906 99.1702 59.3521 98.5636 60.0639 96.1423C61.1809 92.3436 60.7222 88.5906 59.4463 84.7784C55.6238 85.8694 51.9037 86.2324 49.4069 85.8057V85.8042Z" fill="url(#paint0_linear_337_819)"/>
</g>
<defs>
<linearGradient id="paint0_linear_337_819" x1="-21.5039" y1="-18.6042" x2="84.9761" y2="97.035" gradientUnits="userSpaceOnUse">
<stop stop-color="#6633CC"/>
<stop offset="1" stop-color="#F5C144"/>
</linearGradient>
<clipPath id="clip0_337_819">
<rect width="119" height="132" fill="white"/>
</clipPath>
</defs>
</svg>
