<svg width="48" height="55" viewBox="0 0 48 55" fill="none" xmlns="http://www.w3.org/2000/svg">
<path d="M0.00280538 39.418C0.044886 39.343 0.100994 39.2707 0.126242 39.1904C0.684512 37.57 1.97499 36.6701 3.7564 36.6675C10.5061 36.6648 17.2531 36.6648 24.0028 36.6621C24.0028 41.5338 24.0028 46.4055 23.9972 51.2772C23.9972 53.5697 22.5075 54.9999 20.1174 54.9999C14.7114 54.9999 9.30544 54.9999 3.90228 54.9999C1.93852 54.9999 0.740619 54.175 0.100994 52.3886C0.0813559 52.3378 0.0336645 52.2976 0 52.2494C0 47.9722 0 43.6924 0 39.4153L0.00280538 39.418Z" fill="#FE5500"/>
<path d="M24.0056 18.3378C17.3541 18.3378 10.6997 18.3351 4.04816 18.3324C1.91327 18.3324 0.810758 17.5906 0.0953873 15.6756C0.0813604 15.6381 0.0364744 15.614 0.00561523 15.5819C0.00561523 11.3048 0.00561523 7.02498 0.00561523 2.74786C0.0673335 2.61662 0.143079 2.48807 0.193576 2.35148C0.580718 1.30162 1.32695 0.586531 2.41824 0.192832C2.60339 0.125877 2.79135 0.0642774 2.97651 0C8.99124 0 15.0088 0 21.0235 0C21.0319 0.0133911 21.0347 0.0374951 21.0459 0.0401734C23.2538 0.749903 24 1.74888 24 4.00127C24 8.77922 24.0028 13.5598 24.0056 18.3378Z" fill="#FE5500"/>
<path d="M23.9971 36.6737V18.3306C30.6851 18.3306 37.3703 18.3332 44.0583 18.3359C46.5242 18.3359 47.9999 19.742 47.9999 22.0935C47.9999 25.7144 47.9999 29.3354 47.9999 32.9563C47.9999 35.2462 46.5074 36.6684 44.106 36.6684C37.404 36.6684 30.6991 36.671 23.9971 36.6737Z" fill="#FE5500"/>
</svg>
