<svg width="35" height="32" viewBox="0 0 35 32" fill="none" xmlns="http://www.w3.org/2000/svg">
<mask id="mask0_233_968" style="mask-type:luminance" maskUnits="userSpaceOnUse" x="0" y="0" width="35" height="32">
<path d="M6.32216 23.861C6.17096 23.9282 6.03576 24.0258 5.92456 24.1482L0.15576 30.5002C0.0781597 30.5858 0.0269592 30.6914 0.00775923 30.805C-0.0106408 30.9186 0.00375913 31.0354 0.0501591 31.141C0.0965591 31.2466 0.17256 31.3362 0.26936 31.3994C0.36616 31.4626 0.478959 31.4962 0.594159 31.4962L27.6822 31.5186C27.8478 31.5186 28.011 31.4842 28.163 31.417C28.3142 31.3498 28.4502 31.2522 28.5614 31.1298L34.3302 24.7778C34.4078 24.6922 34.459 24.5866 34.4782 24.473C34.4966 24.3594 34.4822 24.2426 34.4358 24.137C34.3894 24.0314 34.3134 23.9418 34.2166 23.8786C34.1198 23.8154 34.007 23.7818 33.8918 23.7818L6.80296 23.7594C6.63736 23.7594 6.47416 23.7938 6.32296 23.861M0.594959 12.1386C0.479759 12.1386 0.366959 12.1722 0.270159 12.2354C0.173359 12.2986 0.0973587 12.3882 0.0509587 12.4938C0.00455869 12.5994 -0.0106412 12.7162 0.00855879 12.8298C0.0269588 12.9434 0.0781593 13.0498 0.156559 13.1346L5.92536 19.4898C6.03656 19.6122 6.17256 19.7098 6.32376 19.777C6.47496 19.8442 6.63896 19.8786 6.80456 19.8786L33.8926 19.8562C34.0078 19.8562 34.1206 19.8226 34.2174 19.7594C34.3142 19.6962 34.3902 19.6066 34.4366 19.501C34.483 19.3954 34.4982 19.2786 34.479 19.165C34.4606 19.0514 34.4094 18.945 34.331 18.8602L28.5622 12.505C28.451 12.3826 28.3158 12.285 28.1646 12.2178C28.0134 12.1506 27.8502 12.1162 27.6846 12.1162L0.59576 12.1386H0.594959ZM6.80216 0.480957C6.63656 0.480957 6.47336 0.515357 6.32216 0.582557C6.17096 0.649757 6.03576 0.747357 5.92456 0.869757L0.15576 7.22176C0.0781597 7.30736 0.0269592 7.41296 0.00775923 7.52656C-0.0106408 7.64016 0.00375913 7.75696 0.0501591 7.86256C0.0965591 7.96816 0.17256 8.05776 0.26936 8.12096C0.36616 8.18416 0.478959 8.21776 0.594159 8.21776L27.6822 8.24016C27.8478 8.24016 28.011 8.20576 28.163 8.13856C28.3142 8.07136 28.4502 7.97376 28.5614 7.85136L34.3302 1.49936C34.4078 1.41376 34.459 1.30816 34.4782 1.19456C34.4966 1.08096 34.4822 0.964157 34.4358 0.858557C34.3894 0.752957 34.3134 0.663357 34.2166 0.600157C34.1198 0.536957 34.007 0.503357 33.8918 0.503357L6.80296 0.480957H6.80216Z" fill="white"/>
</mask>
<g mask="url(#mask0_233_968)">
<path d="M17.2436 -16.7734L-15.5288 15.999L17.2436 48.7714L50.016 15.999L17.2436 -16.7734Z" fill="url(#paint0_linear_233_968)"/>
</g>
<defs>
<linearGradient id="paint0_linear_233_968" x1="0.8001" y1="32.2076" x2="33.1907" y2="-0.182977" gradientUnits="userSpaceOnUse">
<stop stop-color="#9945FF"/>
<stop offset="0.2" stop-color="#7962E7"/>
<stop offset="1" stop-color="#00D18C"/>
</linearGradient>
</defs>
</svg>
