<svg width="124" height="113" viewBox="0 0 124 113" fill="none" xmlns="http://www.w3.org/2000/svg">
<path fill-rule="evenodd" clip-rule="evenodd" d="M73.6345 11.6777C73.6345 5.65142 78.5408 0.748169 84.5702 0.748169C90.5995 0.748169 95.5059 5.65142 95.5059 11.6777C95.5059 17.704 90.5995 22.6062 84.5702 22.6062C78.5408 22.6062 73.6345 17.704 73.6345 11.6777ZM82.537 16.7142C81.6557 16.8909 80.3343 17.8331 79.4396 18.8569C80.8902 19.8963 82.6537 20.5234 84.5702 20.5234C86.4866 20.5234 88.2502 19.8963 89.7007 18.8569C88.806 17.8331 87.4846 16.8909 86.6055 16.7142C85.7676 16.5448 85.126 15.9456 84.9328 15.1521C84.8739 14.9166 84.8574 14.6025 84.8409 13.9403C84.8326 13.6107 84.9814 13.2966 85.2396 13.0941C85.7893 12.6643 86.2697 11.9732 86.5269 11.2438C86.6158 10.9886 86.7955 10.7871 87.0208 10.6673C87.0226 10.6589 87.0243 10.65 87.0259 10.6409C87.0271 10.6345 87.0282 10.6279 87.0293 10.6213C87.0318 10.6064 87.0343 10.5914 87.0373 10.5774C86.8586 10.3883 86.7501 10.1332 86.7501 9.85628C86.7542 8.63408 86.7563 7.59785 86.3172 7.1567C86.0279 6.86742 85.4452 6.71968 84.5846 6.71865C83.6951 6.71968 83.1124 6.86742 82.8242 7.1567C82.3841 7.59785 82.3861 8.63408 82.3903 9.83251C82.3903 10.1104 82.2818 10.3739 82.101 10.5691L82.1104 10.6191L82.1196 10.6683C82.3438 10.7882 82.5225 10.9876 82.6124 11.2417C82.8707 11.9721 83.3511 12.6643 83.9007 13.0941C84.159 13.2966 84.3078 13.6107 84.2995 13.9403C84.283 14.6025 84.2664 14.9166 84.2076 15.1532C84.0144 15.9456 83.3728 16.5448 82.537 16.7142ZM86.9619 14.6841C88.4713 14.9672 90.1625 16.2193 91.2422 17.425C92.5811 15.8743 93.421 13.8814 93.421 11.6777C93.421 6.80027 89.4497 2.83097 84.5702 2.83097C79.6907 2.83097 75.7193 6.80027 75.7193 11.6777C75.7193 13.8814 76.5593 15.8743 77.8982 17.425C78.9778 16.2193 80.6618 14.9651 82.1237 14.6717C82.1619 14.6035 82.1826 14.495 82.195 14.3659C81.6309 13.8214 81.1526 13.1272 80.8209 12.374C80.4356 12.0971 80.1473 11.6064 80.0347 10.9824C79.9314 10.3604 80.0389 9.80049 80.3054 9.40583C80.3095 7.96461 80.3974 6.64116 81.3478 5.68655C82.0504 4.98092 83.099 4.63688 84.5516 4.63482C86.0424 4.63688 87.09 4.98092 87.7925 5.68655C88.7471 6.6453 88.8308 7.97494 88.835 9.4048C89.1015 9.79842 89.2089 10.3542 89.1077 10.971C88.9941 11.5992 88.7048 12.0909 88.3194 12.3709C87.9878 13.1282 87.5053 13.8266 86.9381 14.3742C86.9433 14.5012 86.9495 14.6108 86.9619 14.6841ZM48.5232 34.8064C39.8459 34.8064 32.7865 27.7512 32.7865 19.078C32.7865 10.4059 39.8459 3.3506 48.5232 3.3506C57.2015 3.3506 64.2609 10.4059 64.2609 19.078C64.2609 21.23 63.8332 23.3169 62.9891 25.2789C60.5034 31.0675 54.8253 34.8064 48.5232 34.8064ZM45.3969 26.063C43.8803 26.3688 41.5144 28.0735 40.1424 29.8267C42.4587 31.6347 45.3639 32.7236 48.5232 32.7236C51.6329 32.7236 54.5463 31.6461 56.8957 29.8174C55.5227 28.0673 53.164 26.3688 51.6484 26.063C50.5977 25.8533 49.7939 25.1084 49.5532 24.1176C49.4716 23.7994 49.454 23.2797 49.4334 22.4574C49.423 22.1268 49.5718 21.7838 49.8322 21.5792C50.7196 20.8839 51.4976 19.7702 51.9088 18.6007C52.0224 18.2752 52.2848 18.0366 52.601 17.9457C52.6371 17.8692 52.6826 17.7494 52.7105 17.5892C52.7353 17.4425 52.7332 17.3227 52.7229 17.2401C52.4439 17.051 52.2673 16.7317 52.2673 16.3764L52.2673 16.3695C52.2714 14.7216 52.2749 13.3367 51.8034 12.4566C51.4934 11.8771 50.8436 11.2107 48.5459 11.2066C46.2028 11.2107 45.554 11.8771 45.244 12.4566C44.7724 13.3369 44.776 14.7221 44.7801 16.3272L44.7801 16.333C44.7801 16.6873 44.6024 17.0283 44.3235 17.2297C44.3142 17.3144 44.3121 17.4425 44.338 17.6078C44.3669 17.7566 44.4092 17.8713 44.4464 17.9457C44.7615 18.0366 45.024 18.2752 45.1386 18.6007C45.5498 19.7702 46.3267 20.8839 47.2142 21.5792C47.4756 21.7838 47.6233 22.0978 47.6161 22.4284C47.5934 23.2797 47.5748 23.7994 47.4931 24.1249C47.2535 25.1084 46.4497 25.8533 45.3969 26.063ZM61.0747 24.4565C61.8062 22.7549 62.176 20.9449 62.176 19.078C62.176 11.5547 56.0516 5.4334 48.5232 5.4334C40.9958 5.4334 34.8703 11.5547 34.8703 19.078C34.8703 22.695 36.296 25.9783 38.602 28.4227C40.3149 26.2893 42.9949 24.4234 44.9878 24.0205C45.0828 24.0009 45.399 23.9172 45.4703 23.6258C45.4982 23.476 45.5106 23.1919 45.5188 22.8717C44.6169 22.0524 43.8555 20.9593 43.3575 19.7712C42.8378 19.4541 42.4391 18.8073 42.2841 17.9612C42.1415 17.0861 42.3047 16.334 42.6953 15.8608C42.6973 14.2088 42.7542 12.6922 43.404 11.4752C44.2491 9.89757 45.9135 9.12685 48.4974 9.12375C51.1329 9.12685 52.7983 9.89757 53.6434 11.4752C54.2963 12.7005 54.3511 14.2285 54.3511 15.8598C54.7426 16.3319 54.9069 17.0799 54.7643 17.9436C54.6104 18.8011 54.2085 19.451 53.6899 19.7702C53.1909 20.9593 52.4295 22.0514 51.5286 22.8717C51.5358 23.1981 51.5482 23.4781 51.5792 23.6289C51.6484 23.9172 51.9635 24.0009 52.0575 24.0205C54.0494 24.4224 56.7263 26.2851 58.4392 28.4144C59.5168 27.2718 60.4311 25.9556 61.0747 24.4565ZM92.7267 22.9751C93.1926 22.6383 93.299 21.9864 92.9612 21.5205L92.8393 21.351C92.5004 20.883 91.8495 20.7818 91.3836 21.1175C90.9177 21.4543 90.8112 22.1063 91.1491 22.5722L91.271 22.7406C91.4745 23.0226 91.7948 23.1724 92.1161 23.1724C92.3279 23.1724 92.5417 23.1084 92.7267 22.9751ZM94.6792 26.7191C94.3568 26.7191 94.0376 26.5704 93.8341 26.2883L93.7122 26.1189C93.3743 25.6529 93.4797 25.001 93.9457 24.6642C94.4106 24.3274 95.0614 24.4297 95.4014 24.8987L95.5233 25.0671C95.8621 25.5331 95.7557 26.185 95.2898 26.5218C95.1048 26.6551 94.891 26.7191 94.6792 26.7191ZM79.2515 26.6447C79.3466 26.6798 79.4468 26.6953 79.546 26.6953C80.0047 26.6953 80.4582 26.3575 80.6153 25.9102C80.8064 25.3688 80.5212 24.7737 79.9778 24.5815C79.4344 24.3945 78.8403 24.6766 78.6482 25.219L78.5789 25.4153C78.3878 25.9577 78.7071 26.4536 79.2515 26.6447ZM77.114 29.5388L77.1832 29.3425C77.3743 28.8001 77.9684 28.517 78.5118 28.705C79.0552 28.8962 79.3404 29.4913 79.1492 30.0336C78.9922 30.481 78.5386 30.8178 78.081 30.8178C77.9808 30.8178 77.8816 30.8033 77.7855 30.7682C77.2421 30.5771 76.9218 30.0812 77.114 29.5388ZM13.7467 49.0999C13.1826 49.2115 12.8169 49.7601 12.9285 50.3242L12.9688 50.5288C13.0669 51.0247 13.5029 51.3677 13.9885 51.3677C14.0577 51.3677 14.1259 51.3615 14.1951 51.347C14.7582 51.2354 15.1249 50.6868 15.0133 50.1217L14.972 49.9182C14.8604 49.352 14.3005 48.9822 13.7467 49.0999ZM13.7891 54.6146C13.6775 54.0495 14.0443 53.5019 14.6073 53.3893C15.159 53.2705 15.721 53.6403 15.8336 54.2075L15.8739 54.4121C15.9855 54.9762 15.6198 55.5248 15.0557 55.6363C14.9865 55.6508 14.9193 55.657 14.8501 55.657C14.3635 55.657 13.9275 55.314 13.8304 54.8191L13.7891 54.6146ZM14.6889 59.1087L14.6486 58.9042C14.537 58.3401 14.9027 57.7915 15.4668 57.6799C16.0247 57.5662 16.5806 57.932 16.6921 58.4971L16.7335 58.7017C16.845 59.2668 16.4783 59.8143 15.9142 59.927C15.845 59.9404 15.7778 59.9466 15.7086 59.9466C15.223 59.9466 14.787 59.6046 14.6889 59.1087ZM74.1818 37.783L74.251 37.5867C74.4432 37.0453 75.0372 36.7633 75.5807 36.9502C76.1241 37.1414 76.4092 37.7365 76.2181 38.2789C76.0611 38.7252 75.6075 39.063 75.1488 39.063C75.0496 39.063 74.9494 39.0475 74.8544 39.0134C74.3109 38.8223 73.9907 38.3253 74.1818 37.783ZM75.7171 33.4644L75.6479 33.6607C75.4567 34.2021 75.776 34.699 76.3194 34.8902C76.4155 34.9253 76.5147 34.9398 76.6149 34.9398C77.0726 34.9398 77.5271 34.6019 77.6831 34.1556C77.8753 33.6132 77.5902 33.0181 77.0467 32.827C76.5033 32.64 75.9082 32.9221 75.7171 33.4644ZM104.483 67.5197L104.503 67.312C104.56 66.7386 105.081 66.3367 105.643 66.377C106.215 66.4338 106.635 66.9432 106.579 67.5155L106.559 67.7232C106.506 68.2614 106.052 68.6633 105.523 68.6633C105.488 68.6633 105.454 68.6613 105.419 68.6582C104.847 68.6024 104.428 68.093 104.483 67.5197ZM105.94 64.2045C106.482 64.2045 106.954 63.6993 107.003 63.1517C107.053 62.5793 106.631 62.0731 106.056 62.0225C105.513 61.9605 104.978 62.3934 104.926 62.9688L104.908 63.1755C104.857 63.7478 105.291 64.1507 105.863 64.2003C105.872 64.2014 105.882 64.2023 105.891 64.2029C105.908 64.204 105.925 64.2045 105.94 64.2045ZM97.2393 30.2679C96.918 30.2679 96.5988 30.1181 96.3953 29.8361L96.2734 29.6677C95.9345 29.2017 96.0409 28.5498 96.5069 28.213C96.9728 27.8752 97.6247 27.9785 97.9625 28.4465L98.0844 28.6159C98.4223 29.0819 98.3169 29.7338 97.851 30.0706C97.665 30.2039 97.4511 30.2679 97.2393 30.2679ZM56.4564 85.6564C56.5721 85.707 56.694 85.7308 56.8159 85.7308C57.2519 85.7308 57.6899 85.4363 57.8707 85.0251C58.1011 84.4982 57.8624 83.8845 57.3356 83.6531C56.8128 83.4289 56.1939 83.6624 55.9615 84.1893L55.8778 84.3794C55.6474 84.9063 55.9284 85.4249 56.4564 85.6564ZM54.1298 88.3931L54.2125 88.2009C54.4449 87.673 55.0617 87.4374 55.5845 87.6627C56.1124 87.892 56.3521 88.5067 56.1227 89.0336L56.0391 89.2248C55.8676 89.6163 55.4853 89.8509 55.0844 89.8509C54.9439 89.8509 54.8034 89.823 54.6671 89.7641C54.1391 89.5326 53.8994 88.92 54.1298 88.3931ZM37.6265 92.848C37.922 92.848 38.2165 92.723 38.4221 92.4791C38.795 92.0411 38.7403 91.384 38.3001 91.0111L38.1421 90.8767C37.702 90.5069 37.1255 90.6247 36.7515 91.0668C36.3785 91.5059 36.5128 92.2302 36.9529 92.6021C37.1482 92.7674 37.3889 92.848 37.6265 92.848ZM33.6047 89.7849C33.1646 89.412 33.0302 88.6877 33.4032 88.2497C33.7772 87.8075 34.3537 87.6897 34.7928 88.0596L34.9519 88.1939C35.392 88.5658 35.4467 89.2229 35.0738 89.6609C34.8682 89.9058 34.5737 90.0308 34.2783 90.0308C34.0396 90.0308 33.7999 89.9492 33.6047 89.7849ZM23.5748 30.3526L23.3878 30.4456C22.8722 30.7008 22.6604 31.3258 22.9146 31.8414C23.0964 32.2092 23.4663 32.421 23.8496 32.421C24.0066 32.421 24.1626 32.3869 24.3114 32.3135L24.4984 32.2205C25.0139 31.9653 25.2257 31.3413 24.9705 30.8248C24.7164 30.3072 24.0851 30.0995 23.5748 30.3526ZM27.3005 28.495L27.4875 28.402C28.002 28.1478 28.627 28.3524 28.8853 28.8679C29.1426 29.3824 28.9349 30.0085 28.4194 30.2658L28.2324 30.3588C28.0816 30.4331 27.9224 30.4693 27.7664 30.4693C27.3852 30.4693 27.0174 30.2585 26.8335 29.8928C26.5773 29.3783 26.785 28.7533 27.3005 28.495ZM30.8462 27.8937C31.0208 28.246 31.4144 28.433 31.8112 28.433C31.992 28.433 32.1738 28.3937 32.336 28.3131C32.8515 28.0559 33.0592 27.4308 32.8019 26.9153C32.5416 26.3997 31.9227 26.1942 31.4041 26.4493L31.2181 26.5423C30.7036 26.7996 30.5879 27.3792 30.8462 27.8937ZM37.3641 38.5704C37.6286 38.058 38.264 37.8638 38.7681 38.1221C39.2795 38.3866 39.481 39.0147 39.2165 39.5261L39.1204 39.711C38.9355 40.0695 38.5708 40.2751 38.1947 40.2751C38.0315 40.2751 37.8693 40.2379 37.7164 40.1594C37.205 39.8949 37.0035 39.2668 37.268 38.7554L37.3641 38.5704ZM27.2652 60.5572C27.4181 60.6357 27.5803 60.6729 27.7435 60.6729C28.1206 60.6729 28.4843 60.4684 28.6702 60.1099L28.7653 59.9249C29.0298 59.4125 28.8283 58.7854 28.318 58.5209C27.8127 58.2606 27.1794 58.4558 26.9129 58.9683L26.8178 59.1532C26.5523 59.6656 26.7538 60.2927 27.2652 60.5572ZM31.0877 50.817C31.347 50.3004 31.9731 50.0969 32.4887 50.3573C33.0011 50.6166 33.2088 51.2437 32.9484 51.7572C32.7552 52.1404 32.3275 52.4049 31.9101 52.4049C31.7696 52.4049 31.6312 52.375 31.501 52.3099C30.9885 52.0495 30.7344 51.5154 30.9947 51.0019L31.0877 50.817ZM29.0041 54.8908L28.908 55.0768C28.6436 55.5882 28.8471 56.2163 29.3585 56.4798C29.5104 56.5573 29.6736 56.5945 29.8348 56.5945C30.2108 56.5945 30.5776 56.3878 30.7604 56.0283L30.8565 55.8424C31.121 55.3309 30.9175 54.7028 30.4061 54.4394C29.8978 54.179 29.2645 54.3784 29.0041 54.8908ZM37.0304 43.7896C36.8465 44.1491 36.4808 44.3547 36.1037 44.3547C35.9436 44.3547 35.7803 44.3185 35.6274 44.24C35.117 43.9766 34.9135 43.3494 35.178 42.837L35.2731 42.651C35.5344 42.1386 36.1646 41.9371 36.676 42.2006C37.1864 42.464 37.391 43.0912 37.1255 43.6036L37.0304 43.7896ZM33.5922 48.2301C33.7223 48.2952 33.8608 48.3262 34.0013 48.3262C34.4187 48.3262 34.8464 48.0617 35.0396 47.6774C35.2999 47.1639 35.0923 46.5378 34.5788 46.2775C34.0664 46.0182 33.4372 46.2217 33.1789 46.7383L33.0849 46.9232C32.8245 47.4367 33.0787 47.9708 33.5922 48.2301ZM39.4541 34.4903C39.7196 33.9779 40.354 33.7826 40.8592 34.0429C41.3706 34.3074 41.572 34.9345 41.3065 35.447L41.2115 35.6319C41.0265 35.9904 40.6619 36.195 40.2848 36.195C40.1226 36.195 39.9593 36.1578 39.8064 36.0793C39.2961 35.8148 39.0946 35.1877 39.3591 34.6752L39.4541 34.4903ZM37.394 69.7656C36.8444 69.932 36.5313 70.5136 36.6987 71.0643C36.833 71.5147 37.2483 71.8061 37.6957 71.8061C37.7959 71.8061 37.8951 71.7916 37.9973 71.7616L38.1967 71.7017C38.7464 71.5364 38.9602 70.9847 38.7929 70.433C38.6276 69.8824 37.954 69.6034 37.394 69.7656ZM41.8891 70.5529C41.4408 70.5529 41.0265 70.2616 40.8911 69.8112C40.7248 69.2605 41.0378 68.6788 41.5875 68.5125C42.1474 68.3534 42.821 68.6292 42.9863 69.1799C43.1537 69.7316 42.9398 70.2833 42.3902 70.4486L42.1908 70.5085C42.0885 70.5385 41.9894 70.5529 41.8891 70.5529ZM89.5292 51.2334C89.0013 51.4597 88.7575 52.0734 88.9858 52.6013C89.1542 52.996 89.5396 53.2315 89.9425 53.2315C90.0809 53.2315 90.2214 53.2036 90.3558 53.1458L90.5469 53.0631C91.0738 52.8369 91.2225 52.2645 90.9942 51.7355C90.769 51.2066 90.0561 51.002 89.5292 51.2334ZM85.9814 36.1692C85.844 36.1692 85.7066 36.1423 85.5713 36.0855L85.3781 36.0028C84.8491 35.7776 84.6032 35.166 84.8284 34.636C85.0547 34.107 85.6611 33.8622 86.1963 34.0864L86.3905 34.169C86.9195 34.3953 87.1654 35.0059 86.9402 35.5359C86.7707 35.9316 86.3864 36.1692 85.9814 36.1692ZM90.4165 35.8956L90.2253 35.813C89.6912 35.5867 89.1788 35.8698 88.9504 36.3977C88.7232 36.9267 89.0631 37.5817 89.59 37.8079C89.7243 37.8658 89.8648 37.8937 90.0032 37.8937C90.4061 37.8937 90.7905 37.6581 90.9599 37.2635C91.1882 36.7355 90.9434 36.1229 90.4165 35.8956ZM82.913 33.8157C82.7446 34.2104 82.3593 34.4459 81.9563 34.4459C81.8179 34.4459 81.6774 34.418 81.5431 34.3602C81.0162 34.1339 80.6763 33.4789 80.9036 32.9499C81.1298 32.422 81.6474 32.1389 82.1785 32.3652L82.3696 32.4478C82.8965 32.6741 83.1413 33.2878 82.913 33.8157ZM70.6238 27.4144C70.0927 27.1882 69.5762 27.4713 69.3499 27.9992C69.1216 28.5282 69.4615 29.1821 69.9894 29.4094C70.1237 29.4673 70.2642 29.4941 70.4016 29.4941C70.8056 29.4941 71.1899 29.2586 71.3594 28.865C71.5866 28.337 71.3428 27.7233 70.8149 27.4971L70.6238 27.4144ZM66.3777 27.7708C66.2393 27.7708 66.0988 27.7439 65.9645 27.686C65.4376 27.4587 65.0977 26.8048 65.3249 26.2758C65.5533 25.7489 66.0688 25.4627 66.5998 25.6911L66.791 25.7737C67.3179 26 67.5627 26.6136 67.3344 27.1416C67.166 27.5362 66.7806 27.7708 66.3777 27.7708ZM45.0217 62.1183C45.0217 74.0314 54.7197 83.7242 66.6379 83.7242C78.5572 83.7242 88.2542 74.0314 88.2542 62.1183C88.2542 50.2042 78.5572 40.5124 66.6379 40.5124C54.7197 40.5124 45.0217 50.2042 45.0217 62.1183ZM54.3173 77.1899L54.335 77.1776C54.3614 77.1594 54.3878 77.1411 54.4087 77.1142C56.3831 74.4787 59.8699 71.9548 62.1779 71.4888C63.491 71.2274 64.4932 70.3028 64.7917 69.0806C64.8919 68.6787 64.9157 67.9927 64.9508 66.7984C64.9591 66.4668 64.8103 66.1506 64.55 65.9471C63.2451 64.9274 62.1066 63.2981 61.5064 61.5873C61.3741 61.2112 61.0446 60.9509 60.6633 60.8992C60.5745 60.7783 60.4381 60.5087 60.3668 60.1254C60.3017 59.7214 60.342 59.4167 60.3865 59.2741C60.7408 59.0902 60.9795 58.6914 60.9795 58.2812C60.9733 55.9722 60.9691 53.9793 61.6779 52.6507C62.1273 51.8076 63.1274 50.6856 66.671 50.6794C70.1454 50.6856 71.1476 51.8066 71.597 52.6486C72.3051 53.9701 72.3016 55.952 72.2975 58.3091L72.2974 58.336C72.2974 58.7461 72.5351 59.1088 72.8915 59.2782C72.9349 59.4239 72.9752 59.7225 72.9101 60.1089C72.8388 60.5066 72.7004 60.7773 72.6126 60.8992C72.2324 60.9509 71.9028 61.2112 71.7706 61.5873C71.1693 63.2981 70.0318 64.9274 68.7269 65.9471C68.4666 66.1506 68.3178 66.4647 68.3261 66.7953C68.356 67.9431 68.3829 68.6684 68.4842 69.0765C68.7838 70.3028 69.7849 71.2274 71.0938 71.4888C73.4029 71.9548 76.8918 74.4787 78.8682 77.1142C78.8893 77.1416 78.9154 77.1619 78.9415 77.1822C78.9536 77.1916 78.9657 77.201 78.9774 77.2112C78.9824 77.2156 78.9873 77.2201 78.9922 77.2248C75.6241 79.9822 71.3222 81.6404 66.6379 81.6404C61.9517 81.6404 57.6487 79.9801 54.2796 77.2206C54.2914 77.2092 54.3042 77.1993 54.3173 77.1899ZM86.1704 62.1183C86.1704 67.4617 84.007 72.3081 80.515 75.8373C78.2318 72.8112 74.2821 70.0073 71.503 69.4463C70.9885 69.344 70.6155 69.0207 70.5081 68.5785C70.4678 68.3987 70.4409 67.7912 70.4244 67.2457C71.7396 66.0959 72.845 64.5172 73.5413 62.795C74.2211 62.4437 74.7604 61.5986 74.964 60.4632C75.1551 59.3092 74.9237 58.3288 74.3823 57.7729C74.3833 55.4814 74.3265 53.3336 73.437 51.6671C72.3336 49.606 70.1237 48.6018 66.5997 48.5956C63.1511 48.6018 60.9381 49.607 59.8368 51.6702C58.9535 53.3263 58.8925 55.4566 58.8925 57.774C58.3553 58.3308 58.1229 59.3144 58.313 60.4797C58.5186 61.6038 59.0558 62.4437 59.7356 62.795C60.4319 64.5172 61.5374 66.0959 62.8525 67.2447C62.834 67.7902 62.8092 68.4018 62.7689 68.5816C62.6604 69.0207 62.2885 69.344 61.7688 69.4463C58.9907 70.0073 55.0431 72.8112 52.7619 75.8373C49.2689 72.3081 47.1066 67.4617 47.1066 62.1183C47.1066 51.3541 55.8675 42.5962 66.6379 42.5962C77.4084 42.5962 86.1704 51.3541 86.1704 62.1183ZM107.745 28.0499C99.0699 28.0499 92.0105 35.1062 92.0105 43.7783C92.0105 52.4515 99.0699 59.5078 107.745 59.5078C116.423 59.5078 123.483 52.4515 123.483 43.7783C123.483 35.1062 116.423 28.0499 107.745 28.0499ZM99.3654 54.527C100.735 52.7748 103.102 51.0702 104.623 50.7644C105.676 50.5526 106.478 49.8066 106.717 48.8179C106.797 48.4946 106.817 47.9635 106.84 47.1288C106.847 46.7981 106.7 46.483 106.438 46.2785C105.551 45.5842 104.774 44.4715 104.363 43.3C104.248 42.9756 103.986 42.7369 103.67 42.645C103.633 42.5706 103.589 42.4569 103.562 42.304C103.536 42.1418 103.538 42.0147 103.549 41.9311C103.824 41.7296 104.002 41.3918 104.002 41.0374L104.002 41.0318C103.998 39.4266 103.994 38.0392 104.466 37.158C104.776 36.5774 105.425 35.911 107.77 35.9069C110.069 35.911 110.717 36.5774 111.027 37.158C111.499 38.0391 111.495 39.426 111.491 41.0699L111.491 41.0767C111.491 41.431 111.668 41.7503 111.947 41.9393C111.955 42.022 111.957 42.1428 111.932 42.2927C111.905 42.4518 111.859 42.5695 111.823 42.645C111.508 42.7379 111.244 42.9756 111.131 43.3C110.72 44.4715 109.942 45.5842 109.054 46.2785C108.794 46.483 108.645 46.7981 108.653 47.1288C108.676 47.9635 108.697 48.4946 108.775 48.8179C109.016 49.8066 109.818 50.5526 110.87 50.7644C112.391 51.0702 114.757 52.7748 116.127 54.527C113.811 56.335 110.906 57.4239 107.745 57.4239C104.586 57.4239 101.682 56.336 99.3654 54.527ZM117.668 53.122C115.955 50.9885 113.276 49.1227 111.282 48.7218C111.186 48.7022 110.87 48.6175 110.801 48.3344C110.772 48.1836 110.76 47.8964 110.751 47.572C111.651 46.7517 112.413 45.6607 112.912 44.4726C113.433 44.1523 113.834 43.5014 113.986 42.646C114.131 41.7813 113.969 41.0333 113.575 40.5601C113.575 38.9288 113.52 37.4008 112.867 36.1775C112.022 34.5979 110.357 33.8272 107.719 33.823C105.135 33.8272 103.471 34.5979 102.626 36.1775C101.976 37.3935 101.919 38.9112 101.917 40.5611C101.527 41.0343 101.364 41.7864 101.508 42.6584C101.661 43.5066 102.06 44.1544 102.582 44.4736C103.08 45.6607 103.841 46.7517 104.743 47.572C104.733 47.8953 104.722 48.1805 104.694 48.3262C104.623 48.6175 104.307 48.7022 104.212 48.7218C102.218 49.1227 99.5369 50.9885 97.824 53.123C95.5191 50.6786 94.0944 47.3943 94.0944 43.7783C94.0944 36.255 100.218 30.1337 107.745 30.1337C115.274 30.1337 121.398 36.255 121.398 43.7783C121.398 47.3943 119.973 50.6776 117.668 53.122ZM19.2007 92.0337C10.5244 92.0337 3.46499 84.9774 3.46499 76.3053C3.46499 67.6332 10.5244 60.5769 19.2007 60.5769C27.8779 60.5769 34.9374 67.6332 34.9374 76.3053C34.9374 84.9774 27.8779 92.0337 19.2007 92.0337ZM16.0754 83.2913C14.5567 83.5971 12.1919 85.3008 10.8199 87.053C13.1362 88.861 16.0403 89.9499 19.2007 89.9499C22.36 89.9499 25.2641 88.862 27.5804 87.054C26.2094 85.3008 23.8436 83.5971 22.3249 83.2913C21.2721 83.0795 20.4704 82.3336 20.2307 81.3449C20.1491 81.0267 20.1305 80.506 20.1098 79.6836C20.0995 79.3541 20.2483 79.01 20.5086 78.8055C21.3971 78.1112 22.174 76.9975 22.5852 75.827C22.6999 75.5025 22.9623 75.2639 23.2753 75.173C23.3146 75.0965 23.359 74.9777 23.3879 74.8155C23.4117 74.6678 23.4096 74.549 23.3993 74.4673C23.1204 74.2773 22.9437 73.958 22.9437 73.6036L22.9437 73.5967C22.9478 71.9478 22.9513 70.5629 22.4798 69.6839C22.1699 69.1033 21.5211 68.4369 19.2224 68.4328C16.8792 68.4369 16.2304 69.1033 15.9205 69.6839C15.4489 70.5631 15.4524 71.9484 15.4566 73.5535L15.4566 73.5592C15.4566 73.9146 15.2799 74.2556 15.001 74.457C14.9906 74.5407 14.9886 74.6688 15.0154 74.8341C15.0433 74.9839 15.0867 75.0986 15.1229 75.173C15.438 75.2639 15.7014 75.5025 15.8151 75.827C16.2263 76.9975 17.0042 78.1112 17.8917 78.8055C18.152 79.01 18.3008 79.3241 18.2925 79.6547C18.2698 80.506 18.2512 81.0267 18.1706 81.3521C17.9299 82.3336 17.1282 83.0795 16.0754 83.2913ZM32.8535 76.3053C32.8535 68.781 26.7281 62.6597 19.2007 62.6597C11.6722 62.6597 5.54882 68.781 5.54882 76.3053C5.54882 79.9213 6.97352 83.2046 9.27844 85.6489C10.9914 83.5145 13.6724 81.6497 15.6642 81.2478C15.7603 81.2292 16.0754 81.1445 16.1467 80.8521C16.1756 80.7033 16.187 80.4192 16.1953 80.099C15.2933 79.2786 14.533 78.1856 14.034 76.9975C13.5143 76.6793 13.1155 76.0336 12.9605 75.1885C12.819 74.3144 12.9812 73.5623 13.3717 73.0881C13.3738 71.4361 13.4316 69.9185 14.0804 68.7014C14.9255 67.1238 16.591 66.3541 19.1738 66.35C21.8104 66.3541 23.4747 67.1238 24.3198 68.7014C24.9728 69.9267 25.0286 71.4558 25.0286 73.0871C25.4191 73.5592 25.5823 74.3072 25.4418 75.1699C25.2868 76.0263 24.886 76.6772 24.3663 76.9965C23.8704 78.1856 23.1069 79.2776 22.205 80.099C22.2133 80.4254 22.2246 80.7044 22.2556 80.8552C22.3249 81.1445 22.64 81.2292 22.736 81.2478C24.729 81.6497 27.4089 83.5155 29.1218 85.6489C31.4278 83.2046 32.8535 79.9213 32.8535 76.3053ZM49.3928 112.631C55.4222 112.631 60.3254 107.728 60.3254 101.702C60.3254 95.6755 55.4222 90.7733 49.3928 90.7733C43.3624 90.7733 38.4571 95.6755 38.4571 101.702C38.4571 107.728 43.3624 112.631 49.3928 112.631ZM44.2612 108.882C45.1559 107.857 46.4752 106.915 47.3524 106.738C48.1954 106.571 48.839 105.971 49.026 105.189C49.0891 104.941 49.1014 104.611 49.1221 103.969C49.1314 103.638 48.9837 103.321 48.7202 103.117C48.1706 102.688 47.6902 101.997 47.434 101.268C47.3441 101.013 47.1654 100.812 46.9412 100.692C46.935 100.66 46.9298 100.625 46.9236 100.593C47.1044 100.398 47.2118 100.134 47.2118 99.8566C47.2077 98.6581 47.2057 97.6219 47.6458 97.1807C47.935 96.8915 48.5167 96.7437 49.4062 96.7427C50.2658 96.7437 50.8474 96.8915 51.1367 97.1807C51.5768 97.6219 51.5748 98.6581 51.5706 99.8803C51.5706 100.157 51.6781 100.412 51.8578 100.602C51.8537 100.631 51.8475 100.663 51.8413 100.692C51.6171 100.812 51.4384 101.013 51.3485 101.268C51.0923 101.997 50.6119 102.688 50.0623 103.117C49.7998 103.321 49.6552 103.718 49.6635 104.05C49.681 104.611 49.6934 104.941 49.7523 105.172C49.9445 105.971 50.5871 106.571 51.4281 106.738C52.3062 106.915 53.6276 107.857 54.5233 108.881C53.0728 109.92 51.3093 110.548 49.3928 110.548C47.4763 110.548 45.7128 109.92 44.2612 108.882ZM49.3928 92.856C54.2723 92.856 58.2416 96.8243 58.2416 101.702C58.2416 103.905 57.4016 105.898 56.0637 107.449C54.9851 106.245 53.2939 104.991 51.7824 104.702C51.7721 104.631 51.7638 104.527 51.7597 104.398C52.3279 103.851 52.8104 103.153 53.142 102.397C53.5264 102.118 53.8156 101.624 53.9282 100.995C54.0295 100.378 53.9221 99.8225 53.6555 99.4288C53.6514 97.999 53.5677 96.6683 52.6131 95.7106C51.9105 95.005 50.8619 94.6609 49.3721 94.6589C47.9206 94.6609 46.8719 95.005 46.1704 95.7106C45.2189 96.6642 45.1321 97.9887 45.128 99.4299C44.8615 99.8245 44.753 100.383 44.8573 101.006C44.9689 101.63 45.2561 102.12 45.6425 102.398C45.9721 103.151 46.4504 103.845 47.0166 104.391C47.0042 104.518 46.9846 104.624 46.9432 104.696C45.4803 104.99 43.7973 106.244 42.7198 107.449C41.3808 105.898 40.5419 103.905 40.5419 101.702C40.5419 96.8243 44.5133 92.856 49.3928 92.856ZM93.0448 82.3731C93.0448 88.4004 97.9501 93.3036 103.979 93.3036C110.009 93.3036 114.913 88.4004 114.913 82.3731C114.913 76.3468 110.009 71.4446 103.979 71.4446C97.9501 71.4446 93.0448 76.3468 93.0448 82.3731ZM98.8489 89.5534C99.7415 88.5295 101.063 87.5873 101.94 87.4096C102.783 87.2423 103.426 86.642 103.614 85.861C103.677 85.613 103.688 85.2824 103.709 84.6408C103.719 84.3092 103.57 83.992 103.308 83.7885C102.758 83.3587 102.278 82.6686 102.022 81.9392C101.932 81.6861 101.753 81.4846 101.529 81.3648L101.51 81.2645C101.692 81.0693 101.8 80.8058 101.8 80.5279C101.795 79.3295 101.793 78.2943 102.233 77.8521C102.522 77.5628 103.104 77.4151 103.994 77.4141C104.853 77.4151 105.435 77.5628 105.724 77.8521C106.164 78.2943 106.161 79.3295 106.158 80.5527C106.158 80.8306 106.266 81.0858 106.445 81.2749C106.443 81.2842 106.442 81.2939 106.44 81.3039C106.437 81.3239 106.433 81.3448 106.431 81.3648C106.205 81.4836 106.025 81.685 105.936 81.9392C105.679 82.6686 105.199 83.3587 104.649 83.7885C104.387 83.992 104.242 84.3898 104.25 84.7214C104.269 85.2824 104.281 85.613 104.342 85.8475C104.535 86.6441 105.179 87.2433 106.016 87.4096C106.894 87.5873 108.215 88.5285 109.11 89.5534C107.661 90.5927 105.896 91.2198 103.979 91.2198C102.063 91.2198 100.299 90.5927 98.8489 89.5534ZM112.828 82.3731C112.828 84.5768 111.989 86.5707 110.65 88.1204C109.574 86.9168 107.883 85.6636 106.369 85.3733C106.36 85.302 106.352 85.1998 106.347 85.0706C106.915 84.522 107.397 83.8236 107.73 83.0663C108.114 82.7864 108.403 82.2946 108.517 81.6613C108.617 81.0486 108.507 80.4949 108.242 80.1033C108.238 78.6714 108.154 77.3397 107.2 76.383C106.498 75.6763 105.45 75.3323 103.96 75.3313C102.508 75.3323 101.46 75.6763 100.757 76.383C99.8066 77.3355 99.7188 78.66 99.7147 80.1023C99.4481 80.4969 99.3407 81.0548 99.444 81.6788C99.5566 82.3018 99.8438 82.7915 100.228 83.0705C100.56 83.8226 101.038 84.5169 101.604 85.0634C101.592 85.1894 101.571 85.2969 101.531 85.3671C100.068 85.6636 98.384 86.9168 97.3075 88.1204C95.9685 86.5697 95.1286 84.5768 95.1286 82.3731C95.1286 77.4967 99.1 73.5284 103.979 73.5284C108.859 73.5284 112.828 77.4967 112.828 82.3731ZM22.3671 37.571C22.3671 43.5973 17.4639 48.4995 11.4345 48.4995C5.40513 48.4995 0.498779 43.5973 0.498779 37.571C0.498779 31.5447 5.40513 26.6404 11.4345 26.6404C17.4639 26.6404 22.3671 31.5447 22.3671 37.571ZM9.39406 42.6065C8.51693 42.7842 7.19762 43.7264 6.30396 44.7502C7.75448 45.7885 9.51804 46.4156 11.4345 46.4156C13.3499 46.4156 15.1135 45.7885 16.564 44.7502C15.6693 43.7264 14.349 42.7842 13.4698 42.6065C12.6309 42.4381 11.9903 41.8389 11.7961 41.0434C11.7351 40.7954 11.7217 40.4493 11.7052 39.8594C11.6948 39.5267 11.8436 39.1878 12.104 38.9833C12.6536 38.5566 13.134 37.8654 13.3902 37.136C13.4801 36.8819 13.6588 36.6804 13.8851 36.5616C13.8892 36.5306 13.8954 36.4996 13.9016 36.4686C13.7219 36.2796 13.6144 36.0254 13.6144 35.7496C13.6185 33.207 13.5411 32.614 11.449 32.6099C9.88131 32.613 9.62394 33.0894 9.52616 33.2705L9.52527 33.2721C9.25147 33.786 9.25246 34.7101 9.25352 35.6916L9.25355 35.7248C9.25355 36.0017 9.14611 36.2651 8.96531 36.4604C8.97151 36.4934 8.97771 36.5286 8.98287 36.5616C9.20706 36.6815 9.38683 36.8819 9.47568 37.136C9.73293 37.8644 10.2133 38.5556 10.763 38.9843C11.0254 39.1889 11.1741 39.5061 11.1638 39.8377C11.1432 40.4762 11.1308 40.8026 11.0719 41.0444C10.8787 41.8399 10.235 42.4381 9.39406 42.6065ZM20.2833 37.571C20.2833 32.6925 16.314 28.7243 11.4345 28.7243C6.55501 28.7243 2.58364 32.6925 2.58364 37.571C2.58364 39.7736 3.42255 41.7665 4.76149 43.3173C5.84008 42.1126 7.52409 40.8584 8.98494 40.564C9.02626 40.4968 9.04693 40.3873 9.05829 40.2592C8.49317 39.7127 8.01483 39.0184 7.68216 38.2663C7.29783 37.9863 7.01062 37.4987 6.89904 36.8757C6.7947 36.2537 6.90524 35.6948 7.16972 35.3002C7.17386 34.1864 7.22448 33.1564 7.68629 32.2927C8.31753 31.1077 9.53663 30.5302 11.4138 30.5271C15.4296 30.5343 15.6848 33.1564 15.6993 35.2867C15.9658 35.6762 16.0733 36.232 15.972 36.8581C15.8573 37.4894 15.5681 37.9811 15.1858 38.2622C14.8521 39.0205 14.3717 39.7178 13.8014 40.2664C13.8076 40.3945 13.8138 40.502 13.8262 40.5753C15.3366 40.8605 17.0268 42.1126 18.1054 43.3162C19.4444 41.7665 20.2833 39.7736 20.2833 37.571Z" fill="url(#paint0_linear_1642_390)"/>
<defs>
<linearGradient id="paint0_linear_1642_390" x1="-31.3485" y1="56.59" x2="136.177" y2="26.4877" gradientUnits="userSpaceOnUse">
<stop stop-color="#6633CC"/>
<stop offset="1" stop-color="#F5C144"/>
</linearGradient>
</defs>
</svg>
