<svg width="288" height="429" viewBox="0 0 288 429" fill="none" xmlns="http://www.w3.org/2000/svg">
<path fill-rule="evenodd" clip-rule="evenodd" d="M102.135 150.66C98.897 147.737 92.9212 141.149 85.0943 125.468C75.0226 105.279 83.7312 80.981 83.7312 80.981C84.3253 83.9282 84.6024 102.133 96.2821 117.131C101.963 124.427 103.731 132.389 104.497 139.383C105.766 133.921 107.131 128.8 108.553 124.031C99.6569 115.506 96.8438 104.407 92.1405 80.6551C87.3471 56.4513 99.3897 43.6666 99.3897 43.6666C99.3897 43.6666 96.8702 70.3873 107.304 88.3719C112.102 96.6449 112.803 104.825 112.529 111.855C113.352 109.546 114.174 107.342 114.985 105.262C116.08 102.46 117.182 99.8111 118.277 97.2967C112.061 84.6614 111.575 72.8259 118.985 46.487C126.589 19.4813 139.018 16.9468 139.018 16.9468C139.018 16.9468 129.664 28.1398 129.007 49.4212C128.604 62.4656 125.027 78.5432 122.298 88.5886C125.802 81.3063 129.831 74.3155 134.353 67.6703C138.365 52.1738 148.689 31.1113 157.872 22.6808C167.958 13.4146 176.618 6.79809 176.618 6.79809C175.37 25.1286 163.296 39.9056 159.791 43.903C177.566 24.8451 205.19 21.4337 205.19 21.4337C196.083 26.0202 186.083 54.016 167.96 59.8297C155.68 63.7687 143.807 67.9335 137.824 70.3059C134.46 75.1667 127.306 86.4835 120.261 103.682C123.192 100.021 126.751 95.1904 136.897 82.7199C151.354 64.9538 177.761 64.8128 177.761 64.8128C163.19 69.9278 152.53 87.2303 139.684 98.6388C133.059 104.394 125.412 108.866 117.088 111.853C115.251 116.906 113.399 122.542 111.645 128.723C119.328 120.101 132.443 107.447 144.825 103.422C153.653 100.547 167.021 90.3296 167.021 90.3296C167.021 90.3296 167.732 107.23 147.672 118.147C129.574 127.996 121.196 132.547 109.686 136.072C108.144 142.211 106.727 148.826 105.516 155.885C109.965 147.17 117.408 136.854 129.49 134.694C151.119 130.832 156.564 119.754 156.564 119.754C156.564 119.754 160.363 130.895 132.781 152.47C116.984 164.825 108.197 168.534 103.564 169.305C102.972 174.183 102.497 179.243 102.14 184.484C107.239 176.337 118.396 162.772 134.799 159.9C143.381 158.396 154.818 154.363 154.818 154.363C154.818 154.363 141.663 172.877 124.643 183.356C109.651 192.585 105.015 192.753 101.764 191.577L102.129 220.789C102.194 221.962 101.305 222.907 100.144 222.9C98.9826 222.893 97.9889 221.937 97.924 220.765C97.4435 211.94 97.1874 203.27 97.4142 195.161C93.2885 194.638 89.4291 192.52 86.6617 189.259C81.0043 182.605 83.4757 176.054 80.247 174.128C80.247 174.128 88.5837 174.012 90.7723 178.921C92.9608 183.829 92.5584 186.33 95.6134 189.671C96.2247 190.238 96.874 190.76 97.555 191.236C97.7653 186.203 98.0904 181.32 98.5342 176.584C91.8073 173.28 82.923 165.087 71.2526 150.904C58.3558 135.234 66.8466 107.796 66.8466 107.796C66.8466 107.796 66.0517 119.403 83.0648 142.038C93.0015 155.258 97.1296 165.516 99.0734 171.26L102.135 150.66Z" fill="url(#paint0_linear_2731_2723)"/>
<path fill-rule="evenodd" clip-rule="evenodd" d="M236.292 345.736C235.244 342.205 226.843 340.652 207.407 325.244C206.645 317.98 203.595 292.139 198.116 273.659C193.477 258.012 186.72 246.224 179.309 249.723C170.989 253.651 173.264 271.112 177.409 284.801C179.826 292.914 183.283 300.481 187.669 307.26C183.057 303.04 162.782 283.981 158.762 278.59C160.951 272.671 169.357 252.992 172.709 240.604C176.585 226.283 180.283 205.41 177.499 196.022C175.987 190.92 172.296 188.847 165.789 191.919C151.015 198.895 149.66 250.611 149.897 252.741C149.904 252.798 151.834 266.903 151.697 266.908C144.344 254.977 139.459 245.93 134.372 232.768C137.813 226.19 162.329 176.6 157.713 161.678C157.309 160.397 156.57 159.316 155.595 158.583C154.209 157.382 152.314 157.226 150.672 158.176C140.948 162.769 129.578 196.272 126.218 209.315L119.117 185.364C124.751 174.866 129.7 163.925 133.919 152.641C138.268 140.544 139.503 120.054 136.471 110.275C135.162 106.061 133.174 103.765 130.129 105.079C128.952 105.649 127.863 106.467 126.918 107.486C115.971 118.622 114.975 150.313 114.832 162.813C113.169 156.164 112.321 149.214 112.311 142.161C112.343 139.911 109.898 114.24 104.085 94.1681C99.6213 78.7567 92.3062 65.6195 85.7312 68.7049C78.2591 72.2112 78.4334 88.5903 83.379 105.311C88.8089 123.67 99.5406 143.575 107.78 155.222C110.784 166.637 111.63 172.421 114.893 183.263C114.893 183.263 91.9348 138.13 78.2222 144.606C64.0725 151.288 107.587 201.456 121.994 207.214C124.353 215.219 127.075 223.047 130.147 230.667C119.99 219.932 98.4372 195.129 87.5256 200.281C83.1429 202.351 82.7962 208.623 84.0475 212.845C89.8658 232.468 139 252.426 139 252.426C142.293 259.616 145.951 266.548 149.958 273.191C149.958 273.191 114.358 238.91 103.284 257.993C92.333 276.865 144.411 293.081 161.957 289.367C163.779 291.439 189.719 315.993 198.971 325.132C198.742 325.024 189.469 321.428 189.469 321.428C189.469 321.428 138.925 299.269 134.638 322.746C130.875 343.354 188.203 350.695 212.721 339.118C225.799 349.564 231.736 350.617 231.736 350.617C232.892 350.847 234.097 350.746 235.25 350.322C236.603 349.722 237.152 348.639 236.292 345.736Z" fill="url(#paint1_linear_2731_2723)"/>
<g clip-path="url(#clip0_2731_2723)">
<path d="M121.998 415.088C121.998 415.088 92.1594 342.2 193.487 259.985C193.487 259.985 220.237 362.566 121.998 415.088Z" fill="url(#paint2_linear_2731_2723)"/>
<path d="M123.271 417.374C123.271 417.374 49.4645 389.998 57.9672 259.985C57.9672 259.985 151.48 309.708 123.271 417.374Z" fill="url(#paint3_linear_2731_2723)"/>
<path d="M118.767 409.752C118.767 409.752 61.394 356.65 117.74 239.407C117.74 239.407 184.815 320.617 118.767 409.752Z" fill="url(#paint4_linear_2731_2723)"/>
<path d="M134.671 402.512C134.671 402.512 158.134 270.501 268.482 340.833C268.482 340.833 243.096 390.51 134.671 402.512Z" fill="url(#paint5_linear_2731_2723)"/>
<path d="M120.187 401.991C120.187 401.991 135.7 363.289 185.251 366.929C234.802 370.57 252.091 408.045 252.091 408.045C252.091 408.045 184.146 446.762 123.784 417.464L120.187 401.991Z" fill="url(#paint6_linear_2731_2723)"/>
</g>
<defs>
<linearGradient id="paint0_linear_2731_2723" x1="17.5821" y1="205.897" x2="236.512" y2="-29.806" gradientUnits="userSpaceOnUse">
<stop/>
<stop offset="0.60345" stop-color="#6633CC"/>
<stop offset="1" stop-color="#FF9CAA"/>
</linearGradient>
<linearGradient id="paint1_linear_2731_2723" x1="167.829" y1="422.559" x2="52.9564" y2="147.923" gradientUnits="userSpaceOnUse">
<stop/>
<stop offset="0.60345" stop-color="#6633CC"/>
<stop offset="1" stop-color="#FF9CAA"/>
</linearGradient>
<linearGradient id="paint2_linear_2731_2723" x1="281.208" y1="424.685" x2="128.197" y2="388.068" gradientUnits="userSpaceOnUse">
<stop stop-color="#FFA5A5"/>
<stop offset="1" stop-color="#311172"/>
</linearGradient>
<linearGradient id="paint3_linear_2731_2723" x1="45.6204" y1="449.036" x2="182.728" y2="378.648" gradientUnits="userSpaceOnUse">
<stop/>
<stop offset="0.60345" stop-color="#4D2899"/>
<stop offset="1" stop-color="#FF9CAA"/>
</linearGradient>
<linearGradient id="paint4_linear_2731_2723" x1="203.46" y1="361.11" x2="125.933" y2="399.178" gradientUnits="userSpaceOnUse">
<stop stop-color="#FFA5A5"/>
<stop offset="1" stop-color="#4A219B"/>
</linearGradient>
<linearGradient id="paint5_linear_2731_2723" x1="117.27" y1="397.57" x2="253.401" y2="389.418" gradientUnits="userSpaceOnUse">
<stop/>
<stop offset="0.60345" stop-color="#6633CC"/>
<stop offset="1" stop-color="#FF9CAA"/>
</linearGradient>
<linearGradient id="paint6_linear_2731_2723" x1="30.7148" y1="378.081" x2="225.755" y2="458.822" gradientUnits="userSpaceOnUse">
<stop/>
<stop offset="0.60345" stop-color="#6633CC"/>
<stop offset="1" stop-color="#FF9CAA"/>
</linearGradient>
<clipPath id="clip0_2731_2723">
<rect width="211.2" height="189.019" fill="white" transform="translate(57.2852 239.407)"/>
</clipPath>
</defs>
</svg>
