<svg width="288" height="429" viewBox="0 0 288 429" fill="none" xmlns="http://www.w3.org/2000/svg">
<path fillRule="evenodd" clip-rule="evenodd" d="M185.865 150.66C189.103 147.737 195.079 141.149 202.906 125.468C212.977 105.279 204.269 80.981 204.269 80.981C203.675 83.9282 203.398 102.133 191.718 117.131C186.037 124.427 184.269 132.389 183.503 139.383C182.234 133.921 180.869 128.8 179.447 124.031C188.343 115.506 191.156 104.407 195.859 80.6551C200.653 56.4513 188.61 43.6666 188.61 43.6666C188.61 43.6666 191.13 70.3873 180.696 88.3719C175.898 96.6449 175.197 104.825 175.471 111.855C174.648 109.546 173.826 107.342 173.015 105.262C171.92 102.46 170.818 99.8111 169.723 97.2967C175.939 84.6614 176.425 72.8259 169.015 46.487C161.411 19.4813 148.982 16.9468 148.982 16.9468C148.982 16.9468 158.336 28.1398 158.993 49.4212C159.396 62.4656 162.973 78.5432 165.702 88.5886C162.198 81.3063 158.169 74.3155 153.647 67.6703C149.635 52.1738 139.311 31.1113 130.128 22.6808C120.042 13.4146 111.382 6.79809 111.382 6.79809C112.63 25.1286 124.704 39.9056 128.209 43.903C110.434 24.8451 82.8099 21.4337 82.8099 21.4337C91.9174 26.0202 101.917 54.016 120.04 59.8297C132.32 63.7687 144.193 67.9335 150.176 70.3059C153.54 75.1667 160.694 86.4835 167.739 103.682C164.808 100.021 161.249 95.1904 151.103 82.7199C136.646 64.9538 110.239 64.8128 110.239 64.8128C124.81 69.9278 135.47 87.2303 148.316 98.6388C154.941 104.394 162.588 108.866 170.912 111.853C172.749 116.906 174.601 122.542 176.355 128.723C168.672 120.101 155.557 107.447 143.175 103.422C134.347 100.547 120.979 90.3296 120.979 90.3296C120.979 90.3296 120.268 107.23 140.328 118.147C158.426 127.996 166.804 132.547 178.314 136.072C179.856 142.211 181.273 148.826 182.484 155.885C178.035 147.17 170.592 136.854 158.51 134.694C136.881 130.832 131.436 119.754 131.436 119.754C131.436 119.754 127.637 130.895 155.219 152.47C171.016 164.825 179.803 168.534 184.436 169.305C185.028 174.183 185.503 179.243 185.86 184.484C180.761 176.337 169.604 162.772 153.201 159.9C144.619 158.396 133.182 154.363 133.182 154.363C133.182 154.363 146.337 172.877 163.357 183.356C178.349 192.585 182.985 192.753 186.236 191.577L185.871 220.789C185.806 221.962 186.695 222.907 187.856 222.9C189.017 222.893 190.011 221.937 190.076 220.765C190.556 211.94 190.813 203.27 190.586 195.161C194.711 194.638 198.571 192.52 201.338 189.259C206.996 182.605 204.524 176.054 207.753 174.128C207.753 174.128 199.416 174.012 197.228 178.921C195.039 183.829 195.442 186.33 192.387 189.671C191.775 190.238 191.126 190.76 190.445 191.236C190.235 186.203 189.91 181.32 189.466 176.584C196.193 173.28 205.077 165.087 216.747 150.904C229.644 135.234 221.153 107.796 221.153 107.796C221.153 107.796 221.948 119.403 204.935 142.038C194.999 155.258 190.87 165.516 188.927 171.26L185.865 150.66Z" fill="url(#paint0_linear_2731_2732)"/>
<path fillRule="evenodd" clip-rule="evenodd" d="M51.7083 345.736C52.7556 342.205 61.1571 340.652 80.5928 325.244C81.355 317.98 84.4052 292.139 89.8842 273.659C94.5235 258.012 101.28 246.224 108.691 249.723C117.011 253.651 114.736 271.112 110.591 284.801C108.174 292.914 104.717 300.481 100.331 307.26C104.943 303.04 125.218 283.981 129.238 278.59C127.049 272.671 118.643 252.992 115.291 240.604C111.415 226.283 107.717 205.41 110.501 196.022C112.013 190.92 115.704 188.847 122.211 191.919C136.985 198.895 138.34 250.611 138.103 252.741C138.096 252.798 136.166 266.903 136.303 266.908C143.656 254.977 148.541 245.93 153.628 232.768C150.187 226.19 125.671 176.6 130.287 161.678C130.691 160.397 131.43 159.316 132.405 158.583C133.791 157.382 135.686 157.226 137.328 158.176C147.052 162.769 158.422 196.272 161.782 209.315L168.883 185.364C163.249 174.866 158.3 163.925 154.081 152.641C149.732 140.544 148.497 120.054 151.529 110.275C152.838 106.061 154.826 103.765 157.871 105.079C159.048 105.649 160.137 106.467 161.082 107.486C172.029 118.622 173.025 150.313 173.168 162.813C174.831 156.164 175.679 149.214 175.689 142.161C175.657 139.911 178.102 114.24 183.915 94.1681C188.379 78.7567 195.694 65.6195 202.269 68.7049C209.741 72.2112 209.567 88.5903 204.621 105.311C199.191 123.67 188.459 143.575 180.22 155.222C177.216 166.637 176.37 172.421 173.107 183.263C173.107 183.263 196.065 138.13 209.778 144.606C223.928 151.288 180.413 201.456 166.006 207.214C163.647 215.219 160.925 223.047 157.853 230.667C168.01 219.932 189.563 195.129 200.474 200.281C204.857 202.351 205.204 208.623 203.953 212.845C198.134 232.468 149 252.426 149 252.426C145.707 259.616 142.049 266.548 138.042 273.191C138.042 273.191 173.642 238.91 184.716 257.993C195.667 276.865 143.589 293.081 126.043 289.367C124.221 291.439 98.2814 315.993 89.0294 325.132C89.2582 325.024 98.5312 321.428 98.5312 321.428C98.5312 321.428 149.075 299.269 153.362 322.746C157.125 343.354 99.7974 350.695 75.2793 339.118C62.2014 349.564 56.2637 350.617 56.2637 350.617C55.1084 350.847 53.9034 350.746 52.7496 350.322C51.3969 349.722 50.848 348.639 51.7083 345.736Z" fill="url(#paint1_linear_2731_2732)"/>
<g clip-path="url(#clip0_2731_2732)">
<path d="M166.002 415.088C166.002 415.088 195.841 342.2 94.513 259.985C94.513 259.985 67.7626 362.566 166.002 415.088Z" fill="url(#paint2_linear_2731_2732)"/>
<path d="M164.729 417.374C164.729 417.374 238.535 389.998 230.033 259.985C230.033 259.985 136.52 309.708 164.729 417.374Z" fill="url(#paint3_linear_2731_2732)"/>
<path d="M169.232 409.752C169.232 409.752 226.605 356.65 170.259 239.407C170.259 239.407 103.184 320.617 169.232 409.752Z" fill="url(#paint4_linear_2731_2732)"/>
<path d="M153.329 402.512C153.329 402.512 129.866 270.501 19.5183 340.833C19.5183 340.833 44.9042 390.51 153.329 402.512Z" fill="url(#paint5_linear_2731_2732)"/>
<path d="M167.813 401.991C167.813 401.991 152.3 363.289 102.749 366.929C53.1979 370.57 35.9088 408.045 35.9088 408.045C35.9088 408.045 103.854 446.762 164.216 417.464L167.813 401.991Z" fill="url(#paint6_linear_2731_2732)"/>
</g>
<defs>
<linearGradient id="paint0_linear_2731_2732" x1="270.418" y1="205.897" x2="51.4877" y2="-29.806" gradientUnits="userSpaceOnUse">
<stop/>
<stop offset="0.60345" stop-color="#6633CC"/>
<stop offset="1" stop-color="#FF9CAA"/>
</linearGradient>
<linearGradient id="paint1_linear_2731_2732" x1="120.171" y1="422.559" x2="235.044" y2="147.923" gradientUnits="userSpaceOnUse">
<stop/>
<stop offset="0.60345" stop-color="#6633CC"/>
<stop offset="1" stop-color="#FF9CAA"/>
</linearGradient>
<linearGradient id="paint2_linear_2731_2732" x1="6.79182" y1="424.685" x2="159.803" y2="388.068" gradientUnits="userSpaceOnUse">
<stop stop-color="#FFA5A5"/>
<stop offset="1" stop-color="#311172"/>
</linearGradient>
<linearGradient id="paint3_linear_2731_2732" x1="242.38" y1="449.036" x2="105.272" y2="378.648" gradientUnits="userSpaceOnUse">
<stop/>
<stop offset="0.60345" stop-color="#4D2899"/>
<stop offset="1" stop-color="#FF9CAA"/>
</linearGradient>
<linearGradient id="paint4_linear_2731_2732" x1="84.5394" y1="361.11" x2="162.066" y2="399.178" gradientUnits="userSpaceOnUse">
<stop stop-color="#FFA5A5"/>
<stop offset="1" stop-color="#4A219B"/>
</linearGradient>
<linearGradient id="paint5_linear_2731_2732" x1="170.73" y1="397.57" x2="34.5989" y2="389.418" gradientUnits="userSpaceOnUse">
<stop/>
<stop offset="0.60345" stop-color="#6633CC"/>
<stop offset="1" stop-color="#FF9CAA"/>
</linearGradient>
<linearGradient id="paint6_linear_2731_2732" x1="257.285" y1="378.081" x2="62.2448" y2="458.822" gradientUnits="userSpaceOnUse">
<stop/>
<stop offset="0.60345" stop-color="#6633CC"/>
<stop offset="1" stop-color="#FF9CAA"/>
</linearGradient>
<clipPath id="clip0_2731_2732">
<rect width="211.2" height="189.019" fill="white" transform="matrix(-1 0 0 1 230.715 239.407)"/>
</clipPath>
</defs>
</svg>
