<svg width="30" height="33" viewBox="0 0 30 33" fill="none" xmlns="http://www.w3.org/2000/svg">
<path d="M11.2353 23.647L13.4313 21.3725L10.0588 18L13.4313 14.6274L11.2353 12.3529L5.58821 18L11.2353 23.647ZM18.7647 23.647L24.4117 18L18.7647 12.3529L16.5686 14.6274L19.9411 18L16.5686 21.3725L18.7647 23.647ZM4.01958 32.1176C3.15683 32.1176 2.41827 31.8104 1.80389 31.196C1.18951 30.5817 0.882324 29.8431 0.882324 28.9804V7.01957C0.882324 6.15682 1.18951 5.41826 1.80389 4.80388C2.41827 4.1895 3.15683 3.88231 4.01958 3.88231H10.6078C10.9477 2.94114 11.5163 2.18297 12.3137 1.6078C13.1111 1.03264 14.0065 0.745056 15 0.745056C15.9934 0.745056 16.8889 1.03264 17.6862 1.6078C18.4836 2.18297 19.0523 2.94114 19.3921 3.88231H25.9804C26.8431 3.88231 27.5817 4.1895 28.1961 4.80388C28.8104 5.41826 29.1176 6.15682 29.1176 7.01957V28.9804C29.1176 29.8431 28.8104 30.5817 28.1961 31.196C27.5817 31.8104 26.8431 32.1176 25.9804 32.1176H4.01958ZM4.01958 28.9804H25.9804V7.01957H4.01958V28.9804ZM15 5.8431C15.3398 5.8431 15.6209 5.73199 15.8431 5.50976C16.0653 5.28754 16.1764 5.00649 16.1764 4.66663C16.1764 4.32676 16.0653 4.04571 15.8431 3.82349C15.6209 3.60127 15.3398 3.49015 15 3.49015C14.6601 3.49015 14.3791 3.60127 14.1568 3.82349C13.9346 4.04571 13.8235 4.32676 13.8235 4.66663C13.8235 5.00649 13.9346 5.28754 14.1568 5.50976C14.3791 5.73199 14.6601 5.8431 15 5.8431Z" fill="url(#paint0_linear_134_423)"/>
<defs>
<linearGradient id="paint0_linear_134_423" x1="-4.21961" y1="-3.67657" x2="21.0908" y2="23.7646" gradientUnits="userSpaceOnUse">
<stop stopColor="#6633CC"/>
<stop offset="1" stopColor="#F5C144"/>
</linearGradient>
</defs>
</svg>
