<svg width="28" height="28" viewBox="0 0 28 28" fill="none" xmlns="http://www.w3.org/2000/svg">
<path d="M26.5999 1.41994C25.8199 0.639942 24.5599 0.639942 23.7799 1.41994L13.9999 11.1799L4.21994 1.39994C3.43994 0.619941 2.17994 0.619941 1.39994 1.39994C0.619941 2.17994 0.619941 3.43994 1.39994 4.21994L11.1799 13.9999L1.39994 23.7799C0.619941 24.5599 0.619941 25.8199 1.39994 26.5999C2.17994 27.3799 3.43994 27.3799 4.21994 26.5999L13.9999 16.8199L23.7799 26.5999C24.5599 27.3799 25.8199 27.3799 26.5999 26.5999C27.3799 25.8199 27.3799 24.5599 26.5999 23.7799L16.8199 13.9999L26.5999 4.21994C27.3599 3.45994 27.3599 2.17994 26.5999 1.41994Z" fill="#FCF7FF"/>
</svg>
