<svg width="103" height="154" viewBox="0 0 103 154" fill="none" xmlns="http://www.w3.org/2000/svg">
<path fill-rule="evenodd" clip-rule="evenodd" d="M36.5405 53.9014C35.382 52.8556 33.2441 50.4984 30.4439 44.8882C26.8405 37.6654 29.9562 28.9724 29.9562 28.9724C30.1687 30.0268 30.2679 36.5398 34.4465 41.9057C36.479 44.516 37.1115 47.3646 37.3856 49.8666C37.8395 47.9128 38.3279 46.0806 38.8365 44.3744C35.6539 41.3241 34.6475 37.3536 32.9648 28.8558C31.2498 20.1964 35.5583 15.6225 35.5583 15.6225C35.5583 15.6225 34.6569 25.1823 38.3897 31.6166C40.1065 34.5764 40.357 37.5029 40.2591 40.0181C40.5534 39.1919 40.8475 38.4034 41.1378 37.6592C41.5296 36.6568 41.9238 35.7092 42.3155 34.8096C40.0917 30.2891 39.9178 26.0547 42.5687 16.6315C45.2892 6.96974 49.736 6.06297 49.736 6.06297C49.736 6.06297 46.3895 10.0675 46.1542 17.6813C46.0101 22.3481 44.7303 28.1002 43.7542 31.6941C45.0076 29.0888 46.4491 26.5877 48.067 24.2102C49.5025 18.6661 53.1958 11.1306 56.4813 8.11443C60.0898 4.79928 63.1882 2.43211 63.1882 2.43211C62.7416 8.99018 58.4218 14.2769 57.1681 15.707C63.5273 8.88876 73.4103 7.66826 73.4103 7.66826C70.1519 9.30914 66.5743 19.3252 60.0907 21.4051C55.6971 22.8143 51.4492 24.3044 49.3089 25.1532C48.1054 26.8922 45.5457 30.941 43.0253 37.094C44.0738 35.7844 45.3472 34.056 48.9773 29.5945C54.1496 23.2384 63.5972 23.1879 63.5972 23.1879C58.3838 25.0179 54.5701 31.2082 49.9742 35.2898C47.6041 37.3488 44.8682 38.9487 41.8903 40.0173C41.2328 41.8252 40.5704 43.8414 39.9428 46.053C42.6916 42.9681 47.3836 38.441 51.8136 37.0009C54.9721 35.9724 59.7545 32.317 59.7545 32.317C59.7545 32.317 60.0089 38.3634 52.8321 42.2692C46.3572 45.7929 43.3599 47.4212 39.2419 48.6823C38.6902 50.8786 38.1835 53.2452 37.7502 55.7706C39.3416 52.6527 42.0046 48.962 46.3272 48.1891C54.0655 46.8075 56.0133 42.8441 56.0133 42.8441C56.0133 42.8441 57.3725 46.8298 47.5046 54.5488C41.8531 58.969 38.7091 60.296 37.0518 60.5718C36.8399 62.3171 36.6701 64.1272 36.5424 66.0026C38.3664 63.0877 42.358 58.2346 48.2264 57.207C51.2971 56.6691 55.3888 55.2262 55.3888 55.2262C55.3888 55.2262 50.6822 61.8498 44.593 65.5989C39.2294 68.9005 37.5707 68.9609 36.4079 68.5401L36.5383 78.9912C36.5615 79.4109 36.2434 79.7488 35.8283 79.7464C35.4126 79.7441 35.0571 79.4019 35.0339 78.9826C34.862 75.8253 34.7704 72.7234 34.8515 69.8223C33.3755 69.6353 31.9947 68.8774 31.0046 67.7106C28.9806 65.3301 29.8648 62.9865 28.7097 62.2976C28.7097 62.2976 31.6922 62.2559 32.4753 64.0123C33.2582 65.7682 33.1143 66.6628 34.2073 67.858C34.4259 68.0611 34.6582 68.2479 34.9019 68.418C34.9771 66.6175 35.0934 64.8703 35.2522 63.176C32.8455 61.9939 29.667 59.0626 25.4917 53.9885C20.8777 48.3823 23.9154 38.566 23.9154 38.566C23.9154 38.566 23.631 42.7186 29.7178 50.8165C33.2728 55.5462 34.7497 59.2162 35.4451 61.2713L36.5405 53.9014Z" fill="url(#paint0_linear_2733_3208)"/>
<path fill-rule="evenodd" clip-rule="evenodd" d="M84.5376 123.693C84.1629 122.43 81.1571 121.874 74.2036 116.362C73.9309 113.763 72.8397 104.518 70.8795 97.9064C69.2197 92.3083 66.8025 88.0909 64.1509 89.3429C61.1745 90.7483 61.9881 96.9951 63.4714 101.893C64.3361 104.795 65.5729 107.503 67.1421 109.928C65.4919 108.418 58.2383 101.599 56.7998 99.6706C57.5832 97.5529 60.5905 90.5126 61.7899 86.0803C63.1764 80.957 64.4993 73.4892 63.5035 70.1303C62.9624 68.3052 61.6421 67.5633 59.3141 68.6623C54.0283 71.1582 53.5434 89.6604 53.6284 90.4226C53.6307 90.4431 54.3214 95.4891 54.2722 95.4913C51.6417 91.2226 49.894 87.9857 48.0739 83.2769C49.3051 80.9236 58.0762 63.1818 56.4248 57.8433C56.2802 57.3849 56.0156 56.9983 55.6668 56.7358C55.171 56.3063 54.4929 56.2506 53.9057 56.5904C50.4267 58.2336 46.3589 70.2199 45.1569 74.8861L42.6164 66.3172C44.6317 62.5614 46.4025 58.6473 47.9118 54.61C49.4677 50.2821 49.9097 42.9516 48.8251 39.4529C48.3566 37.9453 47.6454 37.1238 46.5558 37.5937C46.1349 37.7978 45.7454 38.0903 45.4072 38.4552C41.4906 42.4392 41.1345 53.7773 41.0833 58.2493C40.4884 55.8704 40.1849 53.384 40.1812 50.8605C40.1926 50.0557 39.3178 40.8714 37.2381 33.6903C35.6413 28.1766 33.0242 23.4766 30.6719 24.5804C27.9986 25.8348 28.061 31.6948 29.8303 37.677C31.773 44.2452 35.6124 51.3666 38.5603 55.5335C39.6349 59.6174 39.9378 61.6866 41.1051 65.5656C41.1051 65.5656 32.8913 49.4187 27.9854 51.7354C22.9231 54.1259 38.4912 72.0747 43.6456 74.1345C44.4895 76.9984 45.4632 79.7991 46.5626 82.5252C42.9286 78.6845 35.2177 69.8107 31.3138 71.6542C29.7459 72.3946 29.6218 74.6386 30.0695 76.1491C32.1511 83.1697 49.7297 90.31 49.7297 90.31C50.9077 92.8822 52.2165 95.3624 53.6502 97.7389C53.6502 97.7389 40.9136 85.4745 36.9518 92.3016C33.0338 99.0533 51.6654 104.855 57.9429 103.526C58.5947 104.268 67.8752 113.052 71.1853 116.322C71.1034 116.283 67.7858 114.996 67.7858 114.996C67.7858 114.996 49.7028 107.069 48.1691 115.468C46.8229 122.841 67.3329 125.467 76.1046 121.325C80.7835 125.063 82.9078 125.439 82.9078 125.439C83.3211 125.522 83.7522 125.486 84.1651 125.334C84.649 125.119 84.8454 124.732 84.5376 123.693Z" fill="url(#paint1_linear_2733_3208)"/>
<g clip-path="url(#clip0_2733_3208)">
<path d="M43.6463 148.505C43.6463 148.505 32.9711 122.428 69.2229 93.0145C69.2229 93.0145 78.7933 129.715 43.6463 148.505Z" fill="url(#paint2_linear_2733_3208)"/>
<path d="M44.1019 149.323C44.1019 149.323 17.6962 139.529 20.7381 93.0145C20.7381 93.0145 54.194 110.804 44.1019 149.323Z" fill="url(#paint3_linear_2733_3208)"/>
<path d="M42.4914 146.596C42.4914 146.596 21.9652 127.598 42.1241 85.652C42.1241 85.652 66.1211 114.707 42.4914 146.596Z" fill="url(#paint4_linear_2733_3208)"/>
<path d="M48.1807 144.006C48.1807 144.006 56.575 96.7765 96.0539 121.939C96.0539 121.939 86.9716 139.712 48.1807 144.006Z" fill="url(#paint5_linear_2733_3208)"/>
<path d="M42.998 143.819C42.998 143.819 48.5482 129.973 66.276 131.276C84.0038 132.578 90.1893 145.985 90.1893 145.985C90.1893 145.985 65.8808 159.837 44.285 149.355L42.998 143.819Z" fill="url(#paint6_linear_2733_3208)"/>
</g>
<defs>
<linearGradient id="paint0_linear_2733_3208" x1="6.29014" y1="73.6633" x2="84.6163" y2="-10.6637" gradientUnits="userSpaceOnUse">
<stop/>
<stop offset="0.60345" stop-color="#6633CC"/>
<stop offset="1" stop-color="#FF9CAA"/>
</linearGradient>
<linearGradient id="paint1_linear_2733_3208" x1="60.0439" y1="151.178" x2="18.9461" y2="52.9222" gradientUnits="userSpaceOnUse">
<stop/>
<stop offset="0.60345" stop-color="#6633CC"/>
<stop offset="1" stop-color="#FF9CAA"/>
</linearGradient>
<linearGradient id="paint2_linear_2733_3208" x1="100.607" y1="151.939" x2="45.8643" y2="138.838" gradientUnits="userSpaceOnUse">
<stop stop-color="#FFA5A5"/>
<stop offset="1" stop-color="#311172"/>
</linearGradient>
<linearGradient id="paint3_linear_2733_3208" x1="16.3208" y1="160.651" x2="65.3735" y2="135.468" gradientUnits="userSpaceOnUse">
<stop/>
<stop offset="0.60345" stop-color="#4D2899"/>
<stop offset="1" stop-color="#FF9CAA"/>
</linearGradient>
<linearGradient id="paint4_linear_2733_3208" x1="72.7917" y1="129.194" x2="45.0551" y2="142.813" gradientUnits="userSpaceOnUse">
<stop stop-color="#FFA5A5"/>
<stop offset="1" stop-color="#4A219B"/>
</linearGradient>
<linearGradient id="paint5_linear_2733_3208" x1="41.9551" y1="142.238" x2="90.6585" y2="139.321" gradientUnits="userSpaceOnUse">
<stop/>
<stop offset="0.60345" stop-color="#6633CC"/>
<stop offset="1" stop-color="#FF9CAA"/>
</linearGradient>
<linearGradient id="paint6_linear_2733_3208" x1="10.9879" y1="135.265" x2="80.7671" y2="164.152" gradientUnits="userSpaceOnUse">
<stop/>
<stop offset="0.60345" stop-color="#6633CC"/>
<stop offset="1" stop-color="#FF9CAA"/>
</linearGradient>
<clipPath id="clip0_2733_3208">
<rect width="75.5606" height="67.625" fill="white" transform="translate(20.4941 85.6521)"/>
</clipPath>
</defs>
</svg>
