<svg width="25" height="25" viewBox="0 0 25 25" fill="none" xmlns="http://www.w3.org/2000/svg">
<path d="M12.5 22.5C11.95 22.5 11.4792 22.3042 11.0875 21.9125C10.6958 21.5208 10.5 21.05 10.5 20.5H14.5C14.5 21.05 14.3042 21.5208 13.9125 21.9125C13.5208 22.3042 13.05 22.5 12.5 22.5ZM8.5 19.5V17.5H16.5V19.5H8.5ZM8.75 16.5C7.6 15.8167 6.6875 14.9 6.0125 13.75C5.3375 12.6 5 11.35 5 10C5 7.91667 5.72917 6.14583 7.1875 4.6875C8.64583 3.22917 10.4167 2.5 12.5 2.5C14.5833 2.5 16.3542 3.22917 17.8125 4.6875C19.2708 6.14583 20 7.91667 20 10C20 11.35 19.6625 12.6 18.9875 13.75C18.3125 14.9 17.4 15.8167 16.25 16.5H8.75ZM9.35 14.5H15.65C16.4 13.9667 16.9792 13.3083 17.3875 12.525C17.7958 11.7417 18 10.9 18 10C18 8.46667 17.4667 7.16667 16.4 6.1C15.3333 5.03333 14.0333 4.5 12.5 4.5C10.9667 4.5 9.66667 5.03333 8.6 6.1C7.53333 7.16667 7 8.46667 7 10C7 10.9 7.20417 11.7417 7.6125 12.525C8.02083 13.3083 8.6 13.9667 9.35 14.5Z" fill="#FCF7FF"/>
</svg>
