<svg width="103" height="154" viewBox="0 0 103 154" fill="none" xmlns="http://www.w3.org/2000/svg">
<path fill-rule="evenodd" clip-rule="evenodd" d="M66.4585 53.9014C67.617 52.8556 69.755 50.4984 72.5552 44.8882C76.1585 37.6654 73.0429 28.9724 73.0429 28.9724C72.8303 30.0268 72.7311 36.5398 68.5526 41.9057C66.52 44.516 65.8876 47.3646 65.6135 49.8666C65.1595 47.9128 64.6711 46.0806 64.1625 44.3744C67.3451 41.3241 68.3516 37.3536 70.0343 28.8558C71.7492 20.1964 67.4407 15.6225 67.4407 15.6225C67.4407 15.6225 68.3421 25.1823 64.6093 31.6166C62.8925 34.5764 62.642 37.5029 62.74 40.0181C62.4456 39.1919 62.1515 38.4034 61.8612 37.6592C61.4694 36.6568 61.0752 35.7092 60.6835 34.8096C62.9074 30.2891 63.0812 26.0547 60.4303 16.6315C57.7099 6.96974 53.263 6.06297 53.263 6.06297C53.263 6.06297 56.6096 10.0675 56.8448 17.6813C56.9889 22.3481 58.2687 28.1002 59.2448 31.6941C57.9914 29.0888 56.55 26.5877 54.932 24.2102C53.4965 18.6661 49.8032 11.1306 46.5177 8.11443C42.9092 4.79928 39.8109 2.43211 39.8109 2.43211C40.2575 8.99018 44.5772 14.2769 45.8309 15.707C39.4717 8.88876 29.5888 7.66826 29.5888 7.66826C32.8471 9.30914 36.4247 19.3252 42.9083 21.4051C47.3019 22.8143 51.5498 24.3044 53.6901 25.1532C54.8937 26.8922 57.4533 30.941 59.9738 37.094C58.9252 35.7844 57.6519 34.056 54.0217 29.5945C48.8494 23.2384 39.4019 23.1879 39.4019 23.1879C44.6152 25.0179 48.4289 31.2082 53.0248 35.2898C55.395 37.3488 58.1308 38.9487 61.1088 40.0173C61.7662 41.8252 62.4286 43.8414 63.0562 46.053C60.3074 42.9681 55.6154 38.441 51.1854 37.0009C48.027 35.9724 43.2445 32.317 43.2445 32.317C43.2445 32.317 42.9901 38.3634 50.167 42.2692C56.6419 45.7929 59.6391 47.4212 63.7571 48.6823C64.3088 50.8786 64.8156 53.2452 65.2488 55.7706C63.6574 52.6527 60.9945 48.962 56.6719 48.1891C48.9335 46.8075 46.9857 42.8441 46.9857 42.8441C46.9857 42.8441 45.6265 46.8298 55.4945 54.5488C61.1459 58.969 64.2899 60.296 65.9472 60.5718C66.1591 62.3171 66.3289 64.1272 66.4566 66.0026C64.6327 63.0877 60.641 58.2346 54.7726 57.207C51.702 56.6691 47.6102 55.2262 47.6102 55.2262C47.6102 55.2262 52.3168 61.8498 58.406 65.5989C63.7696 68.9005 65.4283 68.9609 66.5911 68.5401L66.4608 78.9912C66.4375 79.4109 66.7556 79.7488 67.1708 79.7464C67.5864 79.7441 67.9419 79.4019 67.9651 78.9826C68.137 75.8253 68.2286 72.7234 68.1475 69.8223C69.6235 69.6353 71.0043 68.8774 71.9944 67.7106C74.0185 65.3301 73.1342 62.9865 74.2894 62.2976C74.2894 62.2976 71.3068 62.2559 70.5238 64.0123C69.7408 65.7682 69.8847 66.6628 68.7918 67.858C68.5731 68.0611 68.3408 68.2479 68.0971 68.418C68.0219 66.6175 67.9056 64.8703 67.7468 63.176C70.1535 61.9939 73.332 59.0626 77.5073 53.9885C82.1214 48.3823 79.0836 38.566 79.0836 38.566C79.0836 38.566 79.368 42.7186 73.2813 50.8165C69.7262 55.5462 68.2493 59.2162 67.5539 61.2713L66.4585 53.9014Z" fill="url(#paint0_linear_2733_3217)"/>
<path fill-rule="evenodd" clip-rule="evenodd" d="M18.4614 123.693C18.8361 122.43 21.8419 121.874 28.7954 116.362C29.0681 113.763 30.1593 104.518 32.1196 97.9064C33.7793 92.3083 36.1965 88.091 38.8481 89.3429C41.8245 90.7484 41.0109 96.9951 39.5276 101.893C38.663 104.795 37.4261 107.503 35.857 109.928C37.5071 108.418 44.7607 101.599 46.1992 99.6707C45.4158 97.553 42.4085 90.5126 41.2092 86.0804C39.8226 80.957 38.4997 73.4893 39.4955 70.1303C40.0366 68.3052 41.357 67.5634 43.6849 68.6624C48.9707 71.1583 49.4556 89.6605 49.3706 90.4227C49.3683 90.4432 48.6776 95.4892 48.7268 95.4913C51.3573 91.2226 53.1051 87.9858 54.9251 83.2769C53.6939 80.9237 44.9229 63.1819 46.5743 57.8434C46.7189 57.385 46.9834 56.9984 47.3322 56.7358C47.828 56.3063 48.5061 56.2506 49.0933 56.5905C52.5723 58.2337 56.6402 70.22 57.8421 74.8862L60.3826 66.3173C58.3673 62.5615 56.5965 58.6473 55.0872 54.6101C53.5313 50.2822 53.0893 42.9516 54.1739 39.453C54.6424 37.9454 55.3536 37.1238 56.4432 37.5938C56.8641 37.7978 57.2536 38.0904 57.5918 38.4552C61.5084 42.4392 61.8646 53.7773 61.9157 58.2494C62.5106 55.8705 62.8141 53.3841 62.8179 50.8606C62.8065 50.0558 63.6812 40.8715 65.7609 33.6904C67.3577 28.1767 69.9748 23.4766 72.3272 24.5805C75.0004 25.8349 74.9381 31.6948 73.1687 37.6771C71.2261 44.2453 67.3866 51.3667 64.4387 55.5336C63.3641 59.6175 63.0612 61.6867 61.894 65.5657C61.894 65.5657 70.1077 49.4187 75.0136 51.7354C80.076 54.126 64.5079 72.0747 59.3535 74.1346C58.5096 76.9984 57.5358 79.7992 56.4364 82.5253C60.0704 78.6846 67.7813 69.8108 71.6852 71.6542C73.2532 72.3946 73.3772 74.6386 72.9295 76.1491C70.8479 83.1698 53.2693 90.3101 53.2693 90.3101C52.0913 92.8823 50.7825 95.3624 49.3489 97.7389C49.3489 97.7389 62.0855 85.4745 66.0472 92.3017C69.9652 99.0534 51.3336 104.855 45.0561 103.526C44.4043 104.268 35.1238 113.052 31.8137 116.322C31.8956 116.283 35.2132 114.997 35.2132 114.997C35.2132 114.997 53.2962 107.069 54.8299 115.468C56.1761 122.841 35.6662 125.468 26.8944 121.325C22.2155 125.063 20.0912 125.439 20.0912 125.439C19.6779 125.522 19.2468 125.486 18.834 125.334C18.35 125.119 18.1536 124.732 18.4614 123.693Z" fill="url(#paint1_linear_2733_3217)"/>
<g clip-path="url(#clip0_2733_3217)">
<path d="M59.3537 148.505C59.3537 148.505 70.0289 122.428 33.7771 93.0145C33.7771 93.0145 24.2067 129.715 59.3537 148.505Z" fill="url(#paint2_linear_2733_3217)"/>
<path d="M58.8971 149.323C58.8971 149.323 85.3028 139.529 82.2609 93.0145C82.2609 93.0145 48.805 110.804 58.8971 149.323Z" fill="url(#paint3_linear_2733_3217)"/>
<path d="M60.5086 146.596C60.5086 146.596 81.0348 127.598 60.8759 85.6521C60.8759 85.6521 36.8789 114.707 60.5086 146.596Z" fill="url(#paint4_linear_2733_3217)"/>
<path d="M54.8193 144.006C54.8193 144.006 46.425 96.7765 6.94614 121.939C6.94614 121.939 16.0284 139.712 54.8193 144.006Z" fill="url(#paint5_linear_2733_3217)"/>
<path d="M60.001 143.82C60.001 143.82 54.4508 129.973 36.723 131.276C18.9952 132.578 12.8097 145.986 12.8097 145.986C12.8097 145.986 37.1183 159.837 58.714 149.355L60.001 143.82Z" fill="url(#paint6_linear_2733_3217)"/>
</g>
<defs>
<linearGradient id="paint0_linear_2733_3217" x1="96.7089" y1="73.6633" x2="18.3827" y2="-10.6637" gradientUnits="userSpaceOnUse">
<stop/>
<stop offset="0.60345" stop-color="#6633CC"/>
<stop offset="1" stop-color="#FF9CAA"/>
</linearGradient>
<linearGradient id="paint1_linear_2733_3217" x1="42.9552" y1="151.178" x2="84.0529" y2="52.9223" gradientUnits="userSpaceOnUse">
<stop/>
<stop offset="0.60345" stop-color="#6633CC"/>
<stop offset="1" stop-color="#FF9CAA"/>
</linearGradient>
<linearGradient id="paint2_linear_2733_3217" x1="2.39333" y1="151.939" x2="57.1357" y2="138.838" gradientUnits="userSpaceOnUse">
<stop stop-color="#FFA5A5"/>
<stop offset="1" stop-color="#311172"/>
</linearGradient>
<linearGradient id="paint3_linear_2733_3217" x1="86.6782" y1="160.651" x2="37.6255" y2="135.468" gradientUnits="userSpaceOnUse">
<stop/>
<stop offset="0.60345" stop-color="#4D2899"/>
<stop offset="1" stop-color="#FF9CAA"/>
</linearGradient>
<linearGradient id="paint4_linear_2733_3217" x1="30.2083" y1="129.194" x2="57.9449" y2="142.813" gradientUnits="userSpaceOnUse">
<stop stop-color="#FFA5A5"/>
<stop offset="1" stop-color="#4A219B"/>
</linearGradient>
<linearGradient id="paint5_linear_2733_3217" x1="61.0449" y1="142.238" x2="12.3415" y2="139.321" gradientUnits="userSpaceOnUse">
<stop/>
<stop offset="0.60345" stop-color="#6633CC"/>
<stop offset="1" stop-color="#FF9CAA"/>
</linearGradient>
<linearGradient id="paint6_linear_2733_3217" x1="92.0111" y1="135.265" x2="22.2319" y2="164.152" gradientUnits="userSpaceOnUse">
<stop/>
<stop offset="0.60345" stop-color="#6633CC"/>
<stop offset="1" stop-color="#FF9CAA"/>
</linearGradient>
<clipPath id="clip0_2733_3217">
<rect width="75.5606" height="67.625" fill="white" transform="matrix(-1 0 0 1 82.5049 85.6521)"/>
</clipPath>
</defs>
</svg>
