<svg width="3666" height="3077" viewBox="0 0 3666 3077" fill="none" xmlns="http://www.w3.org/2000/svg">
<rect width="3666" height="3077" fill="#F2F3D9"/>
<path fill-rule="evenodd" clip-rule="evenodd" d="M701.579 1512.36C721.06 1479.66 732.25 1441.45 732.25 1400.62C732.25 1279.88 634.368 1182 513.625 1182C392.882 1182 295 1279.88 295 1400.62C295 1450.01 311.373 1495.57 338.986 1532.17L294.453 1609.3C242.743 1555.01 211 1481.52 211 1400.62C211 1233.49 346.49 1098 513.625 1098C680.76 1098 816.25 1233.49 816.25 1400.62C816.25 1473.39 790.566 1540.16 747.769 1592.36L701.579 1512.36Z" fill="#DB6332"/>
<path d="M556.66 1980.75C516.434 1980.75 487.768 1972.2 470.661 1955.11C453.554 1938.02 445 1911.22 445 1874.72V1506.75H575.385V1860.17C575.385 1870.34 577.466 1877.27 581.627 1880.96C585.788 1884.2 592.261 1885.81 601.046 1885.81C607.057 1885.81 612.836 1885.35 618.384 1884.43C624.395 1883.5 629.943 1882.12 635.029 1880.27V1966.89C623.008 1971.51 611.218 1974.98 599.659 1977.29C588.562 1979.6 574.229 1980.75 556.66 1980.75Z" fill="#151E3F"/>
<path d="M768.151 1980.75C729.775 1980.75 699.722 1969.89 677.991 1948.18C656.26 1926.47 645.394 1894.59 645.394 1852.55V1645.35H775.78V1842.15C775.78 1870.8 790.344 1885.12 819.472 1885.12C830.107 1885.12 840.51 1882.81 850.682 1878.19C860.854 1873.57 868.945 1867.79 874.956 1860.86V1645.35H1005.34V1973.82H883.278L879.81 1948.87C866.864 1958.11 850.913 1965.74 831.956 1971.74C813.462 1977.75 792.193 1980.75 768.151 1980.75Z" fill="#151E3F"/>
<path d="M1067.42 1973.82V1645.35H1188.1L1191.57 1671.68C1205.9 1661.98 1221.85 1654.12 1239.42 1648.12C1257.45 1641.65 1277.1 1638.42 1298.37 1638.42C1319.64 1638.42 1336.28 1641.42 1348.31 1647.43C1360.33 1653.43 1370.04 1662.21 1377.43 1673.76C1392.23 1663.13 1408.87 1654.59 1427.37 1648.12C1446.33 1641.65 1468.52 1638.42 1493.95 1638.42C1532.32 1638.42 1560.53 1648.58 1578.56 1668.91C1596.59 1688.77 1605.61 1719.27 1605.61 1760.38V1973.82H1477.3V1775.63C1477.3 1760.84 1474.3 1750.45 1468.29 1744.44C1462.28 1737.98 1452.34 1734.74 1438.47 1734.74C1420.43 1734.74 1405.64 1741.21 1394.08 1754.15C1395 1760.15 1395.47 1765.93 1395.47 1771.47C1395.47 1776.55 1395.47 1782.33 1395.47 1788.79V1973.82H1274.79V1773.55C1274.79 1760.15 1272.48 1750.45 1267.86 1744.44C1263.23 1737.98 1254.45 1734.74 1241.5 1734.74C1232.72 1734.74 1224.16 1737.05 1215.84 1741.67C1207.52 1746.29 1200.12 1751.84 1193.65 1758.3V1973.82H1067.42Z" fill="#151E3F"/>
<path d="M1698.08 1973.82V1740.29H1650.22L1661.32 1645.35H1828.46V1973.82H1698.08Z" fill="#151E3F"/>
<path d="M1891 1973.82V1645.35H2013.06L2016.53 1670.29C2029.01 1661.98 2045.43 1654.59 2065.77 1648.12C2086.58 1641.65 2108.77 1638.42 2132.35 1638.42C2173.5 1638.42 2203.55 1648.58 2222.51 1668.91C2241.46 1689.24 2250.94 1720.65 2250.94 1763.15V1973.82H2120.56V1776.32C2120.56 1761.54 2117.32 1750.91 2110.85 1744.44C2104.38 1737.98 2093.05 1734.74 2076.87 1734.74C2067.16 1734.74 2056.98 1737.05 2046.35 1741.67C2036.18 1746.29 2027.86 1751.84 2021.38 1758.3V1973.82H1891Z" fill="#151E3F"/>
<path d="M2309.56 1973.82V1645.35H2435.09L2438.55 1671.68C2451.96 1663.83 2469.07 1656.67 2489.88 1650.2C2510.68 1643.73 2531.72 1639.8 2552.99 1638.42V1735.43C2540.97 1736.36 2527.79 1737.98 2513.46 1740.29C2499.59 1742.6 2485.95 1745.6 2472.54 1749.29C2459.59 1752.53 2448.73 1756.22 2439.94 1760.38V1973.82H2309.56Z" fill="#151E3F"/>
<path d="M2911.81 1980.75C2852.16 1980.75 2805 1966.66 2770.33 1938.48C2735.65 1909.84 2718.31 1866.87 2718.31 1809.58C2718.31 1770.78 2726.4 1738.67 2742.58 1713.26C2758.77 1687.85 2781.42 1669.14 2810.55 1657.13C2839.68 1644.65 2873.66 1638.42 2912.5 1638.42C2937.01 1638.42 2958.97 1640.26 2978.39 1643.96C2997.81 1647.19 3016.3 1652.97 3033.87 1661.29V1752.76C3006.59 1739.82 2975.61 1733.36 2940.94 1733.36C2911.34 1733.36 2888.92 1738.9 2873.66 1749.99C2858.87 1761.08 2851.47 1780.94 2851.47 1809.58C2851.47 1836.38 2858.64 1855.78 2872.97 1867.79C2887.3 1879.81 2909.96 1885.81 2940.94 1885.81C2957.58 1885.81 2973.76 1883.96 2989.48 1880.27C3005.2 1876.11 3020.23 1870.34 3034.56 1862.94V1958.57C3016.99 1966.43 2998.04 1971.97 2977.69 1975.21C2957.81 1978.9 2935.85 1980.75 2911.81 1980.75Z" fill="#151E3F"/>
<path d="M3261.25 1980.75C3195.6 1980.75 3147.05 1966.2 3115.61 1937.09C3084.63 1907.99 3069.14 1865.48 3069.14 1809.58C3069.14 1754.15 3084.86 1711.87 3116.3 1682.77C3147.74 1653.2 3196.06 1638.42 3261.25 1638.42C3326.91 1638.42 3375.45 1653.2 3406.89 1682.77C3438.8 1711.87 3454.75 1754.15 3454.75 1809.58C3454.75 1865.48 3439.03 1907.99 3407.59 1937.09C3376.15 1966.2 3327.37 1980.75 3261.25 1980.75ZM3261.25 1885.81C3282.52 1885.81 3297.78 1879.81 3307.03 1867.79C3316.74 1855.78 3321.59 1836.38 3321.59 1809.58C3321.59 1783.25 3316.74 1764.08 3307.03 1752.07C3297.78 1739.59 3282.52 1733.36 3261.25 1733.36C3240.45 1733.36 3225.42 1739.59 3216.17 1752.07C3206.93 1764.08 3202.3 1783.25 3202.3 1809.58C3202.3 1836.38 3206.93 1855.78 3216.17 1867.79C3225.42 1879.81 3240.45 1885.81 3261.25 1885.81Z" fill="#151E3F"/>
<path d="M2667.18 1920.97C2667.18 1950.16 2643.5 1973.82 2614.28 1973.82C2585.07 1973.82 2561.39 1950.16 2561.39 1920.97C2561.39 1891.78 2585.07 1868.11 2614.28 1868.11C2643.5 1868.11 2667.18 1891.78 2667.18 1920.97Z" fill="#DB6332"/>
<path d="M1794.6 1566.6C1794.6 1595.79 1770.92 1619.46 1741.7 1619.46C1712.49 1619.46 1688.81 1595.79 1688.81 1566.6C1688.81 1537.41 1712.49 1513.75 1741.7 1513.75C1770.92 1513.75 1794.6 1537.41 1794.6 1566.6Z" fill="#DB6332"/>
</svg>
