<?xml version="1.0" encoding="utf-8"?>
<!-- Generator: Adobe Illustrator 23.1.1, SVG Export Plug-In . SVG Version: 6.00 Build 0)  -->
<svg version="1.1" id="Layer_1" xmlns="http://www.w3.org/2000/svg" xmlns:xlink="http://www.w3.org/1999/xlink" x="0px" y="0px"
	 viewBox="0 0 770.16 299.03" style="enable-background:new 0 0 770.16 299.03;" xml:space="preserve">
<style type="text/css">
	.st0{fill:none;}
	.st1{fill:#FFFFFF;}
	.st2{fill:#A4CE4E;}
	.st3{fill:#0090DA;}
	.st4{fill:#0061A0;}
</style>
<g>
	<rect x="0" class="st0" width="770.16" height="299.03"/>
	<g>
		<path class="st1" d="M560.45,126.52c-5.67,0-10.35-4.68-10.35-10.36c0-5.67,4.68-10.35,10.35-10.35c5.82,0,10.36,4.54,10.36,10.35
			C570.8,121.84,566.12,126.52,560.45,126.52z M268.29,193.19h18.37l2.17-55.23l18.62,32.78h9.95l17.6-33.16l2.42,55.61h19.26
			l-3.95-85.08h-18.37l-21.68,39.92l-22.19-39.92h-18.24L268.29,193.19z M416.13,175.08c-1.36,1.02-3.53,2.23-6.5,3.64
			c-2.98,1.4-6.85,2.1-11.61,2.1c-4.85,0-8.65-1.21-11.42-3.64c-2.76-2.42-4.19-5.25-4.27-8.48h42.6v-3.06
			c0-5.02-0.64-9.63-1.91-13.84c-1.28-4.21-3.17-7.82-5.68-10.84c-2.51-3.02-5.59-5.38-9.25-7.08c-3.66-1.7-7.91-2.55-12.76-2.55
			c-4.85,0-9.18,0.87-13.01,2.61c-3.83,1.74-7.06,4.06-9.69,6.95c-2.64,2.89-4.66,6.27-6.06,10.14c-1.4,3.87-2.11,7.89-2.11,12.05
			c0,4.76,0.74,9.12,2.23,13.07c1.49,3.96,3.66,7.34,6.51,10.14c2.85,2.81,6.31,5,10.39,6.57c4.08,1.57,8.67,2.36,13.78,2.36
			c3.83,0,7.23-0.36,10.2-1.09c2.98-0.72,5.55-1.55,7.72-2.49c2.17-0.93,3.93-1.89,5.29-2.87c1.36-0.98,2.38-1.68,3.06-2.1
			L416.13,175.08z M382.32,156.96c0-1.28,0.28-2.57,0.83-3.89c0.55-1.32,1.36-2.53,2.42-3.63c1.06-1.11,2.4-2.02,4.02-2.74
			c1.61-0.72,3.49-1.08,5.61-1.08c2.13,0,3.95,0.36,5.49,1.08c1.53,0.72,2.81,1.64,3.83,2.74c1.02,1.11,1.79,2.32,2.29,3.63
			c0.51,1.32,0.77,2.61,0.77,3.89H382.32z M487.25,193.19h55.97v-15.75h-36.7v-69.33h-19.26V193.19z M551.27,193.19h18.37v-59.82
			h-9.19h-9.18V193.19z M631.99,112.06c-2.72-2.3-5.74-3.91-9.06-4.85c-3.32-0.94-6.59-1.4-9.82-1.4c-3.06,0-6.06,0.49-8.99,1.47
			c-2.93,0.98-5.55,2.47-7.84,4.46c-2.3,2-4.14,4.53-5.55,7.59c-1.4,3.06-2.11,6.72-2.11,10.97v3.06h-9.69v14.41h9.69v45.41h18.24
			v-45.41h14.16v-14.41h-14.16v-3.32c0-2.98,0.76-5.27,2.3-6.89c1.53-1.61,3.57-2.42,6.12-2.42c1.61,0,3.19,0.26,4.72,0.76
			c1.53,0.51,2.93,1.24,4.21,2.17L631.99,112.06z M472.98,177.24c-1.19,0.85-2.47,1.59-3.83,2.23c-1.36,0.64-2.98,0.96-4.85,0.96
			c-2.47,0-4.27-0.79-5.42-2.36c-1.15-1.57-1.72-3.81-1.72-6.7v-23.6h15.43v-14.41h-15.43v-16.03h-18.37v16.03h-9.47v14.41h9.47
			v22.58c0,3.74,0.38,7.14,1.15,10.21c0.77,3.06,2.04,5.68,3.83,7.84c1.78,2.17,4.12,3.87,7.02,5.1c2.89,1.23,6.46,1.85,10.71,1.85
			c6.8,0,13.1-2.3,18.88-6.89L472.98,177.24z M676.28,175.08c-1.36,1.02-3.53,2.23-6.5,3.64c-2.98,1.4-6.85,2.1-11.61,2.1
			c-4.85,0-8.65-1.21-11.42-3.64c-2.76-2.42-4.19-5.25-4.27-8.48h42.6v-3.06c0-5.02-0.64-9.63-1.91-13.84
			c-1.28-4.21-3.17-7.82-5.68-10.84c-2.51-3.02-5.59-5.38-9.25-7.08c-3.66-1.7-7.91-2.55-12.76-2.55c-4.85,0-9.18,0.87-13.01,2.61
			c-3.83,1.74-7.06,4.06-9.69,6.95c-2.64,2.89-4.66,6.27-6.06,10.14c-1.4,3.87-2.11,7.89-2.11,12.05c0,4.76,0.74,9.12,2.23,13.07
			c1.49,3.96,3.66,7.34,6.51,10.14c2.85,2.81,6.31,5,10.4,6.57c4.08,1.57,8.67,2.36,13.78,2.36c3.83,0,7.23-0.36,10.2-1.09
			c2.98-0.72,5.55-1.55,7.72-2.49c2.17-0.93,3.93-1.89,5.29-2.87c1.36-0.98,2.38-1.68,3.06-2.1L676.28,175.08z M642.48,156.96
			c0-1.28,0.27-2.57,0.83-3.89c0.55-1.32,1.36-2.53,2.42-3.63c1.06-1.11,2.4-2.02,4.02-2.74c1.61-0.72,3.49-1.08,5.61-1.08
			c2.13,0,3.95,0.36,5.48,1.08c1.53,0.72,2.81,1.64,3.83,2.74c1.02,1.11,1.79,2.32,2.3,3.63c0.51,1.32,0.77,2.61,0.77,3.89H642.48z"
			/>
		<g>
			<path id="XMLID_5_" class="st2" d="M155.05,126.84c14.45,19.13,23.02,42.96,23.02,68.8c0,6.24-0.51,12.35-1.47,18.32h41.83
				c3.64,0,6.59-2.96,6.59-6.6V91.7c0-4.31-4.06-7.5-8.22-6.4C191.83,91.89,170.21,106.78,155.05,126.84z"/>
			<path id="XMLID_4_" class="st3" d="M133.5,213.95c-0.96-5.96-1.47-12.08-1.47-18.32c0-25.84,8.58-49.67,23.02-68.8
				C139.9,106.78,118.28,91.89,93.3,85.3c-4.16-1.1-8.22,2.09-8.22,6.4v115.65c0,3.65,2.95,6.6,6.59,6.6H133.5z"/>
			<path id="XMLID_2_" class="st4" d="M155.05,126.84c-14.45,19.13-23.02,42.96-23.02,68.8c0,6.24,0.51,12.35,1.47,18.32h43.11
				c0.96-5.96,1.47-12.08,1.47-18.32C178.08,169.8,169.5,145.97,155.05,126.84z"/>
		</g>
	</g>
</g>
</svg>
