<svg width="772" height="176" viewBox="0 0 972 155" fill="none" xmlns="http://www.w3.org/2000/svg">
<path d="M253.693 34.8319C261.596 34.8319 268.555 36.0992 274.569 38.6338C280.669 41.0809 285.952 44.708 290.42 49.5149L279.724 64.0669C276.03 60.1339 272.035 57.2061 267.739 55.2833C263.529 53.2731 258.718 52.268 253.306 52.268C250.127 52.268 247.55 52.6176 245.574 53.3168C243.598 54.016 242.18 54.9774 241.321 56.201C240.462 57.4246 240.033 58.8229 240.033 60.3961C240.033 62.2315 240.849 63.8047 242.481 65.1157C244.199 66.3393 246.949 67.3881 250.729 68.2621L265.033 71.5395C273.538 73.5497 279.767 76.4776 283.719 80.3231C287.671 84.1687 289.647 89.2815 289.647 95.6617C289.647 101.78 288.1 106.98 285.007 111.262C281.915 115.458 277.662 118.648 272.249 120.833C266.837 122.93 260.651 123.979 253.693 123.979C248.022 123.979 242.61 123.367 237.455 122.144C232.301 120.833 227.661 118.997 223.538 116.637C219.414 114.278 215.934 111.568 213.099 108.509L223.795 93.433C225.943 95.9676 228.563 98.2399 231.656 100.25C234.835 102.173 238.271 103.702 241.966 104.839C245.746 105.975 249.569 106.543 253.435 106.543C256.442 106.543 258.933 106.237 260.909 105.625C262.971 105.013 264.474 104.096 265.42 102.872C266.365 101.649 266.837 100.206 266.837 98.5458C266.837 96.7105 266.193 95.181 264.904 93.9574C263.615 92.6464 261.167 91.5539 257.559 90.6799L241.837 87.1403C237.026 86.0041 232.73 84.5183 228.95 82.6829C225.256 80.7601 222.335 78.2255 220.187 75.0792C218.039 71.8454 216.965 67.8251 216.965 63.0181C216.965 57.5994 218.426 52.7924 221.347 48.5973C224.268 44.3147 228.478 40.9498 233.976 38.5027C239.474 36.0555 246.046 34.8319 253.693 34.8319Z" fill="#F0EDE5"/>
<path d="M335.978 123.979C328.848 123.979 322.662 122.624 317.422 119.915C312.267 117.206 308.272 113.316 305.437 108.247C302.602 103.178 301.184 97.0601 301.184 89.8933C301.184 82.7266 302.602 76.6087 305.437 71.5395C308.272 66.4704 312.224 62.5811 317.293 59.8717C322.447 57.1624 328.332 55.8077 334.948 55.8077C341.735 55.8077 347.491 57.1624 352.216 59.8717C357.027 62.4937 360.678 66.1645 363.169 70.884C365.661 75.5162 366.907 80.8475 366.907 86.8781C366.907 88.4512 366.864 90.0244 366.778 91.5976C366.692 93.1708 366.563 94.4818 366.391 95.5306H315.36V83.6006H356.726L346.288 87.6646C346.288 82.4207 345.343 78.4003 343.453 75.6036C341.649 72.8068 338.814 71.4084 334.948 71.4084C332.198 71.4084 329.836 72.0639 327.86 73.3749C325.97 74.6859 324.509 76.7398 323.478 79.5365C322.533 82.3333 322.061 85.9167 322.061 90.2866C322.061 94.5692 322.619 98.0651 323.736 100.775C324.853 103.396 326.442 105.319 328.504 106.543C330.566 107.679 333.057 108.247 335.978 108.247C339.243 108.247 341.82 107.592 343.71 106.281C345.686 104.97 347.147 103.134 348.092 100.775L365.618 106.674C364.415 110.432 362.31 113.622 359.303 116.244C356.382 118.779 352.86 120.702 348.736 122.012C344.698 123.323 340.446 123.979 335.978 123.979Z" fill="#F0EDE5"/>
<path d="M412.281 55.8077C418.81 55.8077 424.223 56.7691 428.518 58.6919C432.9 60.5272 436.293 63.0181 438.699 66.1645C441.19 69.2234 442.737 72.5446 443.338 76.128L423.106 82.9451C422.505 79.1869 421.388 76.3902 419.755 74.5548C418.209 72.632 415.932 71.6706 412.925 71.6706C410.176 71.6706 407.857 72.3261 405.967 73.6371C404.162 74.8607 402.788 76.8709 401.843 79.6676C400.898 82.377 400.425 85.873 400.425 90.1555C400.425 94.4381 400.941 97.934 401.972 100.643C403.003 103.265 404.463 105.188 406.353 106.412C408.243 107.548 410.477 108.116 413.054 108.116C415.202 108.116 416.963 107.723 418.338 106.936C419.798 106.062 421.001 104.839 421.946 103.265C422.891 101.692 423.492 99.7694 423.75 97.497L443.467 103.921C442.866 107.766 441.233 111.219 438.57 114.278C435.993 117.249 432.556 119.609 428.261 121.357C423.965 123.105 418.939 123.979 413.183 123.979C406.138 123.979 399.996 122.668 394.755 120.046C389.514 117.337 385.477 113.447 382.642 108.378C379.806 103.222 378.389 97.0601 378.389 89.8933C378.389 82.7266 379.806 76.6087 382.642 71.5395C385.477 66.383 389.429 62.4937 394.497 59.8717C399.652 57.1624 405.58 55.8077 412.281 55.8077Z" fill="#F0EDE5"/>
<path d="M479.213 123.979C474.831 123.979 470.965 123.236 467.615 121.75C464.35 120.177 461.772 117.686 459.882 114.278C457.992 110.869 457.047 106.412 457.047 100.906V57.1187H478.955V95.6617C478.955 99.8568 479.771 102.785 481.403 104.445C483.036 106.106 485.355 106.936 488.362 106.936C489.909 106.936 491.369 106.674 492.744 106.15C494.118 105.538 495.321 104.664 496.352 103.528C497.383 102.304 498.156 100.775 498.672 98.9391C499.273 97.0163 499.574 94.7877 499.574 92.2531V57.1187H521.481V122.668H501.893L501.249 110.345C499.187 114.977 496.309 118.429 492.615 120.701C488.921 122.886 484.453 123.979 479.213 123.979Z" fill="#F0EDE5"/>
<path d="M539.798 122.668V57.1187H559.128L560.031 71.2773C561.663 66.383 564.068 62.5811 567.247 59.8717C570.512 57.1624 574.635 55.8077 579.618 55.8077C581.251 55.8077 582.625 55.9388 583.742 56.201C584.945 56.4632 585.89 56.8128 586.577 57.2498L584.386 75.6036C583.527 75.254 582.41 74.9918 581.036 74.817C579.747 74.5548 578.158 74.4237 576.268 74.4237C573.69 74.4237 571.285 74.9918 569.051 76.128C566.818 77.2642 565.013 78.9684 563.639 81.2408C562.35 83.4258 561.706 86.2226 561.706 89.6311V122.668H539.798Z" fill="#F0EDE5"/>
<path d="M608.702 49.5149C604.235 49.5149 600.97 48.6847 598.908 47.0241C596.932 45.2761 595.944 42.5667 595.944 38.896C595.944 35.1378 596.932 32.4284 598.908 30.7678C600.97 29.0199 604.235 28.1459 608.702 28.1459C613.084 28.1459 616.305 29.0199 618.367 30.7678C620.429 32.4284 621.46 35.1378 621.46 38.896C621.46 42.5667 620.429 45.2761 618.367 47.0241C616.305 48.6847 613.084 49.5149 608.702 49.5149ZM619.656 57.1187V122.668H597.748V57.1187H619.656Z" fill="#F0EDE5"/>
<path d="M664.761 36.274V99.3324C664.761 102.479 665.492 104.751 666.952 106.15C668.499 107.461 670.603 108.116 673.267 108.116C675.329 108.116 677.09 107.898 678.55 107.461C680.097 106.936 681.471 106.193 682.674 105.232L684.994 118.997C682.846 120.57 680.14 121.794 676.875 122.668C673.61 123.542 670.26 123.979 666.823 123.979C661.926 123.979 657.674 123.28 654.065 121.881C650.543 120.483 647.794 118.254 645.818 115.195C643.928 112.136 642.94 108.072 642.854 103.003V42.4356L664.761 36.274ZM683.963 57.1187V72.9816H631.771V57.1187H683.963Z" fill="#F0EDE5"/>
<path d="M761.479 57.1187L738.026 122.668C735.62 129.573 733 135.079 730.165 139.186C727.33 143.294 723.979 146.266 720.113 148.101C716.247 149.936 711.608 150.854 706.195 150.854C702.587 150.854 699.279 150.461 696.272 149.674C693.266 148.888 690.645 147.795 688.412 146.397L692.793 131.32C694.339 132.457 695.972 133.243 697.69 133.68C699.408 134.205 701.599 134.467 704.262 134.467C706.754 134.467 708.773 134.03 710.319 133.156C711.951 132.282 713.24 130.621 714.185 128.174L715.86 124.11L708.386 106.281L689.056 57.1187H713.154L723.077 94.4818L726.17 108.378L729.778 93.9574L739.701 57.1187H761.479Z" fill="#F0EDE5"/>
<path d="M812.443 36.1429C819.402 36.1429 825.33 37.2791 830.227 39.5515C835.124 41.8238 838.861 45.1013 841.439 49.3838C844.016 53.6664 845.305 58.8666 845.305 64.9846C845.305 71.1025 844.016 76.3028 841.439 80.5853C838.861 84.8679 835.124 88.1453 830.227 90.4177C825.33 92.6901 819.402 93.8263 812.443 93.8263H795.562V122.668H773.397V36.1429H812.443ZM808.964 76.9146C813.603 76.9146 817.083 75.9532 819.402 74.0304C821.808 72.0202 823.011 69.0049 823.011 64.9846C823.011 60.9642 821.808 57.9927 819.402 56.0699C817.083 54.0597 813.603 53.0546 808.964 53.0546H795.562V76.9146H808.964Z" fill="#F0EDE5"/>
<path d="M896.461 81.1097C896.461 78.0507 895.602 75.6473 893.884 73.8993C892.251 72.0639 890.018 71.1462 887.182 71.1462C884.347 71.1462 881.899 71.8891 879.837 73.3749C877.861 74.7733 876.487 77.3079 875.713 80.9786L857.156 76.5213C858.359 70.2285 861.538 65.2031 866.693 61.4449C871.847 57.6868 879.107 55.8077 888.471 55.8077C894.743 55.8077 900.069 56.7691 904.451 58.6919C908.918 60.5272 912.312 63.324 914.631 67.0822C917.037 70.7529 918.24 75.2977 918.24 80.7164V104.707C918.24 108.116 919.743 109.82 922.75 109.82C924.296 109.82 925.542 109.646 926.487 109.296L925.198 122.012C922.621 123.236 919.485 123.848 915.791 123.848C912.441 123.848 909.477 123.323 906.899 122.275C904.322 121.138 902.303 119.478 900.842 117.293C899.382 115.021 898.652 112.18 898.652 108.772V107.985L901.1 107.067C901.1 110.825 899.983 113.972 897.75 116.506C895.602 119.041 892.767 120.92 889.244 122.144C885.808 123.367 882.2 123.979 878.42 123.979C874.038 123.979 870.215 123.28 866.95 121.881C863.686 120.483 861.151 118.473 859.347 115.851C857.629 113.141 856.77 109.82 856.77 105.887C856.77 101.168 858.144 97.2785 860.894 94.2196C863.729 91.0732 868.153 88.8882 874.167 87.6646L898.523 82.5518L898.394 94.3507L886.023 96.9727C883.445 97.497 881.512 98.2836 880.224 99.3324C879.021 100.294 878.42 101.78 878.42 103.79C878.42 105.713 879.107 107.155 880.481 108.116C881.856 109.077 883.488 109.558 885.378 109.558C886.839 109.558 888.213 109.34 889.502 108.903C890.877 108.466 892.079 107.81 893.11 106.936C894.141 105.975 894.958 104.795 895.559 103.396C896.16 101.998 896.461 100.338 896.461 98.4147V81.1097Z" fill="#F0EDE5"/>
<path d="M959.361 29.3258V100.381C959.361 103.265 959.834 105.319 960.779 106.543C961.724 107.766 963.313 108.378 965.547 108.378C966.836 108.378 967.91 108.291 968.769 108.116C969.628 107.941 970.659 107.679 971.861 107.329L970.444 120.701C968.898 121.663 966.879 122.449 964.387 123.061C961.896 123.673 959.447 123.979 957.042 123.979C950.169 123.979 945.186 122.362 942.093 119.128C939 115.895 937.454 110.607 937.454 103.265V29.3258H959.361Z" fill="#F0EDE5"/>
<path d="M83.7368 82.9182C80.6101 81.3911 74.4458 81.7504 71.4977 83.3674C73.1057 84.3555 75.1605 85.4335 76.6792 86.781C77.3939 89.3861 77.0366 92.081 77.1259 94.6861C77.8406 94.4166 78.734 94.4166 79.4487 94.6861C79.002 92.7997 78.466 90.8234 78.6446 88.9369C79.002 85.5233 80.61 85.2538 83.6475 83.2776C83.7368 83.3674 83.7368 82.9182 83.7368 82.9182Z" fill="#F0EDE5"/>
<path d="M93.2962 84.4455C93.1175 85.1642 93.8322 85.5235 95.8869 86.332C90.7947 97.2914 64.7977 97.2016 60.0629 86.1523C60.6882 85.7032 61.7603 85.4337 62.3856 84.715C63.279 83.8167 63.815 81.6608 61.5816 83.3676C60.0629 84.5354 55.328 86.4218 53.452 86.332C51.5759 86.2422 51.2186 87.4998 53.184 87.8591C54.7027 88.1286 56.7574 87.8591 57.7401 87.2303C58.0975 87.6795 58.4548 88.9371 60.2416 90.1947C65.4231 93.6981 70.3366 97.6507 80.6997 96.7524C84.3625 96.4829 88.5613 94.7761 91.7774 92.8897C94.3682 91.2727 95.7083 89.2964 97.763 88.3083C98.7457 87.8591 99.9071 87.6795 101.336 87.949C104.195 88.4879 104.731 86.9608 103.57 86.7812C96.959 85.8828 93.7429 82.7388 93.2962 84.4455Z" fill="#F0EDE5"/>
<path d="M146.808 33.9602C148.416 34.0501 150.382 34.2297 152.258 34.2297C152.258 34.0501 152.168 33.9602 152.168 33.8704C151.99 33.3314 151.722 32.8823 151.454 32.4331C149.935 32.6128 148.416 32.8823 146.987 33.1518L146.808 33.9602Z" fill="#F0EDE5"/>
<path d="M145.29 37.2842C147.166 38.6317 149.132 39.8893 151.008 41.2368C151.455 41.5961 152.973 41.9554 153.42 42.3147C153.509 41.6859 153.509 41.0571 153.599 40.4283C151.276 38.9012 147.613 37.5537 145.826 36.5656L145.29 37.2842Z" fill="#F0EDE5"/>
<path d="M142.878 40.3385C144.755 42.6741 148.239 46.1775 151.276 49.3216L149.847 52.5555C146.899 49.1419 142.878 44.5606 140.734 41.9555L142.878 40.3385Z" fill="#F0EDE5"/>
<path d="M137.786 43.4823C139.483 45.9077 141.002 48.8722 142.253 51.2078C142.878 52.3756 144.129 54.3519 145.201 56.418C144.397 56.8671 143.593 57.2265 142.7 57.5858C141.806 55.6993 141.002 53.9027 140.466 52.8247C139.394 50.9383 138.143 47.0755 136.893 43.8416L137.786 43.4823Z" fill="#F0EDE5"/>
<path d="M136.892 58.9334C135.909 57.1367 134.48 54.9808 134.301 53.9927C133.765 51.6571 132.425 47.7045 131.353 44.4706H131.264L129.566 44.3807C130.906 50.3994 132.693 58.2147 132.872 59.113L136.892 58.9334Z" fill="#F0EDE5"/>
<path d="M8.06823 30.906C6.63884 30.6365 5.12012 30.367 3.60139 30.1874C3.33338 30.6365 3.06537 31.1755 2.8867 31.6247C2.8867 31.7145 2.79736 31.8942 2.79736 31.984C4.5841 31.984 6.63884 31.8043 8.2469 31.7145L8.06823 30.906Z" fill="#F0EDE5"/>
<path d="M9.31951 34.4094C7.44344 35.3976 4.94201 36.8349 2.61926 38.2722C2.61926 38.901 2.7086 39.5298 2.79794 40.1586C3.24462 39.7993 3.6913 39.44 4.13799 39.0806C5.92472 37.7332 7.89012 36.3857 9.85553 35.1281L9.31951 34.4094Z" fill="#F0EDE5"/>
<path d="M12.5352 38.5417C10.3017 41.2366 7.08562 45.4587 4.31617 48.8723C4.1375 48.4231 3.95883 47.8841 3.78015 47.1655C6.72827 44.0214 10.2124 40.518 12.1778 38.1824C12.2672 38.362 12.4458 38.4519 12.5352 38.5417Z" fill="#F0EDE5"/>
<path d="M20.397 42.0449C18.4316 44.8297 16.3768 47.6144 14.6794 50.5789C14.0541 51.6568 13.3394 53.4535 12.446 55.3399C11.5526 54.9806 10.6593 54.6213 9.94458 54.1721C11.0166 52.0162 12.178 50.0399 12.8927 48.8721C14.1434 46.6263 15.6621 43.6619 17.3595 41.1466C18.2529 41.6856 19.3249 41.8653 20.397 42.0449Z" fill="#F0EDE5"/>
<path d="M27.0973 42.0454C26.1146 45.7285 23.9705 50.0404 22.9878 53.454C22.7198 54.3523 22.5411 55.6099 22.2731 56.9574C21.5584 56.9574 20.9331 56.9574 20.2184 56.9574C20.8437 54.9811 21.6478 53.0946 21.9158 51.837C22.7198 48.5132 23.9705 45.3692 25.0426 42.2251C25.7573 42.2251 26.3826 42.1352 27.0973 42.0454Z" fill="#F0EDE5"/>
<path d="M151.365 74.9233C145.469 75.1928 143.325 70.6114 139.037 68.9046C138.322 67.8267 137.608 66.6589 136.893 65.4012C142.7 66.1199 146.095 73.486 151.365 74.8335C151.365 74.8335 151.365 74.8335 151.365 74.9233Z" fill="#F0EDE5"/>
<path d="M2.08313 73.1267C7.97935 73.3962 10.1234 68.8148 14.4116 67.108C15.1263 66.03 15.841 64.8622 16.5557 63.6046C10.7488 64.3233 7.354 71.6894 2.08313 73.0369C2.08313 72.947 2.08313 73.0369 2.08313 73.1267Z" fill="#F0EDE5"/>
<path d="M26.1146 81.2117C23.9705 86.0625 25.5785 94.1473 26.3826 100.076C27.0973 97.8304 28.7053 95.5846 30.6707 94.2372C31.2961 98.2796 31.3854 103.041 32.9935 106.544C34.5122 104.927 36.4776 103.4 37.8177 101.603C38.3537 105.556 38.8004 111.036 39.2471 115.617C37.4603 113.641 36.4776 110.946 36.2989 107.981C35.2269 109.149 32.9041 109.778 31.9214 110.766C30.6707 107.173 29.152 103.849 28.7947 99.9864C27.6333 101.244 25.6679 102.052 24.5958 103.669C23.7918 97.9202 21.8264 87.7693 26.1146 81.2117Z" fill="#F0EDE5"/>
<path d="M131.085 94.6858C131.085 94.6858 129.656 98.7282 127.691 100.076C127.423 97.4705 126.261 95.7637 125.1 93.6976C124.832 98.0095 123.224 102.232 122.241 106.454C123.938 104.747 125.457 102.771 126.44 100.525C126.976 101.693 128.673 103.13 129.12 104.298C130.103 101.872 130.996 97.3807 131.085 94.6858Z" fill="#F0EDE5"/>
<path d="M69.6215 126.756C66.2267 118.851 64.2613 117.324 62.0278 115.617C62.6532 118.402 64.1719 120.917 65.0653 123.702L69.6215 126.756Z" fill="#F0EDE5"/>
<path d="M86.1495 136.098C89.3657 124.061 92.5818 121.815 94.8152 120.468C94.8152 120.468 91.9564 128.103 90.8844 130.798L86.1495 136.098Z" fill="#F0EDE5"/>
<path d="M72.3016 98.9084C75.6964 99.7168 79.8953 101.154 82.9327 98.7287C81.414 101.783 76.9472 106.364 72.3016 98.9084Z" fill="#F0EDE5"/>
<path d="M45.3231 81.6606C47.3779 79.325 50.058 77.169 54.7928 78.247C51.3087 74.1148 45.3231 77.0792 45.3231 81.6606Z" fill="#F0EDE5"/>
<path d="M100.354 78.6963C104.552 74.2047 108.573 76.0013 109.734 80.0437C107.411 78.4268 103.48 78.5166 100.8 78.4268L100.354 78.6963Z" fill="#F0EDE5"/>
<path d="M57.8291 74.1151C60.5921 74.1151 62.832 71.5813 62.832 68.4557C62.832 65.3302 60.5921 62.7964 57.8291 62.7964C55.0661 62.7964 52.8263 65.3302 52.8263 68.4557C52.8263 71.5813 55.0661 74.1151 57.8291 74.1151Z" fill="#F0EDE5"/>
<path d="M97.2262 74.1151C99.9892 74.1151 102.229 71.5813 102.229 68.4557C102.229 65.3302 99.9892 62.7964 97.2262 62.7964C94.4632 62.7964 92.2234 65.3302 92.2234 68.4557C92.2234 71.5813 94.4632 74.1151 97.2262 74.1151Z" fill="#F0EDE5"/>
<path fill-rule="evenodd" clip-rule="evenodd" d="M67.4135 46.6774L74.0435 48.5821C75.9756 49.1372 78.7885 49.9668 81.3791 50.7308C84.476 51.6441 87.2554 52.4638 87.8332 52.609C88.519 52.7814 89.2342 53.0392 89.917 53.3192C89.6366 52.5862 89.2426 51.6498 88.9945 51.234L86.318 46.7485L111.287 56.4489L111.591 56.8422C113.291 59.0403 115.52 62.9526 116.869 67.7289C118.221 72.5172 118.72 78.2908 116.789 84.1153C112.08 98.3226 101.303 102.837 98.3816 104.061L98.3607 104.07C95.8846 105.107 92.6807 107.135 89.8625 109.424C88.4626 110.561 87.1912 111.735 86.1758 112.848C85.1418 113.981 84.4517 114.965 84.119 115.718L81.7022 121.186L80.7239 115.283C80.6042 114.561 80.5159 113.818 80.4329 113.116L80.4279 113.073C80.345 112.372 80.2665 111.707 80.1636 111.061C80.1414 110.921 80.1182 110.784 80.094 110.649C80.0904 110.659 80.0868 110.669 80.0833 110.678C79.7779 111.497 79.5563 112.349 79.3034 113.323C79.1657 113.852 79.0188 114.417 78.8441 115.032L77.5413 119.617L75.5113 115.308C74.853 113.91 73.8011 111.796 72.7905 110C72.6243 109.705 72.4613 109.422 72.3035 109.155C72.1469 109.874 72.0969 110.548 72.1883 111.099L73.1048 116.629L69.1624 112.665C68.7687 112.269 68.3569 111.842 67.9244 111.393C64.9276 108.284 60.942 104.149 55.1523 102.33L55.0653 102.302L54.9814 102.266C49.8536 100.057 43.0502 93.9828 39.4705 85.6037C35.8332 77.0897 35.5352 66.2129 43.4969 54.6753L43.9162 54.0676L44.6395 53.9329C48.6804 53.1804 59.5561 52.8778 73.8682 56.6408C73.7717 56.3154 73.6823 55.9931 73.606 55.6861C73.3966 54.8439 73.0779 53.7751 72.7611 52.8726C72.6023 52.4202 72.4532 52.0359 72.3274 51.7543C72.2729 51.6322 72.2301 51.5459 72.2 51.4903L67.4135 46.6774ZM70.8725 107.087C70.8724 107.086 70.8793 107.091 70.8934 107.105C70.8796 107.094 70.8726 107.087 70.8725 107.087ZM76.5842 53.0633C76.7698 53.6708 76.9393 54.2779 77.0727 54.8146C77.4008 56.134 78.0506 57.9022 78.3383 58.6255L79.7068 62.0655L76.1731 61.0157C61.56 56.6743 50.3434 56.7523 46.0082 57.3511C39.2232 67.5764 39.6427 76.9031 42.7539 84.1854C45.9661 91.7044 52.0604 97.0643 56.3098 98.9292C61.9566 100.729 66.1323 104.454 69.0646 107.416C69.4069 106.275 69.8641 105.281 70.2146 104.664L70.9413 103.386L72.3309 103.851C72.916 104.047 73.3381 104.471 73.5484 104.695C73.8152 104.979 74.0781 105.321 74.3258 105.673C74.8248 106.382 75.3698 107.287 75.9005 108.23C76.1548 108.682 76.4106 109.151 76.6619 109.623C76.6868 109.554 76.7119 109.485 76.7373 109.416C77.2966 107.917 78.155 106.343 79.7803 105.363L81.3124 104.438L82.2317 105.979C83.0412 107.336 83.4226 108.874 83.6594 110.292C84.7986 109.059 86.1636 107.809 87.6172 106.628C90.6059 104.201 94.1023 101.962 96.9863 100.753L97.0188 100.74C99.7047 99.6145 109.204 95.6354 113.399 82.979C115.042 78.0237 114.648 73.0176 113.431 68.7104C112.292 64.6775 110.46 61.3598 109.061 59.4364L93.774 53.4973C93.8068 53.5886 93.8397 53.6793 93.8726 53.7698L93.8969 53.8364C93.9909 54.0947 94.0895 54.3654 94.1759 54.626C94.3619 55.1873 94.5467 55.8561 94.5468 56.5978L94.5468 59.3624L92.0344 58.2396C91.6873 58.0845 91.2905 57.8947 90.8882 57.7024L90.8413 57.68C90.4142 57.4759 89.9689 57.2633 89.5129 57.0565C88.5837 56.6351 87.6982 56.2789 86.9665 56.095C86.3344 55.9361 83.348 55.0558 80.1208 54.1044C78.9397 53.7563 77.7263 53.3986 76.5842 53.0633Z" fill="#F0EDE5"/>
<path fill-rule="evenodd" clip-rule="evenodd" d="M68.0114 0L70.6622 4.99773C71.2121 6.03459 72.1499 7.49847 73.1443 8.54066C73.4276 8.83755 73.6863 9.06893 73.9134 9.24044L74.5571 6.00429L76.777 7.49241C77.4178 7.92197 78.4747 8.59428 79.5356 9.19768C80.6622 9.83848 81.5799 10.2762 82.0262 10.3884C83.1423 10.669 84.6745 11.2448 85.9642 11.7774L86.4546 8.32544L88.7523 9.6845C89.9035 10.3655 91.0706 11.3058 92.2018 12.2172C92.4505 12.4176 92.6975 12.6166 92.9422 12.8111C94.3593 13.9378 95.8437 15.0418 97.5791 15.9143C100.317 17.2906 107.773 21.3578 114.794 26.4136C118.303 28.9403 121.755 31.7504 124.461 34.6296C127.123 37.4622 129.27 40.5746 129.809 43.7162L130.352 46.883L127.385 45.6898L127.384 45.6895L127.378 45.687L127.347 45.6749C127.338 45.6712 127.327 45.6669 127.314 45.6619C127.289 45.652 127.257 45.6397 127.219 45.6253C127.106 45.5819 126.941 45.52 126.739 45.4479C126.579 45.3909 126.398 45.3284 126.204 45.2642C127.072 46.3301 128.021 47.7336 128.441 49.4247L128.996 51.6571H126.708C125.667 51.6571 124.296 51.3399 123.222 51.0821C123.361 51.3345 123.511 51.5981 123.669 51.869C124.77 53.7505 126.129 55.7202 127.078 56.6748C127.277 56.8755 127.609 57.033 128.899 56.7956C129.196 56.7409 129.506 56.6736 129.854 56.5975L129.887 56.5903C130.217 56.5182 130.58 56.4389 130.949 56.3691C131.708 56.2254 132.586 56.1026 133.502 56.1511C134.917 56.226 137.025 56.3421 139.247 56.7375C141.454 57.1302 143.905 57.8194 145.969 59.1166C149.46 61.3109 155.081 66.6639 153.009 74.9997L152.729 76.1243L151.595 76.3316C149.913 76.6391 146.192 76.6161 143.22 74.3094C143.3 75.0305 143.31 75.7845 143.224 76.559L143.048 78.1572H140.85C140.949 78.9761 141.04 79.8657 141.129 80.7476C141.18 81.2492 141.231 81.7483 141.283 82.2306C141.405 83.364 141.536 84.4406 141.695 85.3602C141.859 86.3163 142.03 86.9581 142.183 87.2992C143.236 89.643 144.836 93.3804 146.22 96.9933C146.912 98.7991 147.557 100.591 148.054 102.172C148.541 103.717 148.924 105.178 149.033 106.275L149.269 108.648L144.889 107.847C145.994 111.654 147.333 116.621 148.461 121.547C149.876 127.731 151.02 134.105 150.827 137.985L150.723 140.065L148.692 139.657C148.373 139.593 148.033 139.524 147.674 139.452C145.52 139.02 142.715 138.456 140.186 137.93C137.311 137.332 134.6 136.745 133.736 136.455C133.047 136.224 131.683 135.695 130.34 135.175L130.156 135.103C128.706 134.541 127.304 134 126.59 133.76C125.796 133.494 124.384 132.784 123.249 132.213L123.117 132.147C122.496 131.835 121.932 131.551 121.495 131.345C121.49 131.342 121.484 131.34 121.478 131.337C121.358 131.456 121.214 131.623 121.059 131.849C120.504 132.657 119.795 134.244 119.555 137.146C119.346 139.665 119.553 142.331 119.776 144.626C119.804 144.912 119.832 145.195 119.86 145.472C119.94 146.279 120.016 147.038 120.059 147.675C120.089 148.108 120.107 148.53 120.098 148.909C120.09 149.255 120.058 149.712 119.916 150.141L118.305 155L111.33 135.964C110.05 137.468 108.764 139.028 108.508 139.388C106.36 142.412 105.193 144.834 104.802 147.581L103.994 153.275L101.436 148.131C100.705 146.662 99.943 144.528 99.3084 142.697C99.195 142.37 99.0858 142.052 98.9807 141.747C98.7827 141.172 98.5992 140.639 98.4301 140.162C98.1617 139.407 97.973 138.922 97.8621 138.698C97.8621 138.699 97.8615 138.698 97.86 138.695C97.839 138.664 97.6521 138.388 97.2041 137.86C96.7793 137.36 96.2239 136.754 95.6224 136.153C95.0186 135.55 94.391 134.975 93.821 134.524C93.2086 134.039 92.8094 133.817 92.6416 133.76C92.4625 133.7 92.2983 133.639 92.1441 133.582C91.6119 133.383 91.1975 133.229 90.693 133.315C90.3794 133.369 89.4512 133.63 88.6757 136.129C88.5041 136.853 88.4029 138.102 88.2874 139.554C88.232 140.25 88.1737 140.971 88.0994 141.607C88.029 142.208 87.9297 142.876 87.7547 143.404L86.699 146.588L84.6493 143.939C84.2443 143.415 83.6705 142.664 83.0957 141.894L79.6542 152.77L77.7328 148.52C76.9701 146.832 75.9508 144.326 75.0791 142.163C74.9538 141.852 74.8324 141.55 74.7158 141.26C74.5487 141.662 74.3802 142.083 74.2151 142.515C73.783 143.645 73.3846 144.817 73.0971 145.863C72.7987 146.949 72.6591 147.76 72.6591 148.225V153.713L56.2808 131.256L46.2136 148.127L45.0421 144.257C44.5234 142.543 43.7006 139.882 42.9199 137.475C42.113 134.987 41.4157 132.978 41.1332 132.41C40.9563 132.054 40.7531 131.567 40.5558 131.094C40.4716 130.892 40.3885 130.693 40.309 130.508C40.0127 129.817 39.69 129.125 39.3112 128.506C38.5169 127.208 37.7559 126.666 36.9244 126.666C36.7327 126.666 36.3684 126.759 35.8162 127.16C35.2784 127.551 34.6984 128.137 34.1144 128.863C32.9524 130.307 31.9557 132.074 31.4021 133.253C30.5175 135.255 29.195 138.382 28.0958 141.266C27.5438 142.715 27.0565 144.081 26.7098 145.203C26.3368 146.411 26.204 147.102 26.204 147.327V153.261L7.40917 124.913L7.44675 124.308C7.67097 120.701 8.0746 115.175 8.55768 110.318C8.79895 107.892 9.06217 105.61 9.33566 103.811C9.34887 103.724 9.36215 103.637 9.37548 103.552L6.10322 103.31C6.10322 103.056 6.13501 102.817 6.19032 102.594C6.50236 100.544 7.01456 97.5984 7.6208 94.8872C7.94652 93.4304 8.30599 92.0115 8.68424 90.8241C8.99845 89.8378 9.38816 88.7983 9.88718 88.0618L11.1488 84.8904C11.1059 84.893 11.0616 84.8945 11.0167 84.8945H8.40481L9.3515 82.4467C9.85431 81.1466 10.5417 79.1059 11.1576 77.2642C11.2032 77.1277 11.2485 76.9923 11.2932 76.8585C11.5464 76.1009 11.7823 75.3948 11.9774 74.8255C12.1824 74.227 12.3986 73.6066 12.5454 73.3113C12.6947 73.0111 13.0129 72.4802 13.3906 71.8712C12.929 71.6896 12.65 71.3524 12.5162 71.1353C12.4511 71.0295 12.4031 70.9272 12.3676 70.8362C11.2936 71.5831 10.135 72.3341 8.9868 72.9921C7.72591 73.7146 6.41385 74.3621 5.20291 74.756C4.09188 75.1175 2.64159 75.4119 1.37924 74.8679L0.244385 74.3788L0.298016 73.1385C0.37752 71.2998 0.730259 68.4134 1.5407 65.6268C2.32431 62.9324 3.65569 59.9004 5.97196 58.27C8.02154 56.8274 10.5029 55.9731 12.6871 55.4745C14.883 54.9733 16.9141 54.8011 18.1637 54.8011H18.2797L18.3948 54.8162C20.0329 55.0311 22.6021 55.2233 24.9429 55.1065C26.1163 55.048 27.1664 54.9146 27.9883 54.6964C28.5304 54.5525 28.8694 54.3985 29.0696 54.2776C28.9655 54.2437 28.8603 54.2012 28.7551 54.1483C27.8648 53.7007 27.5441 52.8309 27.5441 52.1062C27.5441 51.794 27.6138 51.5265 27.6575 51.3781C27.7084 51.2048 27.7726 51.0355 27.8358 50.8836C27.9622 50.5794 28.1286 50.2397 28.305 49.8996C28.6559 49.2234 29.1163 48.4133 29.5537 47.6436L29.5662 47.6216C29.7425 47.3113 29.9151 47.0076 30.0787 46.7163H27.5441V43.8105L27.5926 43.6053C28.3805 40.2779 30.2699 35.194 33.4194 30.5849C35.8083 27.0887 39.0044 23.7499 43.0987 21.7358L40.7536 20.5568L44.2486 19.0193C45.4132 18.507 47.2043 17.6721 48.7794 16.8402C49.5695 16.4229 50.2765 16.0215 50.814 15.673C51.0834 15.4983 51.2862 15.3524 51.4262 15.2382C51.4908 15.1855 51.5283 15.1505 51.5464 15.1331C51.5821 15.0749 51.6269 14.996 51.6816 14.8997C52.0907 14.1796 53.0521 12.4872 54.8962 11.2123C57.0446 9.72715 60.2316 8.81928 65.0712 9.3674C65.9011 8.71841 67.0937 7.38185 67.3127 5.62036L68.0114 0ZM49.0721 20.7217L52.9208 22.6567L48.0384 23.7653C43.1073 24.8849 39.2363 28.417 36.3646 32.6197C33.8934 36.2363 32.2677 40.2013 31.4173 43.1231H34.691V44.9197C34.691 45.2319 34.6212 45.4995 34.5776 45.6478C34.5267 45.8211 34.4624 45.9904 34.3993 46.1423C34.2728 46.4466 34.1064 46.7862 33.93 47.1263C33.5791 47.8025 33.1188 48.6126 32.6813 49.3824L32.6688 49.4043C32.6563 49.4265 32.6437 49.4486 32.6312 49.4706C32.7217 49.4769 32.8117 49.4874 32.901 49.502C33.6699 49.6278 34.2633 50.0336 34.6144 50.3866L35.525 51.3023L34.949 52.4605C34.6965 52.9684 33.8252 54.2506 32.0434 56.4005C31.2347 57.3764 29.9973 57.8795 28.9005 58.1706C27.7449 58.4774 26.422 58.6304 25.12 58.6954C22.5684 58.8227 19.8436 58.6229 18.0538 58.3949C17.0518 58.4051 15.344 58.5527 13.4782 58.9786C11.5306 59.4232 9.54511 60.1411 8.02121 61.2137C6.76402 62.0986 5.71308 64.0821 4.97052 66.6354C4.49797 68.2602 4.1991 69.9428 4.03059 71.3604C4.0543 71.353 4.07839 71.3453 4.10288 71.3373C4.98298 71.051 6.05509 70.5363 7.21746 69.8702C9.53222 68.5437 11.9524 66.764 13.466 65.5319L17.4449 62.2931L16.4324 66.8747C16.6625 66.7845 16.8189 66.7186 16.918 66.6688L21.7123 64.2584L19.3151 69.0793C19.0495 69.6135 18.2493 70.8777 17.5305 72.0133L17.4377 72.1599C16.6156 73.4588 15.9112 74.5773 15.7416 74.9183C15.7458 74.9099 15.7448 74.9123 15.7381 74.9291C15.7256 74.9603 15.6933 75.0412 15.6371 75.195C15.5626 75.3987 15.468 75.6688 15.356 75.9957C15.1658 76.551 14.935 77.2416 14.6815 78.0002C14.6366 78.1346 14.5909 78.2711 14.5447 78.4094C14.3312 79.0478 14.1043 79.725 13.8762 80.3954L17.2332 79.2702L13.024 89.8514L12.8586 90.0593C12.7311 90.2196 12.4471 90.7911 12.0874 91.9203C11.7546 92.9647 11.4218 94.2687 11.1072 95.6754C10.8502 96.8247 10.6099 98.0226 10.3955 99.1733C10.8133 99.0367 11.2018 98.9328 11.5225 98.8611L15.5815 97.9542L13.4423 101.539C13.451 101.525 13.4496 101.529 13.4395 101.558C13.4157 101.628 13.3441 101.836 13.2468 102.262C13.1257 102.791 12.9983 103.496 12.8681 104.353C12.6084 106.063 12.3523 108.273 12.1134 110.675C11.6622 115.212 11.2798 120.356 11.0513 123.928L23.6761 142.97C23.9934 142.033 24.3647 141.015 24.7589 139.981C25.8897 137.013 27.2426 133.816 28.1447 131.775L28.1526 131.758L28.1608 131.74C28.8 130.374 29.9434 128.333 31.3368 126.602C32.0332 125.737 32.838 124.892 33.7221 124.249C34.5918 123.616 35.6867 123.073 36.9244 123.073C39.6664 123.073 41.3622 125.001 42.3546 126.623C42.8692 127.464 43.2723 128.343 43.5902 129.084C43.7172 129.38 43.824 129.637 43.9179 129.863C44.0816 130.256 44.206 130.555 44.3294 130.803C44.7616 131.672 45.5532 134.005 46.3172 136.361C46.6375 137.348 46.9642 138.376 47.2745 139.365L55.9829 124.771L69.9437 143.914C70.2209 143.021 70.5445 142.101 70.8798 141.225C71.3413 140.018 71.8354 138.866 72.2792 137.943C72.5004 137.483 72.7175 137.064 72.919 136.715C73.0935 136.414 73.3387 136.018 73.6291 135.726L75.382 133.964L76.4907 136.193C76.7129 136.64 77.304 138.11 77.9871 139.809C78.119 140.137 78.2543 140.474 78.3911 140.813C78.6279 141.401 78.873 142.008 79.1188 142.611L82.1172 133.135L84.0836 137.09C84.0831 137.089 84.0909 137.104 84.1115 137.139C84.1336 137.177 84.1639 137.226 84.2036 137.288C84.2834 137.413 84.3884 137.57 84.5165 137.756C84.6072 137.888 84.7068 138.029 84.8133 138.179C84.9037 137.12 85.0212 136.011 85.2196 135.213L85.2312 135.167L85.2453 135.121C86.2535 131.826 87.9684 130.135 90.096 129.772C91.7143 129.497 93.2837 130.15 93.6843 130.316C93.7274 130.334 93.757 130.347 93.7716 130.351C94.5581 130.615 95.362 131.17 96.0312 131.7C96.7429 132.263 97.4757 132.939 98.1408 133.604C98.8083 134.271 99.4306 134.948 99.9219 135.527C100.359 136.042 100.834 136.64 101.058 137.091C101.282 137.542 101.54 138.236 101.795 138.954C101.97 139.446 102.164 140.008 102.366 140.595C102.47 140.897 102.576 141.206 102.683 141.514C102.73 141.651 102.778 141.787 102.825 141.924C103.546 140.386 104.479 138.878 105.6 137.3C106.13 136.554 109.151 132.949 110.645 131.296L112.626 129.106L115.919 138.093C115.935 137.678 115.959 137.262 115.994 136.847C116.272 133.483 117.127 131.252 118.118 129.808C118.612 129.089 119.138 128.568 119.636 128.21C119.883 128.033 120.135 127.888 120.382 127.781C120.583 127.694 120.935 127.564 121.348 127.564C121.658 127.564 121.916 127.644 121.99 127.667C122.112 127.704 122.231 127.749 122.332 127.79C122.537 127.872 122.774 127.979 123.015 128.093C123.495 128.32 124.098 128.622 124.699 128.925L124.715 128.933C126.017 129.587 127.204 130.179 127.72 130.351C128.533 130.624 130.035 131.205 131.441 131.751L131.523 131.782C132.947 132.334 134.259 132.843 134.867 133.046C135.473 133.25 137.899 133.785 140.91 134.411C143.002 134.846 145.283 135.307 147.231 135.699C147.029 132.285 146.14 127.431 144.978 122.353C143.568 116.189 141.815 109.944 140.634 106.084L139.77 103.259L144.934 104.204C144.848 103.906 144.752 103.589 144.647 103.255C144.18 101.771 143.563 100.054 142.886 98.2853C141.531 94.7492 139.959 91.0755 138.927 88.7781C138.576 87.9962 138.346 86.9725 138.174 85.9728C137.995 84.9367 137.854 83.7676 137.73 82.6178C137.669 82.0468 137.612 81.487 137.557 80.9477C137.382 79.2317 137.228 77.7243 137.02 76.7307L136.566 74.564H139.65C139.397 72.642 138.416 70.9974 137.858 70.3433L136.782 69.0801L137.952 67.9037C138.513 67.339 139.231 67.2357 139.744 67.2726C140.27 67.3103 140.776 67.4973 141.24 67.7466C142.168 68.2445 143.264 69.1742 144.58 70.686C146.052 72.3774 148.242 72.8591 149.781 72.8811C150.492 67.5338 146.887 63.931 144.075 62.1637C142.566 61.2151 140.624 60.6317 138.624 60.2758C136.64 59.9227 134.728 59.8142 133.314 59.7394C132.815 59.713 132.26 59.7773 131.61 59.9004C131.29 59.9608 130.97 60.0307 130.626 60.1059L130.613 60.1088C130.273 60.183 129.906 60.2631 129.542 60.3301C128.189 60.5792 126.138 60.8116 124.551 59.2156C123.267 57.9245 121.722 55.6272 120.589 53.6909C120.012 52.7047 119.503 51.7446 119.159 50.9753C118.992 50.6004 118.836 50.2098 118.741 49.8565C118.695 49.6878 118.639 49.4416 118.63 49.1676C118.625 48.9953 118.61 48.2755 119.191 47.6917C119.718 47.1614 120.372 47.0726 120.648 47.048C120.992 47.0174 121.335 47.0446 121.618 47.0798C122.145 47.1457 122.76 47.2813 123.335 47.416C123.13 47.1695 122.917 46.9256 122.7 46.683C122.633 46.609 122.564 46.532 122.492 46.4528C122.094 46.0119 121.636 45.5041 121.335 45.0583C121.157 44.7954 120.897 44.3627 120.806 43.825C120.693 43.1602 120.859 42.4207 121.424 41.8527C121.899 41.3755 122.473 41.2039 122.864 41.1345C123.274 41.0618 123.685 41.0658 124.039 41.0932C124.375 41.1191 124.724 41.1717 125.067 41.239C124.309 39.9424 123.231 38.5527 121.864 37.0977C119.377 34.4522 116.128 31.7939 112.714 29.335C105.888 24.4195 98.6037 20.4468 95.981 19.1282C93.9074 18.0857 92.1905 16.7942 90.7259 15.6298C90.43 15.3946 90.1488 15.1685 89.8796 14.9519C89.6447 14.7631 89.4189 14.5815 89.2003 14.4075L88.8179 17.0989L86.6006 15.9841C85.761 15.562 82.7661 14.2782 81.1595 13.8744C80.1764 13.6272 78.8606 12.9421 77.7762 12.3252C77.5253 12.1825 77.2753 12.0367 77.0305 11.8911L76.9199 12.447L76.1383 12.84C74.959 13.4329 73.7746 13.2154 72.8679 12.7888C71.9899 12.3758 71.2092 11.7026 70.5658 11.0284C70.1891 10.6336 69.8277 10.2044 69.4887 9.76439C68.4899 11.3045 67.1987 12.3333 66.3987 12.793L65.8719 13.0956L65.2708 13.0132C60.6686 12.3822 58.2464 13.2569 56.9207 14.1733C55.8248 14.9309 55.3435 15.7491 54.8915 16.5175C54.7605 16.7402 54.632 16.9587 54.4917 17.1704C54.2518 17.5322 53.9297 17.8229 53.6779 18.0284C53.4015 18.2539 53.0822 18.4779 52.7504 18.693C52.0857 19.1239 51.2739 19.5815 50.4411 20.0214C49.9937 20.2576 49.5319 20.4932 49.0721 20.7217ZM74.6117 9.60843C74.6122 9.60932 74.6064 9.61019 74.5927 9.60841C74.6044 9.60666 74.6112 9.60755 74.6117 9.60843ZM124.254 42.9788C124.254 42.9788 124.256 42.983 124.26 42.991C124.255 42.9827 124.253 42.9787 124.254 42.9788Z" fill="#F0EDE5"/>
<path fill-rule="evenodd" clip-rule="evenodd" d="M149.041 31.7899C147.987 30.5854 146.839 29.9557 145.666 30.0868C145.495 30.1059 145.331 30.1335 145.175 30.1686C146.395 30.4352 147.726 31.0704 148.407 32.4384C148.857 33.3445 148.871 34.3304 148.733 35.1709C148.591 36.0267 148.268 36.8866 147.856 37.6814C147.04 39.2594 145.745 40.8336 144.274 41.8903C142.394 43.2403 139.51 44.124 136.77 44.7614C134.364 45.3208 131.833 45.7391 129.773 46.0795C129.431 46.136 129.102 46.1904 128.788 46.2429L128.201 42.6985C128.527 42.6439 128.865 42.588 129.212 42.5306C131.278 42.1889 133.682 41.7915 135.965 41.2605C138.696 40.6253 140.949 39.8621 142.197 38.9663C143.164 38.2718 144.102 37.151 144.686 36.0227C144.975 35.4644 145.144 34.9684 145.207 34.5819C145.27 34.2061 145.215 34.0569 145.211 34.0457C145.21 34.0449 145.21 34.0448 145.21 34.0453C145.208 34.0407 144.993 33.7213 144.016 33.6154C143.134 33.5197 142.071 33.6687 141.219 34.0116L137.974 35.3166L138.822 31.9078C139.24 30.2242 141.093 26.9823 145.271 26.5155C148.118 26.1974 150.321 27.8135 151.723 29.4161C153.128 31.0207 154.052 32.9589 154.349 34.1535C154.968 36.6421 155.385 40.8635 154.364 45.7391C152.58 54.2597 146.257 57.2483 141.933 59.2919C141.409 59.5396 140.914 59.7734 140.461 60.0015L138.863 56.7876C139.388 56.5233 139.926 56.265 140.468 56.0043C144.813 53.9168 149.468 51.6795 150.867 44.9989C151.768 40.6971 151.38 37.028 150.882 35.025C150.732 34.423 150.093 32.9926 149.041 31.7899Z" fill="#F0EDE5"/>
<path fill-rule="evenodd" clip-rule="evenodd" d="M8.2655 28.779C7.70791 28.9134 7.10401 29.1327 6.45542 29.4588C5.06445 30.1581 3.96662 32.1366 3.65695 35.2528C3.35813 38.2598 3.87102 41.779 5.07224 44.6779C6.05727 47.055 7.83911 49.2827 9.82562 51.1211C11.8116 52.9591 13.8895 54.3041 15.3294 54.9622L13.8507 58.2333C12.0149 57.3943 9.62592 55.8198 7.40567 53.765C5.18591 51.7108 3.02204 49.0726 1.77365 46.0599C0.346819 42.6165 -0.25701 38.5001 0.101187 34.8955C0.448532 31.4002 1.78144 27.7913 4.85731 26.2449C9.98141 23.6686 14.8608 25.4915 16.249 28.9812L17.2291 31.4451L14.59 31.4451C14.2811 31.4451 13.8855 31.4153 13.5405 31.3894C13.4243 31.3806 13.3139 31.3723 13.2145 31.3657C12.7525 31.3351 12.2974 31.319 11.8473 31.3516C11.0063 31.4124 10.2847 31.634 9.69825 32.1718C9.6904 32.2545 9.69061 32.4361 9.76794 32.7641C9.92394 33.4259 10.3312 34.3223 11.0163 35.2818C12.3924 37.2092 14.612 39.0126 17.1978 39.5697C20.147 40.2052 22.8684 40.3067 25.0891 40.099C27.3537 39.8872 28.9549 39.3682 29.7514 38.8876L31.5899 41.9688C30.1531 42.8357 27.9574 43.4395 25.4201 43.6768C22.839 43.9183 19.7535 43.7952 16.4491 43.0832C12.7814 42.2929 9.86411 39.8294 8.11345 37.3774C7.23513 36.1473 6.5815 34.826 6.29082 33.5929C6.02704 32.4739 5.94603 30.8588 7.07306 29.7255C7.45398 29.3425 7.85523 29.0313 8.2655 28.779Z" fill="#F0EDE5"/>
<path d="M65.9582 97.4707C63.4568 96.3927 62.5337 92.8294 62.3848 91.1825L66.8516 93.8774L65.9582 97.4707Z" fill="#F0EDE5"/>
<path d="M90.9731 97.4707C93.4745 96.3927 93.802 92.8294 93.6531 91.1825L90.5264 92.9791C91.2411 93.3384 91.1219 96.1232 90.9731 97.4707Z" fill="#F0EDE5"/>
</svg>
