<svg width="1025" height="106" viewBox="0 0 1025 106" fill="none" xmlns="http://www.w3.org/2000/svg">
<path d="M63.3995 1.40827H0V104.245H63.3995C78.2308 104.245 91.6609 98.4871 101.378 89.1859C111.096 79.8848 117.107 67.027 117.107 52.8264C117.107 24.4318 93.0621 1.40827 63.3995 1.40827ZM85.5915 72.1688C80.4196 77.1207 74.8345 78.8433 66.9443 78.8433L27.1638 78.3193C25.2978 78.2931 23.7934 76.839 23.7934 75.0508V29.1413C23.7934 27.1173 25.5044 25.4798 27.6223 25.4798H64.8845C80.7166 25.4798 94.0758 37.8791 93.9596 53.036C93.9015 60.5097 90.7182 67.2693 85.5915 72.1754V72.1688ZM228.332 24.3008H132.623C126.005 24.3008 120.646 18.8577 120.646 12.1504C120.646 5.43657 126.011 0 132.623 0H228.332C234.951 0 240.31 5.44312 240.31 12.1504C240.31 18.8642 234.944 24.3008 228.332 24.3008ZM240.31 92.0942C240.31 85.3803 234.944 79.9438 228.332 79.9438H132.623C126.005 79.9438 120.646 85.3869 120.646 92.0942C120.646 98.808 126.011 104.245 132.623 104.245H228.332C234.951 104.245 240.31 98.8015 240.31 92.0942ZM231.167 52.119C231.167 45.4052 225.801 39.9686 219.189 39.9686H141.766C135.148 39.9686 129.788 45.4117 129.788 52.119C129.788 58.8328 135.154 64.2694 141.766 64.2694H219.189C225.808 64.2694 231.167 58.8263 231.167 52.119ZM359.27 24.3008H263.561C256.943 24.3008 251.583 18.8577 251.583 12.1504C251.583 5.43657 256.949 0 263.561 0H359.27C365.888 0 371.247 5.44312 371.247 12.1504C371.247 18.8642 365.882 24.3008 359.27 24.3008ZM371.247 92.0942C371.247 85.3803 365.882 79.9438 359.27 79.9438H263.561C256.943 79.9438 251.583 85.3869 251.583 92.0942C251.583 98.808 256.949 104.245 263.561 104.245H359.27C365.888 104.245 371.247 98.8015 371.247 92.0942ZM362.105 52.119C362.105 45.4052 356.739 39.9686 350.127 39.9686H272.704C266.085 39.9686 260.726 45.4117 260.726 52.119C260.726 58.8328 266.092 64.2694 272.704 64.2694H350.127C356.745 64.2694 362.105 58.8263 362.105 52.119ZM482.117 73.0596L500.1 104.245H472.174L456.303 76.7211H408.542V104.245H384.361V52.8068H465.149C468.933 52.8068 472.361 51.2675 474.841 48.785C477.326 46.296 478.857 42.8703 478.857 39.0778C478.857 31.4928 472.723 25.3554 465.149 25.3554H384.361V1.36897H465.917C486.708 1.36897 503.554 18.242 503.554 39.045C503.554 49.4531 499.344 58.8722 492.532 65.6908C489.523 68.7038 486.004 71.2125 482.117 73.0596ZM632.755 1.36897V104.245H609.846V64.4266H537.033V104.245H514.124V1.36897H537.033V41.1869H609.846V1.36897H632.755ZM775.722 104.245H748.035L708.855 35.4098C707.906 33.7395 705.523 33.7395 704.574 35.4098L665.394 104.245H637.707L690.634 11.2465C697.782 -1.31657 715.648 -1.31657 722.795 11.2465L775.722 104.245ZM865.543 42.248V27.7527H796.5V80.0682H865.543V65.1144H893.61V65.5663C893.61 87.8956 875.77 105.993 853.759 105.993H805.894C786.459 105.993 770.698 90.0112 770.698 70.2889V37.5254C770.698 17.8097 786.453 1.82092 805.894 1.82092H853.759C875.77 1.82092 893.61 19.9188 893.61 42.248H865.543ZM1025 103.629L1024.28 104.245H993.161L949.333 51.2544L924.3 72.5618V104.245H899.525V1.36897H924.3V39.7459L933.404 31.9972L952.387 15.8381L969.387 1.36897H1007.93L968.309 35.0953L1025 103.629Z" fill="url(#paint0_linear_258_1160)"/>
<defs>
<linearGradient id="paint0_linear_258_1160" x1="-185.211" y1="-14.9386" x2="-170.59" y2="155.39" gradientUnits="userSpaceOnUse">
<stop stop-color="#6633CC"/>
<stop offset="1" stop-color="#F5C144"/>
</linearGradient>
</defs>
</svg>
