<svg width="31" height="24" viewBox="0 0 31 24" fill="none" xmlns="http://www.w3.org/2000/svg">
<path d="M25.6664 2.58869C23.7487 1.69471 21.6724 1.04586 19.5095 0.670965C19.4905 0.670358 19.4717 0.673917 19.4542 0.681391C19.4368 0.688865 19.4212 0.700072 19.4086 0.714222C19.149 1.19005 18.8462 1.81007 18.6444 2.28589C16.3503 1.93984 14.0173 1.93984 11.7233 2.28589C11.5214 1.79565 11.2186 1.19005 10.9446 0.714222C10.9302 0.685384 10.8869 0.670965 10.8437 0.670965C8.68084 1.04586 6.61892 1.69471 4.68678 2.58869C4.67236 2.58869 4.65794 2.60311 4.64352 2.61753C0.721555 8.48606 -0.35987 14.196 0.173633 19.8482C0.173633 19.8771 0.188052 19.9059 0.21689 19.9203C2.81231 21.8236 5.3068 22.9772 7.77245 23.7414C7.8157 23.7558 7.85896 23.7414 7.87338 23.7125C8.45014 22.9195 8.96922 22.0832 9.41621 21.2036C9.44505 21.1459 9.41621 21.0883 9.35853 21.0738C8.53665 20.7566 7.75803 20.3817 6.99382 19.9492C6.93614 19.9203 6.93614 19.8338 6.9794 19.7906C7.13801 19.6752 7.29662 19.5454 7.45523 19.4301C7.48406 19.4012 7.52732 19.4012 7.55616 19.4157C12.5163 21.6794 17.8657 21.6794 22.7682 19.4157C22.797 19.4012 22.8403 19.4012 22.8691 19.4301C23.0277 19.5599 23.1864 19.6752 23.345 19.805C23.4026 19.8482 23.4026 19.9347 23.3305 19.9636C22.5808 20.4106 21.7877 20.7711 20.9658 21.0883C20.9082 21.1027 20.8937 21.1748 20.9082 21.218C21.3696 22.0976 21.8886 22.9339 22.451 23.7269C22.4942 23.7414 22.5375 23.7558 22.5808 23.7414C25.0608 22.9772 27.5553 21.8236 30.1507 19.9203C30.1796 19.9059 30.194 19.8771 30.194 19.8482C30.8284 13.3164 29.1414 7.64976 25.7241 2.61753C25.7097 2.60311 25.6953 2.58869 25.6664 2.58869ZM10.166 16.4021C8.68084 16.4021 7.44081 15.0323 7.44081 13.3453C7.44081 11.6582 8.652 10.2884 10.166 10.2884C11.6944 10.2884 12.9056 11.6727 12.8912 13.3453C12.8912 15.0323 11.68 16.4021 10.166 16.4021ZM20.216 16.4021C18.7309 16.4021 17.4908 15.0323 17.4908 13.3453C17.4908 11.6582 18.702 10.2884 20.216 10.2884C21.7445 10.2884 22.9556 11.6727 22.9412 13.3453C22.9412 15.0323 21.7445 16.4021 20.216 16.4021Z" fill="#FCF7FF"/>
</svg>
