<svg width="26" height="27" viewBox="0 0 26 27" fill="none" xmlns="http://www.w3.org/2000/svg">
<path d="M12.9999 0.232422C16.5257 0.232422 16.9656 0.245399 18.3489 0.310282C19.731 0.375166 20.6718 0.591878 21.4997 0.913701C22.3562 1.24331 23.0777 1.68971 23.7992 2.40992C24.459 3.05862 24.9696 3.84332 25.2954 4.7094C25.6159 5.53602 25.8339 6.47813 25.8988 7.86015C25.9598 9.24347 25.9767 9.68338 25.9767 13.2092C25.9767 16.7349 25.9637 17.1749 25.8988 18.5582C25.8339 19.9402 25.6159 20.881 25.2954 21.7089C24.9706 22.5755 24.4599 23.3604 23.7992 24.0084C23.1503 24.668 22.3657 25.1786 21.4997 25.5046C20.6731 25.8252 19.731 26.0432 18.3489 26.1081C16.9656 26.169 16.5257 26.1859 12.9999 26.1859C9.47415 26.1859 9.03424 26.1729 7.65092 26.1081C6.2689 26.0432 5.32808 25.8252 4.50017 25.5046C3.63375 25.1795 2.84891 24.6689 2.20069 24.0084C1.5407 23.3598 1.0301 22.5751 0.704472 21.7089C0.382649 20.8823 0.165937 19.9402 0.101054 18.5582C0.0400631 17.1749 0.0231934 16.7349 0.0231934 13.2092C0.0231934 9.68338 0.03617 9.24347 0.101054 7.86015C0.165937 6.47683 0.382649 5.53731 0.704472 4.7094C1.0292 3.84278 1.53992 3.05788 2.20069 2.40992C2.8491 1.7497 3.63388 1.23907 4.50017 0.913701C5.32808 0.591878 6.2676 0.375166 7.65092 0.310282C9.03424 0.249292 9.47415 0.232422 12.9999 0.232422ZM12.9999 6.72079C11.2791 6.72079 9.62877 7.40439 8.41196 8.62119C7.19516 9.838 6.51156 11.4883 6.51156 13.2092C6.51156 14.93 7.19516 16.5803 8.41196 17.7971C9.62877 19.0139 11.2791 19.6975 12.9999 19.6975C14.7208 19.6975 16.3711 19.0139 17.5879 17.7971C18.8047 16.5803 19.4883 14.93 19.4883 13.2092C19.4883 11.4883 18.8047 9.838 17.5879 8.62119C16.3711 7.40439 14.7208 6.72079 12.9999 6.72079ZM21.4348 6.39638C21.4348 5.96617 21.2639 5.55358 20.9597 5.24938C20.6555 4.94518 20.2429 4.77428 19.8127 4.77428C19.3825 4.77428 18.9699 4.94518 18.6657 5.24938C18.3615 5.55358 18.1906 5.96617 18.1906 6.39638C18.1906 6.82658 18.3615 7.23917 18.6657 7.54337C18.9699 7.84757 19.3825 8.01847 19.8127 8.01847C20.2429 8.01847 20.6555 7.84757 20.9597 7.54337C21.2639 7.23917 21.4348 6.82658 21.4348 6.39638ZM12.9999 9.31614C14.0324 9.31614 15.0226 9.7263 15.7527 10.4564C16.4828 11.1865 16.893 12.1767 16.893 13.2092C16.893 14.2417 16.4828 15.2319 15.7527 15.9619C15.0226 16.692 14.0324 17.1022 12.9999 17.1022C11.9674 17.1022 10.9772 16.692 10.2472 15.9619C9.51707 15.2319 9.10691 14.2417 9.10691 13.2092C9.10691 12.1767 9.51707 11.1865 10.2472 10.4564C10.9772 9.7263 11.9674 9.31614 12.9999 9.31614Z" fill="#FCF7FF"/>
</svg>
