<svg width="25" height="25" viewBox="0 0 25 25" fill="none" xmlns="http://www.w3.org/2000/svg">
<path d="M21.7286 0.208984C22.4358 0.208984 23.1141 0.489936 23.6142 0.990033C24.1143 1.49013 24.3953 2.16841 24.3953 2.87565V21.5423C24.3953 22.2496 24.1143 22.9278 23.6142 23.4279C23.1141 23.928 22.4358 24.209 21.7286 24.209H3.06193C2.35469 24.209 1.67641 23.928 1.17631 23.4279C0.676215 22.9278 0.395264 22.2496 0.395264 21.5423V2.87565C0.395264 2.16841 0.676215 1.49013 1.17631 0.990033C1.67641 0.489936 2.35469 0.208984 3.06193 0.208984H21.7286ZM21.0619 20.8757V13.809C21.0619 12.6562 20.604 11.5506 19.7888 10.7354C18.9737 9.92027 17.8681 9.46232 16.7153 9.46232C15.5819 9.46232 14.2619 10.1557 13.6219 11.1957V9.71565H9.90193V20.8757H13.6219V14.3023C13.6219 13.2757 14.4486 12.4357 15.4753 12.4357C15.9703 12.4357 16.4451 12.6323 16.7952 12.9824C17.1453 13.3325 17.3419 13.8072 17.3419 14.3023V20.8757H21.0619ZM5.5686 7.62232C6.16268 7.62232 6.73244 7.38632 7.15252 6.96624C7.5726 6.54616 7.8086 5.9764 7.8086 5.38232C7.8086 4.14232 6.8086 3.12898 5.5686 3.12898C4.97098 3.12898 4.39783 3.36639 3.97525 3.78897C3.55267 4.21155 3.31526 4.7847 3.31526 5.38232C3.31526 6.62232 4.3286 7.62232 5.5686 7.62232ZM7.42193 20.8757V9.71565H3.7286V20.8757H7.42193Z" fill="#FCF7FF"/>
</svg>
